<svg xmlns="http://www.w3.org/2000/svg" viewBox="0 0 994.3 819.77"><defs><style>.cls-1{fill:#001919;}.cls-2{fill:#300;}.cls-3{fill:#ff00f9;}.cls-4{fill:#001f1f;}.cls-5{fill:#002b2a;}.cls-6{fill:#457f81;}.cls-7{fill:#0c4143;}.cls-8{fill:#061d1e;}.cls-9{fill:#032e2d;}.cls-10{fill:#688784;}.cls-11{fill:#1a1a1c;}.cls-12{fill:#326767;}.cls-13{isolation:isolate;font-size:153.58px;fill:#c70cf4;font-family:TheBoldFont, The Bold Font;}</style></defs><g id="Capa_2" data-name="Capa 2"><g id="Layer_1" data-name="Layer 1"><polygon class="cls-1" points="121.4 543.57 0 568.57 322.5 819.77 994.3 643.17 806 556.67 121.4 543.57"/><path class="cls-2" d="M213.8,167.57c-6.9,3-9.3,5.4-12.3,12.3-3-6.9-5.4-9.3-12.3-12.3,6.9-3,9.3-5.4,12.3-12.3C204.5,162.17,206.9,164.57,213.8,167.57Z"/><path class="cls-2" d="M794.1,99.07c-6.9,3-9.3,5.4-12.3,12.3-3-6.9-5.4-9.3-12.3-12.3,6.9-3,9.3-5.4,12.3-12.3C784.8,93.67,787.2,96.17,794.1,99.07Z"/><path class="cls-2" d="M729.4,175.17a7.19,7.19,0,0,0-4.5,4.5,7.19,7.19,0,0,0-4.5-4.5,7.19,7.19,0,0,0,4.5-4.5A7.19,7.19,0,0,0,729.4,175.17Z"/><path class="cls-2" d="M122.3,121.77a7.19,7.19,0,0,0-4.5,4.5,7.19,7.19,0,0,0-4.5-4.5,7.19,7.19,0,0,0,4.5-4.5C118.8,119.77,119.7,120.67,122.3,121.77Z"/><path class="cls-2" d="M159.8,214c-4.2,1.8-5.6,3.2-7.4,7.4-1.8-4.2-3.2-5.6-7.4-7.4,4.2-1.8,5.6-3.2,7.4-7.4C154.2,210.67,155.7,212.17,159.8,214Z"/><path class="cls-2" d="M768.6,206.57c-4.2,1.8-5.6,3.2-7.4,7.4-1.8-4.2-3.2-5.6-7.4-7.4,4.2-1.8,5.6-3.2,7.4-7.4C763,203.27,764.4,204.77,768.6,206.57Z"/><circle class="cls-3" cx="466.3" cy="336.37" r="257.3"/><path class="cls-4" d="M291.2,389.47l-165.7,28.3v119.3c41,1.2,81.9,4.3,122.7,7.5,52.1,4,104,7.3,156.3,7.8,64.2.5,128.6-1,192.6,5.3,32.6,3.2,64.9,9.2,97.4,13.9,25.6,3.6,51.3,7,76.9,10.5-.3-23.9-.3-47.7-.4-71.5q-.15-31.05-.5-62.1l-8.7-4.9c2.8,1.2,5.7,2.3,8.6,3.4,0-3.7-.1-7.5-.1-11.2a553.85,553.85,0,0,1-86.6-43.4l-5.7-11.1-5.8-9.1-3.1-13.7,1.5-14.1a569.87,569.87,0,0,0,99.4,50.4c0-3.7-.1-7.5-.1-11.2a556.67,556.67,0,0,1-98.1-50.8v-5.4l1.7-2.3-5.7-32.5-.4-1a573,573,0,0,0,102.2,52.3v-11.2a551.88,551.88,0,0,1-104.1-54.8c-1.4-1-2.8-1.9-4.2-2.9l-1.6-4.4L632,240.37l-10.2-14.7-14-15.2-6.2-2.4v-12.3l7.1-1.2v-7.8l-18.2-10.4-27.9,4.8v1.3c-1.1-2.1-2.4-1.7-3.6-2.6a4.76,4.76,0,0,0-2.5-1c-.7-.2-1.6-.9-2.7-1.4s-2.4-.5-3.6-.9-7.9-1.3-8.2-1.3-7,3.6-7,3.6-6,4.4-6.5,4.5-7.6,8.2-7.6,8.2l-2.5,5.9h-.1l-.5,2.3-.1,1.1.6-1,.1,1.6v4.1l1.4.9h-.2l-.3,9.8s4.2,10.3,4.7,10.3c.1,0,.3.3.5.7-17.1,3.9-38.5,8.2-63.6,12.4l-.4-.8-.6.5-2.2-4.5L439.5,222l-12.4,1.6-12.1,9.2,4.9-1.8-6.9,5.7,3.4-.8-3.3,4-1.1,4.3-28.3-3.9-52.5,4.2L315.6,254l-2.5,2.9c-42.6,2.9-79.4,3.7-108,3.7-20.6,0-36.9-.4-48.1-.9s-17.1-.9-17.1-.9a5.22,5.22,0,0,0-.8,10.4h0c.1,0,24.5,1.8,66,1.8,26.5,0,59.9-.7,98.5-3.1l-5,5.9-3.5,18.5h0l-1.5,8,2.3,8.8c-35.4,2-66.1,2.7-90.8,2.7-20.6,0-36.9-.4-48.1-.9s-17.1-.9-17.1-.9a5.22,5.22,0,0,0-.8,10.4h0c.1,0,24.5,1.8,66,1.8,25.3,0,57-.7,93.5-2.8l.6,2.2v18.7l.9.3v4.6l5.2,15.4c-39.3,2.5-73.4,3.2-100.2,3.2-20.6,0-36.9-.4-48.1-.9s-17.1-.9-17.1-.9a5.22,5.22,0,0,0-.8,10.4h0c.1,0,24.5,1.8,66,1.8,26.8,0,60.9-.7,100.1-3.2l-4.9,9.3Zm323.2-51.9,15.5-21.8c.2.2.4.3.6.5l7.2,20.5,2.4,2.6.2-.6c1,4.8,2.7,12.4,2.7,12.8,0,.6.4,11.2.4,11.2l2.7,4.2c-14.2-10.4-25.6-19.9-34.2-27.5-.1-.1-.2-.1-.2-.2Zm-12.8,7.6.6-.4c7.7,6.9,18.1,15.7,30.9,25.5l-31.5-17.9Zm-46.6-2.1h0l-.8,1.4-121.9,20.9.2-7.3c6.1-.9,12.1-1.8,17.9-2.7l-1.8,1.5,1.1,1.1h4.2l.3.3h0l.3.3,4.2-2.1h0l1.6-.8h0l1.4-.7,1-1,.9-.9c46.2-7.8,79.5-16,97.2-20.8ZM569.8,193v13.8h-.2l-.2-1.4-1.4-2.9a11.51,11.51,0,0,0,.4-2,20.67,20.67,0,0,0-.8-5.3c-.4-1.3-1.4-3.4-1.8-4.3Zm-33.6,114.3,13.4-8.4,1.9-4.1,1.9-12.6c5.8-1.5,10.6-2.8,14.1-3.8l2.3,1.3v29.9l-3,.5v9.6c-12.8,3.7-48.9,13.4-103.1,22.7l-.5-5.6-12.1-8.4-6.8-6.8-6.7-16.5c17.9-2.7,34.2-5.5,48.9-8.2l-.2,1.4,1.1,1.5h0l.8,1.1,1-.1.4,3,2.3,2.3,1.6-.4.1-1-1-1.9.4-1.1,6.4,1.3,5.6-.1,3.4-2.1,14,5.7Zm-73.5-44.1h0l-1.4,3.3-.1.1Zm-2.5,14.7,1.9-10.3,2-3.8.7-5.1-.1.2v-1.6h0l2.1,2.1-.2,2.2,1.6-3.1-2.5-8.8c.2,0,.5-.1.7-.1l.8.8v-1c24.2-4.2,44.8-8.4,61.3-12.2l1.5,1,1.1,1.9-.4,3,.9,1-.8,2.1.1.1-3.3.3-10.4,4,1.2,1.2,3.1.7-4.3,4.2-.1,1h0v.1l1.8.9,2.4-.7,6-3,4.3-.9-.6.7h0l-5.5,6.5-2.7,3.3.5.7h0l.3.3,3.1.2,3.2-3.3,2.1-.5-.4,2.6-1.7,1.8,1.1.7-.7,5.5-.7,4.8c-7.4,1.7-15.7,3.5-24.8,5.4l-1-.5-5.4-.7-5.4-.3-3.6,3.3v1.1l-1.6.3-.2.2c-11.2,2.1-23.4,4.3-36.6,6.4ZM434,289.37l2.2-.6,1.2.8.3-.2h0l5.3,4.5c-3.1.5-6.3,1-9.5,1.4l-2-5.1Zm-20.3,19.2,25.4,24v2.8l4.4,6.7,4.6,3c-5,.8-10.1,1.6-15.4,2.4l.1-3.5-1.8-7-8.4-7.9-13.7-19.8C410.6,309,412.1,308.77,413.7,308.57Zm-6.8-10.2.3.5c-.9.1-1.9.2-2.9.4Zm-23.5,50.8v-4l16.4,6.6c-5.6.7-11.4,1.4-17.3,2Zm23.5,12.3,1,1.5v6.5l-23.2,4-.9-4.1-3.3-4.8C389.6,363.67,398.4,362.57,406.9,361.47Zm-65.1-44.4,22.4,15.2-4.3,23.9c-8,.8-15.9,1.5-23.6,2.1l-3-29.3h0l-1-11.9Zm-4.8,51.7,21-1.8-.2,1.1,2.1,6.7,1.3,2.7-30.8,5.3Z"/><polygon class="cls-5" points="539.2 521.87 514.4 526.07 514.4 519.17 539.2 514.97 539.2 521.87"/><polygon class="cls-5" points="555.4 531.07 530.6 535.37 530.6 528.37 555.4 524.17 555.4 531.07"/><polygon class="cls-6" points="514.4 519.17 530.6 528.37 555.4 524.17 539.2 514.97 514.4 519.17"/><polygon class="cls-7" points="530.6 528.37 530.6 535.37 514.4 526.07 514.4 519.17 530.6 528.37"/><polygon class="cls-5" points="537.9 248.17 520.8 519.97 520.8 246.27 537.9 243.37 537.9 248.17"/><polygon class="cls-5" points="549.1 523.47 532 526.37 532 252.67 549.1 249.77 549.1 523.47"/><polygon class="cls-6" points="520.8 246.27 532 252.67 549.1 249.77 537.9 243.37 520.8 246.27"/><polygon class="cls-7" points="532 252.67 532 526.37 520.8 519.97 520.8 246.27 532 252.67"/><polygon class="cls-5" points="539.2 242.57 514.4 246.77 514.4 239.87 539.2 235.57 539.2 242.57"/><polygon class="cls-5" points="555.4 251.77 530.6 256.07 530.6 249.07 555.4 244.87 555.4 251.77"/><polygon class="cls-6" points="514.4 239.87 530.6 249.07 555.4 244.87 539.2 235.57 514.4 239.87"/><polygon class="cls-7" points="530.6 249.07 530.6 256.07 514.4 246.77 514.4 239.87 530.6 249.07"/><path class="cls-8" d="M528,351.87s-2.7-2.7-2.7-5.4,5-6.1,11.3-5,7.6,4.8,6.3,7.8S536.8,352.27,528,351.87Z"/><path class="cls-9" d="M525.4,359.67s1.9-8.7,1.9-11.8,8.3-6.7,12-3,2.3,15.2,2.3,15.2Z"/><polygon class="cls-10" points="535.8 356.67 518.1 371.97 518.1 354.77 535.8 351.77 535.8 356.67"/><polygon class="cls-11" points="547.3 375.57 529.7 378.57 529.7 361.37 547.3 358.37 547.3 375.57"/><polygon class="cls-5" points="518.1 354.77 529.7 361.37 547.3 358.37 535.8 351.77 518.1 354.77"/><polygon class="cls-7" points="529.7 361.37 529.7 378.57 518.1 371.97 518.1 354.77 529.7 361.37"/><path class="cls-8" d="M528,305.37s-2.7-2.7-2.7-5.4,5-6.1,11.3-5,7.6,4.8,6.3,7.8S536.8,305.77,528,305.37Z"/><path class="cls-9" d="M525.4,313.17s1.9-8.7,1.9-11.8,8.3-6.7,12-3,2.3,15.2,2.3,15.2Z"/><path class="cls-8" d="M528,267.57s-2.7-2.7-2.7-5.4,5-6.1,11.3-5,7.6,4.8,6.3,7.8S536.8,268,528,267.57Z"/><path class="cls-9" d="M525.4,275.27s1.9-8.7,1.9-11.8,8.3-6.7,12-3,2.3,15.2,2.3,15.2Z"/><polygon class="cls-10" points="535.8 310.87 518.1 326.17 518.1 308.97 535.8 305.97 535.8 310.87"/><polygon class="cls-11" points="547.3 329.77 529.7 332.77 529.7 315.57 547.3 312.47 547.3 329.77"/><polygon class="cls-5" points="518.1 308.97 529.7 315.57 547.3 312.47 535.8 305.97 518.1 308.97"/><polygon class="cls-7" points="529.7 315.57 529.7 332.77 518.1 326.17 518.1 308.97 529.7 315.57"/><polygon class="cls-10" points="535.8 265.07 518.1 280.37 518.1 263.17 535.8 260.17 535.8 265.07"/><polygon class="cls-11" points="547.3 283.87 529.7 286.97 529.7 269.77 547.3 266.67 547.3 283.87"/><polygon class="cls-5" points="518.1 263.17 529.7 269.77 547.3 266.67 535.8 260.17 518.1 263.17"/><polygon class="cls-7" points="529.7 269.77 529.7 286.97 518.1 280.37 518.1 263.17 529.7 269.77"/><polygon class="cls-5" points="529.8 494.47 125.5 563.67 125.5 450.47 529.8 381.37 529.8 494.47"/><polygon class="cls-5" points="794.5 644.97 390.3 726.27 390.1 600.97 794.5 531.87 794.5 644.97"/><polygon class="cls-6" points="125.5 450.47 390.1 600.97 794.5 531.87 529.8 381.37 125.5 450.47"/><polygon class="cls-12" points="151.4 453.67 395.5 592.47 768.6 528.67 524.4 389.87 151.4 453.67"/><polygon class="cls-7" points="390.1 600.97 390.3 726.27 125.5 563.67 125.5 450.47 390.1 600.97"/><path class="cls-9" d="M783.7,500.47C627.2,471.07,535.5,372,535.1,371.57h0a4.72,4.72,0,0,1,.3-6.6h0a4.81,4.81,0,0,1,6.6.2h0l1,1h0l3.1,3.1h0c2.7,2.7,6.8,6.6,12.3,11.4h0a448.88,448.88,0,0,0,47.8,36.6h0c41.7,28,102.7,59.5,179.4,73.9h0a4.64,4.64,0,0,1,3.7,5.4h0a4.68,4.68,0,0,1-4.5,3.8h0a2.33,2.33,0,0,1-1.1.1Z"/><path class="cls-9" d="M783.7,454.17c-156.5-29.4-248.2-128.5-248.6-128.9h0a4.72,4.72,0,0,1,.3-6.6h0a4.72,4.72,0,0,1,6.6.3h0l1,1h0l3.1,3.1h0c2.7,2.7,6.8,6.6,12.3,11.4h0a448.88,448.88,0,0,0,47.8,36.6h0c41.7,28,102.7,59.5,179.4,73.9h0a4.64,4.64,0,0,1,3.7,5.4h0a4.71,4.71,0,0,1-4.6,3.8h0a3.19,3.19,0,0,1-1,0Z"/><path class="cls-9" d="M783.7,409c-156.5-29.4-248.2-128.5-248.6-128.9h0a4.72,4.72,0,0,1,.3-6.6h0a4.81,4.81,0,0,1,6.6.2h0l1,1h0l3.1,3.1h0c2.7,2.7,6.8,6.6,12.3,11.4h0a448.88,448.88,0,0,0,47.8,36.6h0c41.7,28,102.7,59.5,179.4,73.9h0a4.64,4.64,0,0,1,3.7,5.4h0a4.68,4.68,0,0,1-4.5,3.8h0c-.6.2-.9.2-1.1.1Z"/><path class="cls-9" d="M137.6,318.27h0a4.62,4.62,0,0,1-4.3-5h0a4.62,4.62,0,0,1,5-4.3h0s5.3.4,15.2.8h0c9.9.4,24.5.8,42.8.8h0c34.6,0,82.8-1.4,139.3-6.9h0c101.7-9.8,168.9-28.2,184-32.6h0a33.23,33.23,0,0,0,3.2-1h0a4.64,4.64,0,0,1,5.8,3h0a4.64,4.64,0,0,1-3,5.8h0c-.2.1-72.1,22.7-189.1,34h0c-56.8,5.5-105.3,6.9-140.2,6.9h0c-36.9.1-58.6-1.4-58.7-1.5Z"/><path class="cls-9" d="M137.6,363.77h0a4.62,4.62,0,0,1-4.3-5h0a4.62,4.62,0,0,1,5-4.3h0s5.3.4,15.2.8h0c9.9.4,24.5.8,42.8.8h0c34.6,0,82.8-1.4,139.3-6.9h0c101.7-9.8,168.9-28.2,184-32.6h0a33.23,33.23,0,0,0,3.2-1h0a4.64,4.64,0,0,1,5.8,3h0a4.64,4.64,0,0,1-3,5.8h0c-.2.1-72.1,22.7-189.1,34h0c-56.8,5.5-105.3,6.9-140.2,6.9h0c-36.9.1-58.6-1.5-58.7-1.5Z"/><path class="cls-9" d="M137.6,410.07h0a4.62,4.62,0,0,1-4.3-5h0a4.62,4.62,0,0,1,5-4.3h0s5.3.4,15.2.8h0c9.9.4,24.5.8,42.8.8h0c34.6,0,82.8-1.4,139.3-6.9h0c101.7-9.8,168.9-28.2,184-32.6h0a33.23,33.23,0,0,0,3.2-1h0a4.64,4.64,0,0,1,5.8,3h0a4.64,4.64,0,0,1-3,5.8h0c-.2.1-72.1,22.7-189.1,34h0c-56.8,5.5-105.3,6.9-140.2,6.9h0c-36.9.1-58.6-1.5-58.7-1.5Z"/><polygon class="cls-5" points="832 653.27 807.2 657.47 807.2 650.57 832 646.27 832 653.27"/><polygon class="cls-5" points="848.2 662.47 823.4 666.77 823.4 659.77 848.2 655.57 848.2 662.47"/><polygon class="cls-6" points="807.2 650.57 823.4 659.77 848.2 655.57 832 646.27 807.2 650.57"/><polygon class="cls-7" points="823.4 659.77 823.4 666.77 807.2 657.47 807.2 650.57 823.4 659.77"/><polygon class="cls-5" points="830.7 379.57 813.6 651.37 813.6 377.67 830.7 374.77 830.7 379.57"/><polygon class="cls-5" points="841.9 654.87 824.8 657.77 824.8 384.07 841.9 381.07 841.9 654.87"/><polygon class="cls-6" points="813.6 377.67 824.8 384.07 841.9 381.07 830.7 374.77 813.6 377.67"/><polygon class="cls-7" points="824.8 384.07 824.8 657.77 813.6 651.37 813.6 377.67 824.8 384.07"/><polygon class="cls-5" points="832 373.97 807.2 378.17 807.2 371.27 832 366.97 832 373.97"/><polygon class="cls-5" points="848.2 383.17 823.4 387.37 823.4 380.47 848.2 376.27 848.2 383.17"/><polygon class="cls-6" points="807.2 371.27 823.4 380.47 848.2 376.27 832 366.97 807.2 371.27"/><polygon class="cls-7" points="823.4 380.47 823.4 387.37 807.2 378.17 807.2 371.27 823.4 380.47"/><path class="cls-8" d="M817.4,460.07h-2.8a17.13,17.13,0,0,1,0-12.2s-.2-2.4,4-2.4C818.6,445.47,824.9,451.17,817.4,460.07Z"/><path class="cls-11" d="M818.6,445.47h-.4c.6,2.8.1,11.4-1.6,11.4s-1.5-3-1.5-3l-1.6.4a16.85,16.85,0,0,0,1.1,5.7h2.8C824.9,451.17,818.6,445.47,818.6,445.47Z"/><path class="cls-8" d="M818.6,415.77h-2.8a17.13,17.13,0,0,1,0-12.2s-.2-2.4,4-2.4C819.7,401.27,826,406.87,818.6,415.77Z"/><path class="cls-11" d="M819.7,401.27h-.4c.6,2.8.1,11.4-1.6,11.4s-1.5-3-1.5-3l-1.6.4a16.85,16.85,0,0,0,1.1,5.7h2.8C826,406.87,819.7,401.27,819.7,401.27Z"/><path class="cls-8" d="M817.4,507.07h-2.8a17.13,17.13,0,0,1,0-12.2s-.2-2.4,4-2.4C818.6,492.57,824.9,498.17,817.4,507.07Z"/><path class="cls-11" d="M818.6,492.57h-.4c.6,2.8.1,11.4-1.6,11.4s-1.5-3-1.5-3l-1.6.4a16.85,16.85,0,0,0,1.1,5.7h2.8C824.9,498.17,818.6,492.57,818.6,492.57Z"/><path class="cls-8" d="M804.8,407.37v-3.5s-6.1-1.5-7,5.1,2.5,8.7,5.6,8.1l.8-3.1Z"/><path class="cls-9" d="M818.2,403.77s-10.2,1.8-15,1.8-5.1,6.8-2.4,9.5,16.3-.4,16.3-.4Z"/><path class="cls-8" d="M802.8,450.77v-3.5s-6.1-1.5-7,5.1,2.5,8.7,5.6,8.1l.8-3.1Z"/><path class="cls-9" d="M816.2,447.17s-10.2,1.8-15,1.8-5.1,6.8-2.4,9.5,16.3-.4,16.3-.4Z"/><path class="cls-8" d="M802.8,498.27v-3.5s-6.1-1.5-7,5.1,2.5,8.7,5.6,8.1l.8-3.1Z"/><path class="cls-9" d="M816.2,494.67s-10.2,1.8-15,1.8-5.1,6.8-2.4,9.5,16.3-.4,16.3-.4Z"/><polygon class="cls-10" points="790.6 491.27 773 506.57 773 489.37 790.6 486.27 790.6 491.27"/><polygon class="cls-11" points="802.2 510.07 784.5 513.17 784.5 495.87 802.2 492.87 802.2 510.07"/><polygon class="cls-5" points="773 489.37 784.5 495.87 802.2 492.87 790.6 486.27 773 489.37"/><polygon class="cls-7" points="784.5 495.87 784.5 513.17 773 506.57 773 489.37 784.5 495.87"/><polygon class="cls-10" points="790.6 445.47 773 460.77 773 443.47 790.6 440.47 790.6 445.47"/><polygon class="cls-11" points="802.2 464.27 784.5 467.27 784.5 450.07 802.2 447.07 802.2 464.27"/><polygon class="cls-5" points="773 443.47 784.5 450.07 802.2 447.07 790.6 440.47 773 443.47"/><polygon class="cls-7" points="784.5 450.07 784.5 467.27 773 460.77 773 443.47 784.5 450.07"/><polygon class="cls-10" points="790.6 399.57 773 414.87 773 397.67 790.6 394.67 790.6 399.57"/><polygon class="cls-11" points="802.2 418.47 784.5 421.47 784.5 404.27 802.2 401.27 802.2 418.47"/><polygon class="cls-5" points="773 397.67 784.5 404.27 802.2 401.27 790.6 394.67 773 397.67"/><polygon class="cls-7" points="784.5 404.27 784.5 421.47 773 414.87 773 397.67 784.5 404.27"/><polygon class="cls-10" points="134.8 305.87 117.1 321.17 117.1 303.97 134.8 300.97 134.8 305.87"/><polygon class="cls-11" points="146.4 324.77 128.7 327.77 128.7 310.57 146.4 307.57 146.4 324.77"/><polygon class="cls-5" points="117.1 303.97 128.7 310.57 146.4 307.57 134.8 300.97 117.1 303.97"/><polygon class="cls-7" points="128.7 310.57 128.7 327.77 117.1 321.17 117.1 303.97 128.7 310.57"/><path class="cls-8" d="M118.9,312.07v-3.5s6.1-1.5,7,5.1-2.5,8.7-5.6,8.1l-.8-3.1Z"/><path class="cls-9" d="M105.5,308.37s10.2,1.8,15,1.8,5.1,6.8,2.4,9.5-16.3-.4-16.3-.4Z"/><polygon class="cls-10" points="134.8 351.77 117.1 367.07 117.1 349.77 134.8 346.77 134.8 351.77"/><polygon class="cls-11" points="146.4 370.57 128.7 373.57 128.7 356.37 146.4 353.37 146.4 370.57"/><polygon class="cls-5" points="117.1 349.77 128.7 356.37 146.4 353.37 134.8 346.77 117.1 349.77"/><polygon class="cls-7" points="128.7 356.37 128.7 373.57 117.1 367.07 117.1 349.77 128.7 356.37"/><path class="cls-8" d="M118.9,358.27v-3.5s6.1-1.5,7,5.1-2.5,8.7-5.6,8.1l-.8-3.1Z"/><path class="cls-9" d="M105.5,354.37s10.2,1.8,15,1.8,5.1,6.8,2.4,9.5-16.3-.4-16.3-.4Z"/><polygon class="cls-10" points="134.8 397.57 117.1 412.87 117.1 395.67 134.8 392.57 134.8 397.57"/><polygon class="cls-11" points="146.4 416.37 128.7 419.47 128.7 402.17 146.4 399.17 146.4 416.37"/><polygon class="cls-5" points="117.1 395.67 128.7 402.17 146.4 399.17 134.8 392.57 117.1 395.67"/><polygon class="cls-7" points="128.7 402.17 128.7 419.47 117.1 412.87 117.1 395.67 128.7 402.17"/><path class="cls-8" d="M118.9,403.07v-3.5s6.1-1.5,7,5.1-2.5,8.7-5.6,8.1l-.8-3.1Z"/><path class="cls-9" d="M105.5,399.17s10.2,1.8,15,1.8,5.1,6.8,2.4,9.5-16.3-.4-16.3-.4Z"/><polygon class="cls-5" points="100.3 562.47 75.5 566.77 75.5 559.77 100.3 555.57 100.3 562.47"/><polygon class="cls-5" points="116.5 571.77 91.7 575.97 91.7 569.07 116.5 564.77 116.5 571.77"/><polygon class="cls-6" points="75.5 559.77 91.7 569.07 116.5 564.77 100.3 555.57 75.5 559.77"/><polygon class="cls-7" points="91.7 569.07 91.7 575.97 75.5 566.77 75.5 559.77 91.7 569.07"/><polygon class="cls-5" points="98.9 288.77 81.8 560.67 81.8 286.87 98.9 283.97 98.9 288.77"/><polygon class="cls-5" points="110.1 564.07 93 566.97 93 293.27 110.1 290.37 110.1 564.07"/><polygon class="cls-6" points="81.8 286.87 93 293.27 110.1 290.37 98.9 283.97 81.8 286.87"/><polygon class="cls-7" points="93 293.27 93 566.97 81.8 560.67 81.8 286.87 93 293.27"/><polygon class="cls-5" points="100.3 283.17 75.5 287.47 75.5 280.47 100.3 276.27 100.3 283.17"/><polygon class="cls-5" points="116.5 292.37 91.7 296.67 91.7 289.67 116.5 285.47 116.5 292.37"/><polygon class="cls-6" points="75.5 280.47 91.7 289.67 116.5 285.47 100.3 276.27 75.5 280.47"/><polygon class="cls-7" points="91.7 289.67 91.7 296.67 75.5 287.47 75.5 280.47 91.7 289.67"/><path class="cls-9" d="M399.4,558.77c-170.8-27.5-267.1-144.1-267.5-144.5h0a4.6,4.6,0,0,1,.6-6.5h0a4.6,4.6,0,0,1,6.5.6h0s.3.4,1,1.2h0c.7.8,1.8,2.1,3.2,3.6h0c2.9,3.2,7.2,7.7,13,13.3h0a455.94,455.94,0,0,0,50.8,42.3h0c44.6,32,110.1,67.4,193.7,80.8h0a4.63,4.63,0,0,1,3.8,5.3h0a4.62,4.62,0,0,1-4.6,3.9h-.5Z"/><path class="cls-9" d="M399.4,511.77c-170.8-27.5-267.1-144.1-267.5-144.5h0a4.6,4.6,0,0,1,.6-6.5h0a4.6,4.6,0,0,1,6.5.6h0s.3.4,1,1.2h0c.7.8,1.8,2,3.2,3.6h0c2.9,3.2,7.2,7.7,13,13.3h0a455.94,455.94,0,0,0,50.8,42.3h0c44.6,32,110.1,67.4,193.7,80.8h0a4.63,4.63,0,0,1,3.8,5.3h0a4.62,4.62,0,0,1-4.6,3.9h-.5Z"/><path class="cls-9" d="M399.4,468c-170.8-27.5-267.1-144.1-267.5-144.5h0a4.6,4.6,0,0,1,.6-6.5h0a4.6,4.6,0,0,1,6.5.6h0s.3.4,1,1.2h0c.7.8,1.8,2.1,3.2,3.6h0c2.9,3.2,7.2,7.7,13,13.3h0A455.94,455.94,0,0,0,207,378h0c44.6,32,110.1,67.4,193.7,80.8h0a4.63,4.63,0,0,1,3.8,5.3h0a4.62,4.62,0,0,1-4.6,3.9h-.5Z"/><path class="cls-9" d="M403.8,475.17a4.61,4.61,0,0,1-4.6-4.7h0a4.61,4.61,0,0,1,4.7-4.6h0s3.1.1,8.8.1h0a1607.8,1607.8,0,0,0,188.8-11.8h0c92.1-11.5,156.1-38.9,170.4-45.5h0c2.1-.9,3-1.4,3-1.4h0a4.64,4.64,0,0,1,6.2,2.1h0a4.64,4.64,0,0,1-2.1,6.2h0c-.3.1-69.7,34.5-176.4,47.8h0a1627,1627,0,0,1-189.9,11.8h-8.9Z"/><path class="cls-9" d="M403.8,518a4.67,4.67,0,0,1-4.6-4.7h0a4.61,4.61,0,0,1,4.7-4.6h0s3.1.1,8.8.1h0A1607.8,1607.8,0,0,0,601.5,497h0c92.1-11.5,156.1-38.9,170.4-45.5h0c2.1-.9,3-1.4,3-1.4h0a4.64,4.64,0,0,1,6.2,2.1h0a4.64,4.64,0,0,1-2.1,6.2h0c-.3.2-69.7,34.5-176.4,47.8h0A1627,1627,0,0,1,412.7,518h0c-5.7.1-8.9,0-8.9,0Z"/><path class="cls-9" d="M403.8,561.47a4.61,4.61,0,0,1-4.6-4.7h0a4.61,4.61,0,0,1,4.7-4.6h8.8a1607.8,1607.8,0,0,0,188.8-11.8h0c92.1-11.5,156.1-38.9,170.4-45.5h0c2.1-.9,3-1.4,3-1.4h0a4.64,4.64,0,0,1,6.2,2.1h0a4.64,4.64,0,0,1-2.1,6.2h0c-.3.2-69.7,34.5-176.4,47.8h0a1627,1627,0,0,1-189.9,11.8h0c-5.7.1-8.9.1-8.9.1Z"/><polygon class="cls-10" points="401.1 550.37 383.5 565.67 383.5 548.47 401.1 545.47 401.1 550.37"/><polygon class="cls-11" points="412.7 569.27 395 572.27 395 555.07 412.7 552.07 412.7 569.27"/><polygon class="cls-5" points="383.5 548.47 395 555.07 412.7 552.07 401.1 545.47 383.5 548.47"/><polygon class="cls-7" points="395 555.07 395 572.27 383.5 565.67 383.5 548.47 395 555.07"/><polygon class="cls-10" points="401.1 504.57 383.5 519.87 383.5 502.67 401.1 499.67 401.1 504.57"/><polygon class="cls-11" points="412.7 523.47 395 526.47 395 509.27 412.7 506.17 412.7 523.47"/><polygon class="cls-5" points="383.5 502.67 395 509.27 412.7 506.17 401.1 499.67 383.5 502.67"/><polygon class="cls-7" points="395 509.27 395 526.47 383.5 519.87 383.5 502.67 395 509.27"/><polygon class="cls-10" points="401.1 458.77 383.5 474.07 383.5 456.87 401.1 453.77 401.1 458.77"/><polygon class="cls-11" points="412.7 477.57 395 480.67 395 463.37 412.7 460.37 412.7 477.57"/><polygon class="cls-5" points="383.5 456.87 395 463.37 412.7 460.37 401.1 453.77 383.5 456.87"/><polygon class="cls-7" points="395 463.37 395 480.67 383.5 474.07 383.5 456.87 395 463.37"/><polygon class="cls-5" points="390.3 733.17 365.5 737.47 365.5 730.47 390.3 726.27 390.3 733.17"/><polygon class="cls-5" points="406.5 742.37 381.7 746.67 381.7 739.67 406.5 735.47 406.5 742.37"/><polygon class="cls-6" points="365.5 730.47 381.7 739.67 406.5 735.47 390.3 726.27 365.5 730.47"/><polygon class="cls-7" points="381.7 739.67 381.7 746.67 365.5 737.47 365.5 730.47 381.7 739.67"/><polygon class="cls-5" points="389 459.47 371.8 731.37 371.8 457.57 389 454.67 389 459.47"/><polygon class="cls-5" points="400.2 734.77 383.1 737.67 383.1 463.97 400.2 461.07 400.2 734.77"/><polygon class="cls-6" points="371.8 457.57 383.1 463.97 400.2 461.07 389 454.67 371.8 457.57"/><polygon class="cls-7" points="383.1 463.97 383.1 737.67 371.8 731.37 371.8 457.57 383.1 463.97"/><polygon class="cls-5" points="390.3 453.87 365.5 458.07 365.5 451.17 390.3 446.97 390.3 453.87"/><polygon class="cls-5" points="406.5 463.07 381.7 467.37 381.7 460.37 406.5 456.17 406.5 463.07"/><polygon class="cls-6" points="365.5 451.17 381.7 460.37 406.5 456.17 390.3 446.97 365.5 451.17"/><polygon class="cls-7" points="381.7 460.37 381.7 467.37 365.5 458.07 365.5 451.17 381.7 460.37"/><path class="cls-4" d="M423.3,29.87a20.34,20.34,0,0,0-15.4-7.7c-3.9-5.2-15.4-18-24.4-20.7-11-3.3-18.4-.3-21.8,1.8-.8.5-3.1,1.4-5.1,2.3-5.4,2.3-12.7,5.4-18.1,9.4-10.9,8.2-18.8,22.5-20.2,36.4-1.1,11.5,2.4,21.7,9.8,28.6,5.5,5.1,12.6,5.1,16.2,4.6a47.91,47.91,0,0,0,12,19.4c6.2,5.8,12.8,8.6,17.1,10.5l.6.3a.37.37,0,0,0,.1.3,3.42,3.42,0,0,0,2.3,2.5,12,12,0,0,0,.4,2.2v.1h0v.2c1.1,5.9,3.1,10.6,6,13.9a13.25,13.25,0,0,0,6.7,4.3c3.7.7,7.2-.8,13.6-5.6,6.2-4.6,10.6-8.2,13.2-11.4,3-.6,6.6-2.5,11-5.8a84.54,84.54,0,0,0,8-7c4.1-4.3,6.1-7.7,6.2-10.8.2-5.1-1.1-8.5-5.8-14.7-3.4-4.6-6.7-6.2-9.1-6.8a3.38,3.38,0,0,0-1.6-3.4.35.35,0,0,0-.2-.1c2.8-9.4,4.2-17.6,4.1-24.6C428.7,40.37,426.8,34.37,423.3,29.87Z"/><path class="cls-3" d="M421.7,31.17a19.12,19.12,0,0,0-15-7.1c-3.7-5.3-15.6-18.3-24-20.8-10.3-3.1-17-.4-20.1,1.5a55.44,55.44,0,0,1-5.4,2.4c-5.3,2.2-12.5,5.3-17.6,9.2-10.4,7.9-18,21.6-19.4,35-1.1,10.9,2.2,20.6,9.3,27.1,5,4.7,11.8,4.8,16.2,3.9,1.4,4.5,4.8,13.4,12,20.1,6,5.6,12.4,8.3,16.6,10.1a14.17,14.17,0,0,1,1.8.8,1.73,1.73,0,0,0-.1,1,1.75,1.75,0,0,0,1.8,1.3c.1.1.2.1.3.2.4,1.7.6,3.4.6,3.4v.2c1,5.6,2.9,10,5.6,13.1a11.73,11.73,0,0,0,5.7,3.7c2.6.5,5.3-.2,12-5.2,6.5-4.9,11-8.6,13.3-11.7,2.8-.3,6.4-2.2,10.9-5.6a69.55,69.55,0,0,0,7.7-6.8c3.7-3.8,5.5-6.8,5.6-9.4.2-4.7-1-7.6-5.5-13.6-3.7-4.9-7-6-8.8-6.3a4.35,4.35,0,0,0-.7-.4v-.2a1.85,1.85,0,0,0-.2-.7,1.83,1.83,0,0,0-.5-2.3,1.81,1.81,0,0,0-1.6-.1c3.2-10,4.8-18.8,4.6-26C426.7,41,425,35.27,421.7,31.17Zm-90,45.1c-16.4-15.2-7.1-44.9,9.7-57.6,7.2-5.5,19.4-9.4,22.7-11.4s9.1-3.7,17.5-1.2c7.2,2.1,17.8,13.4,21.9,18.7a37.25,37.25,0,0,0-3.8,1.5c-1.1-1.3-2-4.2-2.6-5.3-.8-1.4-3-1.4-1.7.6s.3,5.6-.7,6.2-1,0-.8-1.9-.1-3.8-1.1-3.9-.3,2.3-.8,2.2-1.4-4.3-1.9-6.2-1.8-1.6-2.3-.9,2,4.4,2.5,8.2-.8,3.9-1.6,3.6-6-8.2-7.5-10.4-4.4-5.2-5.5-5.1-1,1.1,1,3.1,6.4,6.8,8.8,11,1.3,5.1.3,6.1-1.7-.2-3.3-2.5-4.3-3.9-4.8-3.2.4,1.3,2.6,3.1,2.2,5.2,1.4,5.9-1.8-.4-3.4-2.7-4.2-1.5-3.2-.8a7.8,7.8,0,0,1,3.1,5.9c.1,2.8-1.7,1.3-3.1-.8s-6.7-4.8-7.2-3.8,1.4,1.4,3.6,3a10.83,10.83,0,0,1,4,6.3c-3.1,4-5.3,8.3-5.7,11.9a7.9,7.9,0,0,0,.6,4.4,2.63,2.63,0,0,1-2.5.9l-.2-.2c-1.5-1.9-1.5-2.1-1.5-3.6s-.5-2.8-1.2-2.2c-2.4,1.8-1.6,5.8,0,8-1.3,1.3-3.3,3.2-4.1,3.9-1.3,1-5,.1-5.7-.5s1.3-2.2-.7-2.7c-1.8-.5-2.4,3.9-.8,4.8a8.71,8.71,0,0,0,3.7.9,4.46,4.46,0,0,1-2.1,2.5,7,7,0,0,1-6-1.1c-1.8-1.3-2.5-.5-2.5.6s1.2,2.1,2.8,2.8a5.78,5.78,0,0,1-3.1,4.6C343.1,80.17,336.5,80.67,331.7,76.27Zm77.1,45.5a.8.8,0,0,1-1.1.3.71.71,0,0,1-.2-1.1c4.4-6.7,14.1-29.3,14.5-41.4.5-.7,1.1-1.4,1.6-2.1.4,6.7-2.6,16.6-5.3,23.8C415,110.27,411,118.37,408.8,121.77Zm5.9-9.2c1-.3,2.1-.7,3.2-1.1a.75.75,0,0,1,1,.5.8.8,0,0,1-.6,1l-4.5,1.5C414.1,113.77,414.4,113.17,414.7,112.57Zm-8.4,8.8c-.8-.9-1.8-2-2.9-3.3,1.7-.3,3.5-.7,5.3-1.2-.8,1.5-1.5,2.8-2.1,3.7A6.89,6.89,0,0,0,406.3,121.37Zm3.8-8.5a11.21,11.21,0,0,1,.3-2.4c.4-2.1,1.1-3.8,1.6-3.8s.5,1.1.3,2.6c-.5,1.2-1,2.3-1.5,3.4A1.85,1.85,0,0,1,410.1,112.87Zm-3.4-8.7c-.4,2.1-1.1,3.8-1.6,3.8s-.5-1.8-.1-3.9,1.1-3.8,1.6-3.8S407.1,102.07,406.7,104.17Zm1.9,5.8c0,.5-1.8,1-3.9,1.2s-4,0-4-.5,1.8-1,3.9-1.2S408.6,109.47,408.6,110Zm12.2-27.9c-.7,6.2-3.3,14.5-6.2,21.9-2.5-2.9-5.1-6-7.2-8.6a131.57,131.57,0,0,0,12.7-13.2A1.48,1.48,0,0,1,420.8,82.07ZM414.2,105l-.9,2.1c-.2-.7-.5-1.2-1.1-1.3s-1.2.4-1.7,1.1c-.9-1-1.8-2.1-2.7-3.2.3-2.1.3-4.3-1.1-4.4-.7-.1-1.2.4-1.6,1.1l-1.5-1.8c1-.8,2-1.7,3-2.6C408.7,98.67,411.5,102,414.2,105Zm-15-2c2.2-.2,4,0,4,.5s-1.8,1-3.9,1.2a9.9,9.9,0,0,1-3.1-.1c.7-.5,1.3-1,2-1.6Zm.1,2.7h.5c.9,1.1,1.8,2.1,2.7,3.2a4.84,4.84,0,0,0-2.4,1,1.8,1.8,0,0,0-.4.9.91.91,0,0,0,.4.8c.9.8,3.5.7,4.6.6a1.27,1.27,0,0,0,.6-.1,21,21,0,0,1,1.4,1.7c-2.1.5-4,.9-5.8,1.2-2.2-2.7-4.5-5.7-6.9-8.8l1.1-.8A10.21,10.21,0,0,0,399.3,105.67Zm.4,9.4c-8.7,1.2-14.4.3-17.7-1.2a101.6,101.6,0,0,0,11.2-7.1C395.4,109.67,397.6,112.57,399.7,115.07Zm10.6-1.2c-.3.6-.6,1.3-.9,1.8-15.7,4.1-25.6,2.7-30.3-.5a14.17,14.17,0,0,0,1.8-.8C385.9,117.17,396,117.77,410.3,113.87Zm-10,14.8c-6.8,5.1-8.4,4.8-9.5,4.6s-7-2.5-9.2-14.7a4.54,4.54,0,0,1-.1-1,29.77,29.77,0,0,0,9.2,1.6,60.69,60.69,0,0,0,11.6-.9,56.24,56.24,0,0,0,4.7,5.2C405,125.07,402.7,126.77,400.3,128.67Zm11-9.2a.76.76,0,0,0,.2-.4l.1.1Zm7.1-4.2a4.06,4.06,0,0,1-1-.9c.4-.1.9-.3,1.3-.4a1.94,1.94,0,0,0,1.3-2.3,1.75,1.75,0,0,0-2.2-1.1c-.8.3-1.6.5-2.4.8.5-1.1,1-2.3,1.5-3.5a49.68,49.68,0,0,0,5.3,5.2C420.8,113.87,419.5,114.67,418.4,115.27Zm13.1-29.5c4.2,5.6,5.1,7.9,4.9,11.8s-8.4,11.1-12,13.8c-.5.4-1,.7-1.5,1.1a59.93,59.93,0,0,1-5.7-5.7c3.6-8.7,6.8-18.9,7.3-26.2C425.5,80.67,428.2,81.37,431.5,85.77ZM423.2,75c.4.2.4.7.2,1.1-12.5,18.1-37.7,36.3-45.5,38.5a.83.83,0,0,1-1-.5,1,1,0,0,1,.6-1c6.8-1.9,31.9-19.7,44.5-37.8A1,1,0,0,1,423.2,75ZM383,91.07c-4.3-6.3-1.9-8.6.1-10.5l.7-.7c1.9-2,5.1-3.6,8.1-1.3,1.9,1.5,8,8.3,11.5,13.1q.45.6,1.2,1.5c-.4.4-.9.8-1.3,1.2,0-1.2-.4-2-1.2-2.1s-1.5.6-1.9,1.6a5.55,5.55,0,0,0-.6-.8c-.7-.8-1.3-1.7-1.9-2.5.4-2.2.5-4.7-1-4.9-.7-.1-1.3.4-1.7,1.2-1-1.3-1.8-2.4-2.6-3.4a1.35,1.35,0,0,0,0-1.6c-.4-.5-1-.5-1.7-.3-.4-.3-.7-.6-.9-.7-1.5-.6-3.4,1.5-4.5,3a2,2,0,0,0-.2,1.7,3.8,3.8,0,0,0-1,1.7,1,1,0,0,0,.2.9.91.91,0,0,0,.8.4,3.45,3.45,0,0,0,1.3-.3,1.38,1.38,0,0,1,.3.4,3.76,3.76,0,0,0-2.1,1,1.8,1.8,0,0,0-.4.9.91.91,0,0,0,.4.8c.9.8,3.4.7,4.5.6a15.76,15.76,0,0,0,1.2,1.5c.4.5.9,1.1,1.4,1.8a3.42,3.42,0,0,0-1.7.9,1.21,1.21,0,0,0,0,1.8c.8.7,3.1.7,4.3.6.5.6,1,1.3,1.6,1.9-1.3,1-2.5,1.9-3.7,2.8C388.2,98.47,384.8,93.77,383,91.07Zm4.7-6.5c1.8-1.4,3.5-2.2,3.7-1.8s-.9,1.8-2.7,3.2-3.5,2.2-3.7,1.8S385.9,85.87,387.7,84.57Zm8.8,6.2c-.4,2.1-1.1,3.8-1.6,3.8s-.6-1.8-.1-3.9,1.1-3.8,1.6-3.8S396.9,88.57,396.5,90.77Zm-3.6-.8c0,.5-1.8,1-3.9,1.2s-4,0-4-.5,1.8-1,4-1.2S392.9,89.57,392.9,90Zm5.5,6.5c0,.5-1.8,1-3.9,1.2s-4,0-4-.5,1.8-1,3.9-1.2S398.3,96.07,398.4,96.47Zm1.7.6c.4-2.1,1.1-3.8,1.6-3.8.3,0,.5.9.4,2.1-.6.6-1.3,1.1-2,1.7Zm20.5-28c-3.3,6.1-9.6,11.9-12.4,13-3.4,1.4.9,2.3,4.3.1a5,5,0,0,1,3.4-.6,124.47,124.47,0,0,1-10.8,11,14.31,14.31,0,0,1-1.1-1.5c-3.6-4.9-9.7-11.7-11.7-13.2-3.5-2.7-7.3-.9-9.5,1.4a4.35,4.35,0,0,0-.6.7c-2,1.9-5,4.8-.2,11.8,1.9,2.8,5.3,7.4,9,12.4a84.22,84.22,0,0,1-11.9,7.4c-3.2-1.9-11.7-4.1-19.3-11.2-7-6.6-10.3-15.5-11.4-19.5a7.24,7.24,0,0,0,3-5.6,8.59,8.59,0,0,0,4.4-.5c3.7-1.5,4.3-4.1,4.4-5l.9-.3a11.46,11.46,0,0,0,5.4-4.5c-.7,1.7-.7,3.6.1,3.9,1.1.4,4.1-3.9,5.8-3.4s3.3,1.6,1.2,3.7-6.7,3.5-9.7,2.5-1.3,4.6,3.6,3.5,8.6-4.8,10.5-6,1.9-.8,1.5,1.2,1.4,6.5,3,6.2-1.2-3.8,0-6.7,1.7-3.7,2.6-3.9,1,2.3,2.2,5.8,6.1,7.1,10,7,4.1-2.3.3-2.4-8.2-4.7-7.4-5.7,2.8.9,4.1,2.7,4.2.9,1.4-2.6-4.5-5.8-3.8-7.6,4.9,2.4,6,.1-4.1-1.4-3-2.8,4.9,1.5,5.4-.5c.4-1.7-3.2-1.9-3.3-3.3.6-.5,1.1-.9,1.6-1.3a1.56,1.56,0,0,0,.2-2.1,1.45,1.45,0,0,0-2.1,0c-4.7,4.2-16.9,11.8-22.5,7.2a4.48,4.48,0,0,1-1.4-4.2c.8-6.5,9-16.3,16-20.6,7.4-4.6,12.2-7,17-8.5.1,0,.2-.1.3-.1C415.7,26.77,430.4,34.67,420.6,69.07Z"/><text class="cls-13" transform="matrix(1, -0.18, 0.17, 0.98, 401.36, 718.87)"><tspan xml:space="preserve">a  b  k</tspan></text></g></g></svg>