<svg xmlns="http://www.w3.org/2000/svg" xmlns:xlink="http://www.w3.org/1999/xlink" viewBox="0 0 500 372.61"><defs><style>.cls-1{fill:none;}.cls-2{fill:#ebebeb;}.cls-3{fill:#e6e6e6;}.cls-4{fill:#f5f5f5;}.cls-5{fill:#fafafa;}.cls-20,.cls-27,.cls-6{fill:#fff;}.cls-7{fill:#e0e0e0;}.cls-24,.cls-7{opacity:0.6;}.cls-8{fill:#f0f0f0;}.cls-19,.cls-9{fill:#263238;}.cls-10{fill:#ffb573;}.cls-11{fill:#f9c74f;}.cls-12,.cls-15,.cls-19,.cls-27{opacity:0.2;}.cls-13{fill:#ed893e;}.cls-14{clip-path:url(#clip-path);}.cls-16,.cls-17{fill:#f48c06;}.cls-17{opacity:0.3;}.cls-18{fill:#7f3e3b;}.cls-20{opacity:0.1;}.cls-21{fill:#ffd166;}.cls-22{fill:#630f0f;}.cls-23,.cls-24{fill:#fdffb6;}.cls-25{fill:#ffc3bd;}.cls-26{fill:#faa307;}.cls-28{fill:#ed847e;}.cls-29{fill:#ffba08;}</style><clipPath id="clip-path"><path class="cls-1" d="M361.31,125.83a55.14,55.14,0,0,1,2.38-7.41,30.7,30.7,0,0,1,4.69-1,34.27,34.27,0,0,1,7.84,10.18c4.29-4.33,12.5-8.72,17.5-10.32a13.46,13.46,0,0,1,5,.63c-3.41,10.76-6.89,21.58-.72,24.36-.11,5.11.18,11.44.44,17.86-5.83-.64-28.95-1.75-38.34.31-.48-6.5-.65-12-.62-16.75C355.11,138.1,359.49,130.52,361.31,125.83Z"/></clipPath></defs><g id="Capa_2" data-name="Capa 2"><g id="Background_Complete" data-name="Background Complete"><rect class="cls-2" y="327.45" width="500" height="0.25"/><rect class="cls-2" x="52.46" y="336.97" width="33.12" height="0.25"/><rect class="cls-2" x="153.44" y="334.26" width="26.39" height="0.25"/><rect class="cls-2" x="89.97" y="342.87" width="45.92" height="0.25"/><rect class="cls-2" x="428.3" y="344.58" width="21.6" height="0.25"/><rect class="cls-2" x="391.47" y="344.58" width="31.97" height="0.25"/><rect class="cls-2" x="277.21" y="340.35" width="55.12" height="0.25"/><path class="cls-2" d="M237,282.85H43.91a5.71,5.71,0,0,1-5.7-5.71V5.71A5.71,5.71,0,0,1,43.91,0H237a5.71,5.71,0,0,1,5.71,5.71V277.14A5.71,5.71,0,0,1,237,282.85ZM43.91.25a5.46,5.46,0,0,0-5.45,5.46V277.14a5.46,5.46,0,0,0,5.45,5.46H237a5.47,5.47,0,0,0,5.46-5.46V5.71A5.47,5.47,0,0,0,237,.25Z"/><path class="cls-2" d="M453.31,282.85H260.21a5.72,5.72,0,0,1-5.71-5.71V5.71A5.72,5.72,0,0,1,260.21,0h193.1A5.71,5.71,0,0,1,459,5.71V277.14A5.71,5.71,0,0,1,453.31,282.85ZM260.21.25a5.47,5.47,0,0,0-5.46,5.46V277.14a5.47,5.47,0,0,0,5.46,5.46h193.1a5.47,5.47,0,0,0,5.46-5.46V5.71A5.47,5.47,0,0,0,453.31.25Z"/><rect class="cls-3" x="86.23" y="26.35" width="326.64" height="141.69" transform="translate(499.11 194.39) rotate(180)"/><rect class="cls-4" x="81.73" y="26.35" width="329.18" height="141.69" transform="translate(492.65 194.39) rotate(180)"/><rect class="cls-5" x="183.65" y="-59.32" width="125.35" height="313.03" transform="translate(343.52 -149.13) rotate(90)"/><polygon class="cls-6" points="222.91 159.87 187.21 34.52 162.3 34.52 198 159.87 222.91 159.87"/><polygon class="cls-6" points="190.93 159.87 155.24 34.52 138.08 34.52 173.78 159.87 190.93 159.87"/><polygon class="cls-6" points="372.78 159.87 337.09 34.52 312.17 34.52 347.87 159.87 372.78 159.87"/><polygon class="cls-6" points="340.81 159.87 305.11 34.52 287.96 34.52 323.65 159.87 340.81 159.87"/><rect class="cls-3" x="91.51" y="92.38" width="125.35" height="9.64" transform="translate(251.39 -56.99) rotate(90)"/><rect class="cls-3" x="282.25" y="92.38" width="125.35" height="9.64" transform="translate(442.12 -247.72) rotate(90)"/><rect class="cls-4" x="82.87" y="90.66" width="136.61" height="12.18" transform="translate(247.93 -54.43) rotate(90)"/><rect class="cls-4" x="273.61" y="90.66" width="136.61" height="12.18" transform="translate(438.66 -245.16) rotate(90)"/><rect class="cls-3" x="27.57" y="96.77" width="125.35" height="0.86" transform="translate(187.44 6.96) rotate(90)"/><path class="cls-3" d="M78.34,15.85H421.66a1,1,0,0,1,1,1h0a1,1,0,0,1-1,1H78.34a1,1,0,0,1-1-1h0A1,1,0,0,1,78.34,15.85Z"/><path class="cls-3" d="M412.87,22.72h0a1.41,1.41,0,0,0,1.41-1.41v-3a1.41,1.41,0,0,0-1.41-1.4h0a1.4,1.4,0,0,0-1.4,1.4v3A1.41,1.41,0,0,0,412.87,22.72Z"/><path class="cls-3" d="M94.05,22.72h0a1.41,1.41,0,0,0,1.41-1.41v-3a1.41,1.41,0,0,0-1.41-1.4h0a1.4,1.4,0,0,0-1.4,1.4v3A1.41,1.41,0,0,0,94.05,22.72Z"/><rect class="cls-7" x="78.68" y="16.89" width="329.04" height="35.44" transform="translate(486.39 69.21) rotate(180)"/><path class="cls-3" d="M194.76,276.75c3.55-1.21,6.12-4.63,3.87-8.13-3.73-5.8,5.6-7,3-16.74-3.69-13.7-15.16-1.82-18-15-2.07-9.57-18.14-15.84-18.77-3.24-.69,13.79-7.6,4.78-9.14,20.11-1.06,10.61,14,12.15,9.53,15.47-3.29,2.42-5.24,6.64-.65,9.52,6.26,3.93.35,7,4.61,9.75s4.94-1.63,11.54.49c5.9,1.91,10.9-3.92,9.73-7.57C189.35,278,191.2,278,194.76,276.75Z"/><path class="cls-8" d="M160.65,283.05s.48,44.4,19.09,44.4,19.09-44.4,19.09-44.4Z"/><path class="cls-3" d="M142.94,276.75c3.54-1.21,6.12-4.63,3.86-8.13-3.73-5.8,5.61-7,3-16.74-3.7-13.7-15.17-1.82-18-15-2.07-9.57-18.14-15.84-18.77-3.24-.69,13.79-7.6,4.78-9.14,20.11-1.06,10.61,14,12.15,9.53,15.47-3.29,2.42-5.24,6.64-.64,9.52,6.25,3.93.35,7,4.6,9.75s4.94-1.63,11.54.49c5.91,1.91,10.91-3.92,9.73-7.57C137.52,278,139.37,278,142.94,276.75Z"/><path class="cls-8" d="M108.82,283.05s.49,44.4,19.09,44.4S147,283.05,147,283.05Z"/><path class="cls-8" d="M305.65,233.93c2.68-29.68,4.55-77.84,3.1-94a2,2,0,0,0-.75-1.39h0a1.86,1.86,0,0,0-3,1.66c.26,8,.55,27.93-1,62.34-.79,17.13-1.93,28.87-1.15,31.34Z"/><path class="cls-8" d="M313.91,172.49c6.42-8,19.52-13.76,32.87-13.73,5.24,0-15.95,9.35-24.76,19.66-6.84,8-14.56,21.47-17.18,29C306.53,191.64,307.5,180.52,313.91,172.49Z"/><path class="cls-8" d="M300.5,172.4c-6.34-8.84-21-15.63-36.85-16.4-6.23-.31,17.46,10.79,26.29,22.16,6.87,8.83,13.91,23.46,15.84,31.48C306.25,193,306.85,181.24,300.5,172.4Z"/><path class="cls-8" d="M313.91,185.4c6.42-8,19.52-13.76,32.87-13.73,5.24,0-15.95,9.35-24.76,19.66-6.84,8-14.56,21.47-17.18,28.95C306.53,204.55,307.5,193.43,313.91,185.4Z"/><path class="cls-8" d="M300.5,186c-6.34-8.84-21-15.64-36.85-16.41-6.23-.3,17.46,10.79,26.29,22.16,6.87,8.83,13.91,23.47,15.84,31.49C306.25,206.63,306.85,194.88,300.5,186Z"/><path class="cls-8" d="M312.76,142.12c4.2-6,13.19-10.64,22.58-11.27,3.69-.25-10.85,7.36-16.65,15-4.51,6-9.42,15.82-11,21.21C308.3,156,308.55,148.09,312.76,142.12Z"/><path class="cls-8" d="M304.4,144.64c-4.47-6.23-14.8-11-26-11.56-4.39-.21,12.3,7.6,18.53,15.62,4.84,6.22,9.8,16.53,11.16,22.19C308.45,159.15,308.88,150.87,304.4,144.64Z"/><path class="cls-8" d="M314.2,149.86c5.43-6.8,16.52-11.64,27.83-11.62,4.44,0-13.5,7.92-21,16.65-5.8,6.78-12.33,18.18-14.56,24.51C308,166.08,308.77,156.67,314.2,149.86Z"/><path class="cls-8" d="M303.17,153.49c-5.38-7.49-17.79-13.24-31.21-13.9-5.27-.25,14.78,9.14,22.26,18.77C300,165.84,306,178.23,307.64,185,308,170.92,308.54,161,303.17,153.49Z"/><path class="cls-8" d="M314.56,159.31c5.86-7.35,17.83-12.57,30-12.54,4.79,0-14.56,8.54-22.61,18-6.25,7.31-13.3,19.62-15.7,26.45C307.82,176.81,308.7,166.65,314.56,159.31Z"/><path class="cls-8" d="M302.32,163.33c-6-8.31-19.74-14.7-34.65-15.43-5.85-.28,16.41,10.15,24.72,20.84,6.46,8.31,13.08,22.06,14.9,29.61C307.72,182.69,308.29,171.64,302.32,163.33Z"/><path class="cls-3" d="M287.61,228.92l1,8.33a3.54,3.54,0,0,0,3.53,3.33H317a3.54,3.54,0,0,0,3.53-3.33l1-8.33a3.54,3.54,0,0,0-3.53-3.74H291.14A3.54,3.54,0,0,0,287.61,228.92Z"/><path class="cls-4" d="M286.13,230.68H323a1.07,1.07,0,0,0,1.06-1l.88-7.93a1.07,1.07,0,0,0-1.06-1.18H285.25a1.07,1.07,0,0,0-1.06,1.18l.88,7.93A1.07,1.07,0,0,0,286.13,230.68Z"/><rect class="cls-3" x="230.93" y="240.58" width="16.02" height="86.87" transform="translate(477.89 568.02) rotate(180)"/><polygon class="cls-8" points="235.74 327.45 230.94 327.45 230.94 310.82 240.77 310.82 235.74 327.45"/><rect class="cls-3" x="430.51" y="240.58" width="16.02" height="86.87" transform="translate(877.04 568.02) rotate(180)"/><rect class="cls-8" x="230.93" y="240.58" width="203.77" height="76.67" transform="translate(665.64 557.82) rotate(180)"/><polygon class="cls-8" points="429.9 327.45 434.7 327.45 434.7 310.82 424.87 310.82 429.9 327.45"/><rect class="cls-3" x="234.66" y="245.97" width="196.32" height="30.68" transform="translate(665.64 522.62) rotate(180)"/><path class="cls-8" d="M263.43,255.51H399c4.68,0,9.16-3.79,12.39-10.47H251.05C254.27,251.72,258.75,255.51,263.43,255.51Z"/><rect class="cls-3" x="234.66" y="281.61" width="196.32" height="30.68" transform="translate(665.64 593.89) rotate(180)"/><path class="cls-8" d="M263.43,291.14H399c4.68,0,9.16-3.78,12.39-10.46H251.05C254.27,287.36,258.75,291.14,263.43,291.14Z"/><path class="cls-4" d="M432.24,220.22s-.88,20.36-34.46,20.36-34.45-20.36-34.45-20.36Z"/><path class="cls-4" d="M432.24,209.65S431.36,230,397.78,230s-34.45-20.36-34.45-20.36Z"/></g><g id="Shadow"><ellipse id="_Path_" data-name="&lt;Path&gt;" class="cls-4" cx="250" cy="361.29" rx="193.89" ry="11.32"/></g><g id="Character_3" data-name="Character 3"><path class="cls-9" d="M367.9,80.42c-6,3.28-8,13-5.19,17.23-10.4,3.12-5,21,12,22s29.94-5.21,21.59-18.48C404.58,90,400.78,77.6,393.54,79,385.75,63.42,359.73,63.88,367.9,80.42Z"/><path class="cls-9" d="M386,120.84a14.42,14.42,0,0,1-7.44-2.08.25.25,0,0,1-.09-.34.26.26,0,0,1,.35-.09,14.12,14.12,0,0,0,18.13-3.14c2.73-3.38,4-8.8-.77-13.87a.25.25,0,0,1,0-.35.26.26,0,0,1,.36,0c4.94,5.3,3.65,11,.79,14.53A14.81,14.81,0,0,1,386,120.84Z"/><path class="cls-9" d="M360.83,101a.24.24,0,0,1-.23-.16c-2.66-7.63.9-17.85,7.19-20.65a.26.26,0,0,1,.33.13.25.25,0,0,1-.13.33c-6.08,2.7-9.51,12.62-6.92,20a.25.25,0,0,1-.16.32Z"/><path class="cls-9" d="M359.2,90l-.09,0a.26.26,0,0,1-.15-.32c1.8-4.77,5.2-8.4,8.86-9.48a.25.25,0,0,1,.14.48c-3.51,1-6.78,4.55-8.53,9.17A.26.26,0,0,1,359.2,90Z"/><polygon class="cls-10" points="373.2 355.96 367.42 355.97 366.45 334.26 376.18 334.5 373.2 355.96"/><path class="cls-11" d="M363.15,168.62s-.51,60.25-1.78,86.48a18.27,18.27,0,0,0,0,2.34c1.9,26.29,5.05,76.82,5.05,76.82l9.79.25s8.53-40.35,3.25-76.91c8.49-41.34,13.06-78.22,5.37-89Z"/><path class="cls-12" d="M379.55,192.55c-3,10.06-.08,42.4,1.47,57.32,2.11-10.78,3.91-21.15,5.24-30.71Z"/><path class="cls-9" d="M366.77,353.15h7.51a.63.63,0,0,1,.64.56l.76,6.16a1.43,1.43,0,0,1-1.43,1.46c-3.31-.06-4.89-.24-9.06-.24-2.57,0-4.12.27-7.67.27s-3.55-3.4-2.06-3.71c6.69-1.39,7.55-2.16,9.88-4A2.34,2.34,0,0,1,366.77,353.15Z"/><path class="cls-10" d="M369.24,124.28c-.37,2.06-.79,4-1.24,6s-.91,4-1.44,6c-1.05,4-2.14,7.93-3.58,11.88a55.8,55.8,0,0,1-2.52,6,23.09,23.09,0,0,1-1.83,3.12,10.3,10.3,0,0,1-.64.82,7.19,7.19,0,0,1-.83.89,7,7,0,0,1-2.7,1.57,6.62,6.62,0,0,1-3.26.13,7.81,7.81,0,0,1-2.4-1,12,12,0,0,1-2.94-2.66,21.8,21.8,0,0,1-3.35-5.86,2.1,2.1,0,0,1,3.45-2.24l.12.13a36.37,36.37,0,0,0,4,3.64,6.88,6.88,0,0,0,1.83,1c.24.05.41.06.43,0s-.14-.1-.28-.09-.23.06-.19,0a2.23,2.23,0,0,1,.16-.24,2.92,2.92,0,0,0,.26-.39,17.06,17.06,0,0,0,1.1-2.15c.7-1.62,1.34-3.41,1.92-5.24,1.14-3.67,2.18-7.47,3.08-11.31s1.79-7.73,2.59-11.55v0a4.19,4.19,0,0,1,8.22,1.6Z"/><path class="cls-9" d="M360.15,160.44c0,2.46,38.34,2.94,38.34-.31l-19.59-5-18.75,5.31"/><path class="cls-10" d="M367.19,117.83a87.11,87.11,0,0,1,30.51.3,4.38,4.38,0,0,1,3.59,5.28c-5.42,24.27-5.11,32.42-4.59,45.21H363.16c-1.68-21.32-2.57-33.49-2.79-40.41C360.19,123,362,118.59,367.19,117.83Z"/><path class="cls-12" d="M397.6,124.88a26.23,26.23,0,0,0,1.32,10c.43-2.31.93-4.79,1.5-7.5Z"/><path class="cls-10" d="M386.69,100.1c-1,4.86-1.91,13.76,1.49,17,0,0-1.33,4.92-10.35,4.92-9.93,0-4.75-4.92-4.75-4.92,5.42-1.3,5.28-5.32,4.34-9.09Z"/><path class="cls-12" d="M382.91,103.33,377.42,108a16,16,0,0,1,.47,2.68c2.07-.3,4.91-2.57,5.13-4.73A7.46,7.46,0,0,0,382.91,103.33Z"/><path class="cls-10" d="M391.93,91.69c-1.86,7.91-2.47,11.3-7.21,14.71-7.12,5.14-16.44,1.13-17-7.17-.5-7.48,2.61-19.16,11-21A11.09,11.09,0,0,1,391.93,91.69Z"/><path class="cls-9" d="M388.91,79.79c-8.38.92-5.83,16.55.47,18.06C396.76,94.24,401.31,80.52,388.91,79.79Z"/><polygon class="cls-10" points="429.93 341.65 424.14 343.42 415.69 325.72 424.6 323.28 429.93 341.65"/><path class="cls-9" d="M422.47,341.64l7.44-2.87a.58.58,0,0,1,.72.25l3.33,5.62a1.13,1.13,0,0,1-.57,1.6c-2.61,1-3.87,1.51-7.14,2.78-2,.77-5.14,3.37-7.92,4.45s-4-1.47-3-2.35a23.58,23.58,0,0,0,6.24-8.64A1.61,1.61,0,0,1,422.47,341.64Z"/><path class="cls-11" d="M372.36,168.62s12.33,63.07,17,88c4.83,26,26.35,69.07,26.35,69.07l8.93-2.44s-12.23-46.07-17.93-68.89c-1.12-41.34.2-75-10-85.77Z"/><path class="cls-9" d="M378.81,91.64c-.11.65-.54,1.12-1,1s-.68-.65-.57-1.31.55-1.12,1-1S378.93,91,378.81,91.64Z"/><path class="cls-9" d="M371.46,90.38c-.11.66-.55,1.12-1,1.05s-.68-.66-.57-1.31.55-1.12,1-1.05S371.57,89.73,371.46,90.38Z"/><path class="cls-9" d="M371.07,89.14l-1.49-.71S370.18,89.78,371.07,89.14Z"/><path class="cls-13" d="M373.52,91.94a17.58,17.58,0,0,1-3,3.76,2.82,2.82,0,0,0,2.24.83Z"/><path class="cls-9" d="M375.86,99.69a8.54,8.54,0,0,1-1-.09.2.2,0,0,1-.16-.23.21.21,0,0,1,.22-.16,5.2,5.2,0,0,0,4.55-1.3.2.2,0,0,1,.29.27A5.46,5.46,0,0,1,375.86,99.69Z"/><path class="cls-10" d="M393.07,98.5a5.93,5.93,0,0,1-3.61,2.75c-2,.52-3-1.29-2.38-3.17.53-1.7,2.23-4,4.24-3.69A2.67,2.67,0,0,1,393.07,98.5Z"/><path class="cls-9" d="M382,90.64a.38.38,0,0,1-.36-.27c-.53-1.72-2.72-2.45-2.74-2.46a.37.37,0,0,1-.25-.48.38.38,0,0,1,.49-.25c.1,0,2.59.86,3.24,3a.38.38,0,0,1-.26.48A.25.25,0,0,1,382,90.64Z"/><path class="cls-9" d="M369.82,86.61a.38.38,0,0,1-.33-.2.4.4,0,0,1,.15-.53,3.84,3.84,0,0,1,3.53-.23.39.39,0,0,1,.17.52.39.39,0,0,1-.52.17h0a3.08,3.08,0,0,0-2.8.22A.46.46,0,0,1,369.82,86.61Z"/><path class="cls-10" d="M400.44,119.52a138.21,138.21,0,0,1,7.9,11.48c1.22,2,2.42,4,3.52,6.12a40.34,40.34,0,0,1,2.95,6.92c.11.32.19.69.28,1l.07.29.09.43a7.65,7.65,0,0,1,.08.78,10.44,10.44,0,0,1-.19,2.6,19.92,19.92,0,0,1-1.27,3.93,45.57,45.57,0,0,1-3.48,6.42,85.65,85.65,0,0,1-8.51,11.1,2.08,2.08,0,0,1-3.35-2.42l0,0c2.21-3.85,4.4-7.81,6.29-11.73a50.05,50.05,0,0,0,2.41-5.83,12.62,12.62,0,0,0,.6-2.61,2.84,2.84,0,0,0,0-.79l0-.06h0l0-.12c-.07-.2-.12-.38-.21-.6a41.85,41.85,0,0,0-2.74-5.42c-1.1-1.85-2.27-3.71-3.47-5.55-2.44-3.66-5-7.34-7.6-10.9l0,0a4.18,4.18,0,0,1,6.72-5Z"/><path class="cls-9" d="M378.43,90.4l-1.49-.72S377.53,91,378.43,90.4Z"/><path class="cls-9" d="M361.31,125.83a55.14,55.14,0,0,1,2.38-7.41,30.7,30.7,0,0,1,4.69-1,34.27,34.27,0,0,1,7.84,10.18c4.29-4.33,12.5-8.72,17.5-10.32a13.46,13.46,0,0,1,5,.63c-3.41,10.76-6.89,21.58-.72,24.36-.11,5.11.18,11.44.44,17.86-5.83-.64-28.95-1.75-38.34.31-.48-6.5-.65-12-.62-16.75C355.11,138.1,359.49,130.52,361.31,125.83Z"/><g class="cls-14"><g class="cls-15"><path class="cls-6" d="M370.5,145.84a.3.3,0,0,0-.24.18,8.87,8.87,0,0,0,.06,6.13c-.69-.57-1.37-1.15-2-1.72a7.18,7.18,0,0,0-.86-7.48.3.3,0,0,0-.51.05,8.87,8.87,0,0,0,.13,6.31c-.9-.82-1.76-1.64-2.55-2.43h0a7.16,7.16,0,0,0-.81-7.57.3.3,0,0,0-.51.05,8.92,8.92,0,0,0,.13,6.31c-1.37-1.42-2.51-2.73-3.36-3.8a7.38,7.38,0,0,0-4.87-5.21.31.31,0,0,0-.36.35c.9,4.43,4.16,5.19,4.82,5.3.47.59,1,1.25,1.64,1.95a8.47,8.47,0,0,0-5-.6.31.31,0,0,0-.15.49,6.93,6.93,0,0,0,7.06,2.15c.56.58,1.16,1.18,1.79,1.79a9.62,9.62,0,0,0-6.41.38.3.3,0,0,0,0,.53,7.72,7.72,0,0,0,7.66.27c.84.78,1.73,1.58,2.65,2.37a9.12,9.12,0,0,0-6.51-.38.31.31,0,0,0-.19.24.34.34,0,0,0,.11.28,7.34,7.34,0,0,0,7.61,1,.27.27,0,0,0,.14-.17l1.13.92v0a.36.36,0,0,0,.14.1c.6.47,1.21,1,1.83,1.41a.29.29,0,0,0,.39,0l0,0a.3.3,0,0,0-.07-.42c-.57-.43-1.14-.87-1.69-1.31a7.19,7.19,0,0,0-.94-7.32A.28.28,0,0,0,370.5,145.84Z"/><path class="cls-6" d="M360.64,130.34a.29.29,0,0,0,.24-.17,8.9,8.9,0,0,0-.06-6.14c.69.57,1.37,1.15,2,1.73a7.18,7.18,0,0,0,.86,7.48.28.28,0,0,0,.27.11.27.27,0,0,0,.24-.17,8.87,8.87,0,0,0-.13-6.31c.9.83,1.76,1.64,2.55,2.43h0a7.16,7.16,0,0,0,.81,7.57.28.28,0,0,0,.27.11.27.27,0,0,0,.24-.17,8.92,8.92,0,0,0-.13-6.31c1.37,1.42,2.51,2.73,3.36,3.81a7.4,7.4,0,0,0,4.87,5.21.3.3,0,0,0,.27-.08.31.31,0,0,0,.09-.27c-.9-4.43-4.16-5.2-4.82-5.31-.47-.59-1-1.24-1.64-2a8.31,8.31,0,0,0,5,.6.26.26,0,0,0,.21-.2.31.31,0,0,0-.06-.29,6.93,6.93,0,0,0-7.06-2.15c-.56-.58-1.16-1.18-1.79-1.79a9.56,9.56,0,0,0,6.41-.38.3.3,0,0,0,0-.52,7.7,7.7,0,0,0-7.66-.28c-.84-.78-1.73-1.57-2.65-2.36a9.11,9.11,0,0,0,6.51.37.3.3,0,0,0,.08-.51,7.34,7.34,0,0,0-7.61-1l-.08,0a.24.24,0,0,0-.06.11l-1.13-.92h0a.28.28,0,0,0-.14-.1c-.6-.48-1.21-1-1.83-1.42a.3.3,0,0,0-.39,0l0,0a.31.31,0,0,0,.06.42c.58.43,1.15.87,1.7,1.31a7.21,7.21,0,0,0,.94,7.33A.27.27,0,0,0,360.64,130.34Z"/><path class="cls-6" d="M391.47,153.14a.3.3,0,0,0-.24.17,9,9,0,0,0,.06,6.14c-.69-.57-1.37-1.15-2-1.73a7.18,7.18,0,0,0-.86-7.48.31.31,0,0,0-.27-.12.3.3,0,0,0-.24.18,8.92,8.92,0,0,0,.13,6.31c-.9-.83-1.76-1.64-2.55-2.43h0a7.14,7.14,0,0,0-.81-7.57.3.3,0,0,0-.27-.12.32.32,0,0,0-.24.18,8.92,8.92,0,0,0,.13,6.31c-1.37-1.42-2.51-2.73-3.36-3.81a7.4,7.4,0,0,0-4.87-5.21.3.3,0,0,0-.27.08.31.31,0,0,0-.09.27c.9,4.43,4.17,5.2,4.82,5.31.47.59,1,1.24,1.64,1.95a8.3,8.3,0,0,0-5-.6.28.28,0,0,0-.21.2.31.31,0,0,0,.06.29,6.93,6.93,0,0,0,7.06,2.15c.56.58,1.16,1.18,1.79,1.79a9.56,9.56,0,0,0-6.41.38.33.33,0,0,0-.16.25.31.31,0,0,0,.15.27,7.73,7.73,0,0,0,7.66.28c.84.78,1.73,1.57,2.65,2.36a9.11,9.11,0,0,0-6.51-.37.32.32,0,0,0-.19.23.31.31,0,0,0,.12.28,7.35,7.35,0,0,0,7.61,1l.07-.05a.41.41,0,0,0,.07-.11l1.13.92h0a.26.26,0,0,0,.13.1c.6.48,1.21,1,1.83,1.42a.3.3,0,0,0,.39,0l0,0a.3.3,0,0,0-.06-.42c-.58-.43-1.14-.87-1.7-1.32a7.18,7.18,0,0,0-.93-7.32A.3.3,0,0,0,391.47,153.14Z"/><path class="cls-6" d="M410.7,160.08a.28.28,0,0,0-.24.18,8.86,8.86,0,0,0,.05,6.13c-.69-.57-1.36-1.15-2-1.72a7.17,7.17,0,0,0-.85-7.48.31.31,0,0,0-.28-.12.32.32,0,0,0-.24.17,8.92,8.92,0,0,0,.13,6.31c-.9-.82-1.75-1.64-2.54-2.43h0a7.16,7.16,0,0,0-.81-7.57.3.3,0,0,0-.51,0,8.87,8.87,0,0,0,.13,6.31c-1.37-1.42-2.52-2.73-3.36-3.8a7.38,7.38,0,0,0-4.87-5.21.3.3,0,0,0-.36.35c.9,4.43,4.16,5.19,4.82,5.3.46.59,1,1.25,1.64,1.95a8.5,8.5,0,0,0-5-.6.32.32,0,0,0-.21.21.29.29,0,0,0,.07.28,6.91,6.91,0,0,0,7.05,2.15c.57.58,1.16,1.18,1.79,1.79a9.6,9.6,0,0,0-6.4.38.3.3,0,0,0,0,.52,7.72,7.72,0,0,0,7.67.28c.84.78,1.72,1.58,2.64,2.37a9.12,9.12,0,0,0-6.51-.38.28.28,0,0,0-.18.24.34.34,0,0,0,.11.28,7.35,7.35,0,0,0,7.61,1,.2.2,0,0,0,.07-.06.19.19,0,0,0,.07-.11l1.13.92v0a.41.41,0,0,0,.13.1c.6.47,1.21.95,1.83,1.41a.29.29,0,0,0,.39,0l0,0a.29.29,0,0,0-.06-.42l-1.7-1.31a7.18,7.18,0,0,0-.93-7.32A.29.29,0,0,0,410.7,160.08Z"/><path class="cls-6" d="M366.73,161.17a.3.3,0,0,0-.24.18,8.89,8.89,0,0,0,.05,6.14c-.69-.58-1.36-1.15-2-1.73a7.17,7.17,0,0,0-.85-7.48.33.33,0,0,0-.28-.12.31.31,0,0,0-.24.18,8.89,8.89,0,0,0,.13,6.3c-.9-.82-1.75-1.63-2.54-2.42h0a7.16,7.16,0,0,0-.81-7.57.31.31,0,0,0-.27-.12.28.28,0,0,0-.24.18,8.87,8.87,0,0,0,.13,6.31c-1.37-1.43-2.52-2.73-3.36-3.81a7.38,7.38,0,0,0-4.87-5.21.3.3,0,0,0-.36.35c.9,4.43,4.16,5.2,4.82,5.31.46.59,1,1.24,1.64,1.94a8.4,8.4,0,0,0-5-.59.28.28,0,0,0-.21.2.31.31,0,0,0,.07.29,6.94,6.94,0,0,0,7.05,2.15c.57.58,1.16,1.18,1.79,1.78a9.59,9.59,0,0,0-6.4.39.26.26,0,0,0-.16.25.32.32,0,0,0,.14.27,7.71,7.71,0,0,0,7.67.27q1.26,1.18,2.64,2.37a9.06,9.06,0,0,0-6.51-.37.28.28,0,0,0-.18.23.33.33,0,0,0,.11.28,7.35,7.35,0,0,0,7.61,1,.18.18,0,0,0,.07-.05.19.19,0,0,0,.07-.11l1.13.92h0a.31.31,0,0,0,.13.1c.61.48,1.21.95,1.83,1.41a.3.3,0,0,0,.39,0l0,0a.29.29,0,0,0-.06-.42c-.57-.43-1.14-.86-1.7-1.31a7.18,7.18,0,0,0-.93-7.32A.31.31,0,0,0,366.73,161.17Z"/><path class="cls-6" d="M390.83,119.09a.31.31,0,0,0-.24.18,8.93,8.93,0,0,0,.06,6.13c-.69-.57-1.37-1.15-2-1.72a7.18,7.18,0,0,0-.86-7.48.3.3,0,0,0-.51,0,8.92,8.92,0,0,0,.13,6.31c-.9-.82-1.76-1.64-2.55-2.43h0a7.16,7.16,0,0,0-.81-7.57.28.28,0,0,0-.27-.12.29.29,0,0,0-.24.17,8.92,8.92,0,0,0,.13,6.31c-1.37-1.42-2.51-2.73-3.36-3.8a7.38,7.38,0,0,0-4.87-5.21.31.31,0,0,0-.36.35c.9,4.43,4.17,5.19,4.82,5.3.47.59,1,1.25,1.64,2a8.46,8.46,0,0,0-5-.6.32.32,0,0,0-.21.21.28.28,0,0,0,.06.28,6.93,6.93,0,0,0,7.06,2.15c.56.58,1.16,1.18,1.79,1.79a9.62,9.62,0,0,0-6.41.38.33.33,0,0,0-.16.26.31.31,0,0,0,.15.27,7.72,7.72,0,0,0,7.66.27c.84.78,1.73,1.58,2.65,2.37a9.12,9.12,0,0,0-6.51-.38.31.31,0,0,0-.19.24.32.32,0,0,0,.12.28,7.33,7.33,0,0,0,7.6,1,.27.27,0,0,0,.14-.17l1.13.92v0a.45.45,0,0,0,.14.1c.6.47,1.21,1,1.83,1.41a.29.29,0,0,0,.39,0l0,0a.3.3,0,0,0-.06-.42c-.58-.43-1.14-.87-1.7-1.31a7.18,7.18,0,0,0-.93-7.32A.31.31,0,0,0,390.83,119.09Z"/><path class="cls-6" d="M381.33,138a.29.29,0,0,0,.24-.17,8.89,8.89,0,0,0-.05-6.14c.69.57,1.36,1.15,2,1.73a7.15,7.15,0,0,0,.85,7.47.31.31,0,0,0,.28.12.32.32,0,0,0,.24-.17,8.92,8.92,0,0,0-.13-6.31c.9.82,1.75,1.64,2.55,2.43h0a7.16,7.16,0,0,0,.81,7.57.31.31,0,0,0,.28.12.32.32,0,0,0,.24-.17,8.87,8.87,0,0,0-.14-6.31c1.37,1.42,2.52,2.73,3.36,3.8a7.37,7.37,0,0,0,4.88,5.21.25.25,0,0,0,.27-.08.29.29,0,0,0,.08-.27c-.89-4.43-4.16-5.19-4.82-5.3-.46-.59-1-1.25-1.64-1.95a8.5,8.5,0,0,0,5,.6.32.32,0,0,0,.21-.21.29.29,0,0,0-.07-.28,6.91,6.91,0,0,0-7.05-2.15c-.56-.58-1.16-1.18-1.79-1.79a9.6,9.6,0,0,0,6.4-.38.29.29,0,0,0,.16-.26.27.27,0,0,0-.14-.26,7.72,7.72,0,0,0-7.67-.28c-.84-.78-1.72-1.58-2.64-2.37a9.12,9.12,0,0,0,6.51.38.3.3,0,0,0,.07-.51,7.34,7.34,0,0,0-7.61-1l-.07.06a.41.41,0,0,0-.07.11l-1.13-.92v0a.32.32,0,0,0-.13-.1c-.6-.47-1.21-.95-1.83-1.41a.29.29,0,0,0-.39,0l0,0a.3.3,0,0,0,.06.42l1.7,1.31a7.18,7.18,0,0,0,.93,7.32A.29.29,0,0,0,381.33,138Z"/></g></g><path class="cls-16" d="M385.72,146.65l-67,6.75a6.8,6.8,0,0,0-6.06,7.43l2.3,22.91a12.22,12.22,0,1,1,2.14,21.17l2.31,22.91a6.78,6.78,0,0,0,7.42,6.06l67-6.75a6.8,6.8,0,0,0,6.07-7.42l-6.75-67A6.81,6.81,0,0,0,385.72,146.65Z"/><path class="cls-17" d="M385.72,146.65l-67,6.75a6.8,6.8,0,0,0-6.06,7.43l2.3,22.91a12.22,12.22,0,1,1,2.14,21.17l2.31,22.91a6.78,6.78,0,0,0,7.42,6.06l67-6.75a6.8,6.8,0,0,0,6.07-7.42l-6.75-67A6.81,6.81,0,0,0,385.72,146.65Z"/><path class="cls-10" d="M404,167.2l-3.1-1.36-7.28,1.87a3.84,3.84,0,0,0-2.1,1.39l-1.54,2a2.37,2.37,0,0,0,.13,3.05l1.74,1.91a2.38,2.38,0,0,0,3.31.2l3.95-3.39S403.87,170.6,404,167.2Z"/><path class="cls-10" d="M340.89,154.71l3.22-.41a2,2,0,0,0,1.75-1.67l.44-2.56a2,2,0,0,0-2.15-2.37l-3.76.27a2,2,0,0,0-1.89,2.1l.1,2.69A2,2,0,0,0,340.89,154.71Z"/><path class="cls-9" d="M391,81.21c-7.94,4-21.89,2.17-21.89,2.17S376.89,70.66,391,81.21Z"/></g><g id="Character_2" data-name="Character 2"><polygon class="cls-18" points="251.28 334.94 247.29 355.71 237.19 353.26 241.18 332.5 251.28 334.94"/><path class="cls-9" d="M237.51,349l11.23,2.43a.71.71,0,0,1,.57.77l-.78,8.25a1.5,1.5,0,0,1-1.81,1.29c-3.53-.83-4.58-1.35-9.05-2.33-5.21-1.14-7.06-.83-13.18-2.17-3.7-.81-3.53-4.69-1.87-4.7a24.86,24.86,0,0,0,12.49-3.33A3.27,3.27,0,0,1,237.51,349Z"/><polygon class="cls-12" points="251.29 334.95 249.23 345.65 239.12 343.21 241.18 332.5 251.29 334.95"/><path class="cls-9" d="M268.86,255c11.85-34.86,21.23-76,21.23-76l-33.8-2.13s-5,53.38-7.58,78c-2.7,25.59-11.09,83.34-11.09,83.34l15.25,3.09S267.17,286.84,268.86,255Z"/><path class="cls-19" d="M274.5,198.35l8.2,10.14c-2.09,7.83-4.53,16.63-7.21,25.62A176.83,176.83,0,0,1,274.5,198.35Z"/><path class="cls-9" d="M237.84,340.3l14,3.07a1.17,1.17,0,0,0,1.35-.76l1.54-4.51a1.14,1.14,0,0,0-.83-1.5L238.71,333a1.16,1.16,0,0,0-1.42,1.05l-.35,5A1.14,1.14,0,0,0,237.84,340.3Z"/><path class="cls-20" d="M237.84,340.3l14,3.07a1.17,1.17,0,0,0,1.35-.76l1.54-4.51a1.14,1.14,0,0,0-.83-1.5L238.71,333a1.16,1.16,0,0,0-1.42,1.05l-.35,5A1.14,1.14,0,0,0,237.84,340.3Z"/><polygon class="cls-18" points="306.88 334.22 307.51 355.65 297.26 355.5 296.63 334.07 306.88 334.22"/><path class="cls-9" d="M297,351.11l10.9.16a.7.7,0,0,1,.71.64l.88,8.24a1.51,1.51,0,0,1-1.52,1.62c-3.62-.12-4.76-.41-9.33-.48-5.34-.09-6.49.58-12.75.48-3.79-.06-4.4-3.89-2.78-4.23a24.91,24.91,0,0,0,11.59-5.75A3.26,3.26,0,0,1,297,351.11Z"/><polygon class="cls-12" points="306.89 334.23 307.21 345.27 296.95 345.13 296.63 334.08 306.89 334.23"/><path class="cls-9" d="M304.33,254.24c-2.9-36.67-.45-56.45-4.71-74.66l-30.76-1.91s9.55,53.89,14.82,78.28,10.94,83.6,10.94,83.6l15.12.19S311.59,282.85,304.33,254.24Z"/><path class="cls-9" d="M294.66,342.26l14.31.23a1.16,1.16,0,0,0,1.17-1.08l.31-4.73a1.15,1.15,0,0,0-1.12-1.23L293.76,335a1.16,1.16,0,0,0-1.17,1.38l1,5A1.17,1.17,0,0,0,294.66,342.26Z"/><path class="cls-20" d="M294.66,342.26l14.31.23a1.16,1.16,0,0,0,1.17-1.08l.31-4.73a1.15,1.15,0,0,0-1.12-1.23L293.76,335a1.16,1.16,0,0,0-1.17,1.38l1,5A1.17,1.17,0,0,0,294.66,342.26Z"/><path class="cls-18" d="M267.87,121.25c-1.18,2.56-2.41,4.82-3.75,7.15s-2.75,4.58-4.31,6.81a65.8,65.8,0,0,1-5.16,6.55,30.39,30.39,0,0,1-7.17,6.07l-.35.21a4.91,4.91,0,0,1-4,.44c-1.95-.63-3.84-1.34-5.69-2.11s-3.65-1.6-5.42-2.47-3.5-1.81-5.2-2.81-3.36-2-5-3.21a3.1,3.1,0,0,1,2.53-5.53l.11,0c1.79.44,3.64,1,5.44,1.43l5.41,1.43c1.79.49,3.59.9,5.36,1.34s3.54.78,5.28,1.14l-4.31.64a23.87,23.87,0,0,0,4-4.21c1.37-1.76,2.69-3.7,4-5.7s2.5-4.09,3.68-6.21,2.38-4.31,3.44-6.33l.06-.12a6.16,6.16,0,0,1,11,5.46Z"/><path class="cls-21" d="M270.33,103.78c-11.94,1.36-21,19.85-21,19.85l12.32,13.11s5.49-6.55,11.39-14.81C279.48,112.92,279.78,102.7,270.33,103.78Z"/><path class="cls-6" d="M268.86,106.54c4.59-1.62,25.15,1,25.15,1-4,5.16-7.34,47.88-7.71,72.44-4.37.6-21.13-.54-25-1.44C261.8,168.91,265.82,123.69,268.86,106.54Z"/><path class="cls-21" d="M255.59,119.51a18.26,18.26,0,0,1,18.21-16.06,126.31,126.31,0,0,1,25.55,2.82A10,10,0,0,1,307,118.4c-6.33,26.55-4.66,51.74-6.35,63.45a49.26,49.26,0,0,1-18.84,3.05s.15-10.11,1.56-27.19c1.12-13.57,3.13-45.47,7.27-50.78,0,0-14.84-2-19.43-.39-3.41,19.26-5.91,77.57-5.91,77.58-7.26-.52-10.68-4.56-10.57-5.76C253.26,154.72,254,133.33,255.59,119.51Z"/><path class="cls-18" d="M291.17,90c-1.39,4-3,11.08-.43,15.07a1.53,1.53,0,0,1-.63,2.28,22.89,22.89,0,0,1-13.65,2.94c-6.45-.53-6-3.43-4.34-5.33a2.36,2.36,0,0,1,1.52-.76c6.09-.73,6.15-4.4,5.27-8Z"/><path class="cls-12" d="M286.17,92.53l-7.25,3.69a11.46,11.46,0,0,1,.39,2.61c2.64,0,6.38-1.77,6.81-3.8A5.17,5.17,0,0,0,286.17,92.53Z"/><ellipse class="cls-9" cx="276.62" cy="75.71" rx="6.55" ry="4.89" transform="translate(180.3 345.84) rotate(-85.68)"/><path class="cls-18" d="M295.09,79c-1.34,7.9-1.73,12.59-6.11,16.26-6.59,5.51-15.84.85-16.84-7.28-.91-7.32,1.43-19,9.41-21.36S296.43,71.15,295.09,79Z"/><path class="cls-9" d="M293.37,85.71c-.1,0-.22-.12-.33-.06-3.58,2-4.74-2.3-4.52-5.16a6.82,6.82,0,0,1,2.65-4.89c-3.88.45-7.64-2-7.7-4.39-4.29,1.89-9.46,2.06-11.79-2s1-9.22,5.44-7.83c-1.8-3.22,5.81-9.67,13.78-.17.25-6.88,11.39,0,9.56,6.78,5.16,1.78,9.58,11.58.83,13.67C300.71,90.74,293.37,85.71,293.37,85.71Z"/><path class="cls-18" d="M297.59,88.19a7.55,7.55,0,0,1-4.84,2.73c-2.4.26-2.93-2.17-1.7-4.39,1.11-2,3.69-4.54,5.83-3.77S299.15,86.3,297.59,88.19Z"/><path class="cls-9" d="M283.65,79.64c-.06.65-.45,1.15-.88,1.11s-.73-.61-.67-1.26.45-1.15.88-1.1S283.7,79,283.65,79.64Z"/><path class="cls-9" d="M275.9,78.77c-.06.66-.45,1.15-.88,1.11s-.72-.6-.67-1.26.45-1.14.88-1.1S276,78.12,275.9,78.77Z"/><path class="cls-22" d="M278.93,79.15a23.37,23.37,0,0,1-3.61,5.28,3.77,3.77,0,0,0,3.06.88Z"/><path class="cls-9" d="M280.4,88.49a5.35,5.35,0,0,0,4-1.38.19.19,0,0,0,0-.27.18.18,0,0,0-.27,0A5.18,5.18,0,0,1,279.62,88a.18.18,0,0,0-.22.15.18.18,0,0,0,.15.22A5.08,5.08,0,0,0,280.4,88.49Z"/><path class="cls-9" d="M286.21,78.08a.63.63,0,0,0,.19,0,.39.39,0,0,0,.19-.51,3.83,3.83,0,0,0-2.68-2.29.38.38,0,0,0-.44.32.4.4,0,0,0,.32.44h0a3.06,3.06,0,0,1,2.1,1.84A.41.41,0,0,0,286.21,78.08Z"/><path class="cls-9" d="M272.65,75.59a.4.4,0,0,0,.36-.08,3,3,0,0,1,2.67-.73.38.38,0,0,0,.47-.26.39.39,0,0,0-.26-.48,3.81,3.81,0,0,0-3.39.88.39.39,0,0,0,0,.55A.36.36,0,0,0,272.65,75.59Z"/><path class="cls-18" d="M309.38,118.28c.65,1.26,1.18,2.36,1.7,3.55s1,2.33,1.52,3.51c1,2.35,1.87,4.74,2.69,7.16a97.62,97.62,0,0,1,3.82,15l.27,2,.14,1,0,.24,0,.44c0,.32.05.64.05,1a15.22,15.22,0,0,1-1.07,5.3,39,39,0,0,1-3.78,7.36,70.62,70.62,0,0,1-4.47,6.27,75.38,75.38,0,0,1-5,5.75,3.1,3.1,0,0,1-4.36.06,3.06,3.06,0,0,1-.63-3.53l0-.08c2.07-4.29,4.26-8.63,6-12.87.45-1.05.85-2.11,1.2-3.13a26.1,26.1,0,0,0,.87-2.93,5.7,5.7,0,0,0,.17-1.89s0,0,0,0,0,0,0,0l-.05-.21-.19-.82-.37-1.64a119.64,119.64,0,0,0-4.23-13.16c-.8-2.19-1.71-4.34-2.59-6.51-.44-1.08-.91-2.16-1.38-3.22l-1.4-3.11-.08-.18a6.15,6.15,0,0,1,11.1-5.28Z"/><path class="cls-21" d="M300.38,107c13.32,3.35,17,20.31,17,20.31l-16.54,11.82s-4.1-4.27-5.34-14.31C294.93,120,297.68,106.89,300.38,107Z"/><path class="cls-18" d="M302.43,171.3l-7.7,2.86,5.9,7.86s6.65-3.43,5.39-7.25Z"/><path class="cls-23" d="M289,175.29a12.21,12.21,0,0,0-6.18.56l3.82-22.62a6.78,6.78,0,0,0-5.56-7.78l-66.4-11.14a6.79,6.79,0,0,0-7.8,5.54L203,162.46a12.17,12.17,0,1,1-3.53,20.91L195.65,206a6.76,6.76,0,0,0,5.56,7.78l66.4,11.14a6.79,6.79,0,0,0,7.81-5.53l3.82-22.62A12.19,12.19,0,1,0,289,175.29Z"/><path class="cls-24" d="M289,175.29a12.21,12.21,0,0,0-6.18.56l3.82-22.62a6.78,6.78,0,0,0-5.56-7.78l-66.4-11.14a6.79,6.79,0,0,0-7.8,5.54L203,162.46a12.17,12.17,0,1,1-3.53,20.91L195.65,206a6.76,6.76,0,0,0,5.56,7.78l66.4,11.14a6.79,6.79,0,0,0,7.81-5.53l3.82-22.62A12.19,12.19,0,1,0,289,175.29Z"/><path class="cls-18" d="M291.13,181.86l2.53,2.41a2.86,2.86,0,0,0,3.68.22l3.29-2.47-5.9-7.86-3.65,3.65A2.82,2.82,0,0,0,291.13,181.86Z"/><path class="cls-18" d="M217,136.39,218,133a2.09,2.09,0,0,1,2-1.32h0a10.26,10.26,0,0,1,3.83.59l5.2,1.92-.25,2.11c-.21,1.81-2.24,3.33-4.54,3.4a19.05,19.05,0,0,1-4.59-.5l-.56-.11A2.21,2.21,0,0,1,217,136.39Z"/></g><g id="Character_1" data-name="Character 1"><path class="cls-9" d="M135.09,89c3.33-3.88,8.34-13.92-1.08-17.77-6.95-2.83-21.7-1.38-30.17,11.81-5.79,2-7.5,14.88,5.87,17.58S135.09,89,135.09,89Z"/><polygon class="cls-25" points="165.3 337.13 150.02 338.4 152.61 356.36 165.38 355.32 165.3 337.13"/><polygon class="cls-12" points="165.3 337.14 150.01 338.4 151.47 348.46 165.35 347.32 165.3 337.14"/><path class="cls-26" d="M136.09,284.25c-6-23-21.54-50.37-11.69-72.5l42.81-.13s1.06,45.55,1.36,67c.3,22.35-1.62,64.59-1.62,64.59l-17.51,1.33S137.49,310.05,136.09,284.25Z"/><path class="cls-9" d="M148.62,345.26l18.92-1.39a.67.67,0,0,0,.62-.62l.4-7a.65.65,0,0,0-.74-.69l-21,2.79a.65.65,0,0,0-.55.84l1.66,5.62A.66.66,0,0,0,148.62,345.26Z"/><path class="cls-12" d="M124.25,233.52a114.67,114.67,0,0,0,.66,16.27c2.09,7.23,4.76,14.47,7.16,21.49C135.21,251.4,135.22,228.23,124.25,233.52Z"/><polygon class="cls-25" points="108.74 338.25 93.4 338.39 93.38 356.5 106.2 356.4 108.74 338.25"/><path class="cls-9" d="M92.17,353.72a.73.73,0,0,1,.9-.6c3.85,1.53,11.15.36,13.91-.17a2.26,2.26,0,0,1,1.77.36,28.82,28.82,0,0,0,7.27,3.36,8.65,8.65,0,0,1,.4,4.62l-25.86,0A50.81,50.81,0,0,0,92.17,353.72Z"/><path class="cls-9" d="M150.92,353.72a.73.73,0,0,1,.9-.6c3.85,1.53,11.15.36,13.91-.17a2.26,2.26,0,0,1,1.77.36c2.94,2.09,10.78,3.36,10.78,3.36a8.59,8.59,0,0,1,.39,4.62l-29.36,0A50.81,50.81,0,0,0,150.92,353.72Z"/><polygon class="cls-12" points="108.74 338.25 93.39 338.4 93.38 348.54 107.32 348.42 108.74 338.25"/><path class="cls-26" d="M91.24,276.82c-2.08-23.24-8.6-54.52-1.2-65.2h50.1s-10.21,46.32-14.4,67.76c-4.35,22.28-16.86,65.09-16.86,65.09l-16.59,0S86,303.33,91.24,276.82Z"/><path class="cls-27" d="M94.25,339.77a.51.51,0,0,1-.48-.36c-1.19-4-1-50,2-62.53,0-1.66-.35-4.93-.75-9.05-1.37-14-3.91-40-.12-54.75a.5.5,0,0,1,.61-.36.49.49,0,0,1,.36.6c-3.75,14.6-1.22,40.5.14,54.41.41,4.2.74,7.52.76,9.2a.49.49,0,0,1,0,.12c-2.88,11.91-3.16,58.21-2,62.08a.5.5,0,0,1-.33.62Z"/><path class="cls-9" d="M91.14,345.14h18.79a.63.63,0,0,0,.63-.52L111.8,338a.69.69,0,0,0-.7-.81l-20.46.91a.62.62,0,0,0-.61.68l.42,5.77A.7.7,0,0,0,91.14,345.14Z"/><path class="cls-25" d="M157.16,130.7c1,4,1.92,8,2.81,12s1.73,8,2.51,12l1.2,6,1.12,6c.77,4,1.45,8.07,2.15,12.1l-1.63-3.65a3.37,3.37,0,0,0,1.33,1.85,11.39,11.39,0,0,0,4.24,1.75,33.18,33.18,0,0,0,6.16.81c1.11,0,2.25.09,3.4.08.57,0,1.15,0,1.73,0s1.21,0,1.61,0l1.42.1a5.52,5.52,0,0,1,2.28,10.36c-.8.44-1.37.77-2.05,1.12s-1.31.65-2,1a41,41,0,0,1-4.13,1.59,44.73,44.73,0,0,1-4.39,1.19,46.06,46.06,0,0,1-4.73.66,29.75,29.75,0,0,1-5.15-.08,23.42,23.42,0,0,1-5.58-1.18,24,24,0,0,1-5.71-2.82,23.22,23.22,0,0,1-4.92-4.63,7.36,7.36,0,0,1-1.32-2.54l-.31-1.11c-1.1-3.94-2.23-7.87-3.27-11.83l-1.59-5.93-1.51-5.94c-1-3.95-2-7.93-2.91-11.91s-1.82-8-2.61-12v0a11.2,11.2,0,0,1,21.84-5Z"/><path class="cls-25" d="M183.09,180.63l.21,6.46c2.61,6.27,10.09,1.51,10.09,1.51l4.52-.83a3.44,3.44,0,0,0,2.58-3.61l-.12-4.52A3.57,3.57,0,0,0,197,176l-4,.07a7,7,0,0,0-3.33.91Z"/><path class="cls-9" d="M149.5,119.57c9.2,4.83,15.21,21.92,15.21,21.92-1.94,8-9.76,22.59-17,22.5,0,0-10.63-13.71-11.78-23.63C134.53,128.37,130.9,109.79,149.5,119.57Z"/><path class="cls-9" d="M141,116.73a193,193,0,0,0-42.65.68c-8.18,1.15-14,6.24-13,23,2,34-1.1,60.5,3.22,72.73,0,0,62.92,18,80.86.75,4.36-40.91-10.32-74.88-17-89A14.32,14.32,0,0,0,141,116.73Z"/><path class="cls-25" d="M136.27,120.45c-1.63-1.6-3.34-.67-4.13-3.08a8.35,8.35,0,0,1,.9-5.54l-19.41-10.47c.38,7.14.67,12.78-2.5,15.62-.92,5.32,9,10.63,22.21,10.71C141.75,127.73,138.62,122.75,136.27,120.45Z"/><path class="cls-12" d="M132.75,112.44l-15.32-3.83c3.87,6.09,10.84,9.42,14.59,8A8.4,8.4,0,0,1,132.75,112.44Z"/><path class="cls-25" d="M126.41,77.49c-10.14-2.24-18.9,6.18-16.94,15.36s3.51,15.38,9.86,18.5c12.62,6.21,18.78.22,19.81-9.38C140.07,93.33,136.7,79.77,126.41,77.49Z"/><path class="cls-12" d="M124.42,93.8a4.67,4.67,0,0,0-3.51.51A9.06,9.06,0,0,0,124.42,93.8Z"/><path class="cls-12" d="M124.49,94.64a3.84,3.84,0,0,0-3,1.25A7.64,7.64,0,0,0,124.49,94.64Z"/><path class="cls-9" d="M110.75,100.6c5.67,1.28,8-1.56,8-4.75,0-3.37-3.19-9.08-6.69-10.14,1.25-7.49,21.92,3,19.95-7.38,0,0-.56-1.78-5.9-2.78s-19.61,2.22-18.61,12.89S110.75,100.6,110.75,100.6Z"/><path class="cls-9" d="M103.53,83.55a13.61,13.61,0,0,0,1.11-9S110.86,78.66,103.53,83.55Z"/><path class="cls-9" d="M129.61,103.45a7.35,7.35,0,0,0,1.26-.18.26.26,0,0,0,.19-.31.25.25,0,0,0-.3-.19,6.88,6.88,0,0,1-6-1.37.25.25,0,0,0-.36,0,.26.26,0,0,0,0,.36A7.06,7.06,0,0,0,129.61,103.45Z"/><path class="cls-25" d="M107.16,101.05a8.25,8.25,0,0,0,5.46,3.28c2.91.41,4-2.29,2.88-4.82-1-2.29-3.72-5.26-6.48-4.5S105.58,98.86,107.16,101.05Z"/><path class="cls-9" d="M126.07,93.9c.12.81.64,1.4,1.17,1.32s.87-.8.75-1.61-.63-1.4-1.16-1.32S126,93.09,126.07,93.9Z"/><path class="cls-9" d="M135.6,92.62c.12.81.64,1.41,1.17,1.33s.87-.81.75-1.62-.63-1.4-1.16-1.32S135.49,91.81,135.6,92.62Z"/><path class="cls-28" d="M132,93.68l.46,6.87s2.25.39,3.47-.91A14.07,14.07,0,0,0,132,93.68Z"/><path class="cls-9" d="M122.93,92a.4.4,0,0,1-.24,0,.48.48,0,0,1-.33-.59,4.82,4.82,0,0,1,2.92-3.31.48.48,0,0,1,.6.31.49.49,0,0,1-.31.61h0a3.86,3.86,0,0,0-2.29,2.64A.5.5,0,0,1,122.93,92Z"/><path class="cls-9" d="M138.73,89a.48.48,0,0,1-.41-.19,3.74,3.74,0,0,0-3.06-1.63.47.47,0,0,1-.5-.46.49.49,0,0,1,.45-.51,4.78,4.78,0,0,1,3.89,2,.49.49,0,0,1-.11.68A.43.43,0,0,1,138.73,89Z"/><path class="cls-29" d="M197,154.37a12.12,12.12,0,0,0-5.86,2l-1.81-22.95a6.81,6.81,0,0,0-7.29-6.23l-67.13,5.3a6.81,6.81,0,0,0-6.22,7.29L114,207a6.8,6.8,0,0,0,7.29,6.22l67.12-5.3a6.8,6.8,0,0,0,6.23-7.29l-1.82-23A12.22,12.22,0,1,0,197,154.37Z"/><path class="cls-25" d="M99.66,145.19l-1,1.85-1.15,2.06c-.74,1.4-1.5,2.8-2.19,4.22a90.19,90.19,0,0,0-3.72,8.49c-.53,1.41-1,2.8-1.35,4.16a31.92,31.92,0,0,0-.94,4,20.88,20.88,0,0,0-.21,6.6l-2.3-4A16.94,16.94,0,0,0,90.19,176a51.71,51.71,0,0,0,5.33,3.73c1.93,1.24,4,2.42,6.08,3.61l3.18,1.78c1,.6,2.2,1.2,3.15,1.78l.48.29a5.66,5.66,0,0,1-3,10.5c-1.52,0-2.82-.1-4.22-.21s-2.73-.29-4.09-.5a66.92,66.92,0,0,1-8.19-1.76,53.32,53.32,0,0,1-8.3-3.09,32.34,32.34,0,0,1-8.61-5.8,7.74,7.74,0,0,1-2-3.15l-.28-.86A36.94,36.94,0,0,1,68,167.62a57.42,57.42,0,0,1,2.48-12.79A81.12,81.12,0,0,1,75,143.46c.87-1.8,1.76-3.58,2.76-5.31.49-.87,1-1.74,1.52-2.6l.82-1.3.43-.67.52-.76a11.19,11.19,0,0,1,19,11.8Z"/><path class="cls-9" d="M91.85,119.57c-16.58,8.86-22.76,28.65-22.76,28.65,3.28,6.25,23.06,13,30.5,11.16,0,0,7.13-13,8.6-24.62C109.55,124,101.56,114.38,91.85,119.57Z"/><path class="cls-25" d="M103.45,188l.34,6.46c2.74,6.21,10.12,1.31,10.12,1.31l4.51-.92a3.43,3.43,0,0,0,2.5-3.66l-.2-4.51a3.58,3.58,0,0,0-3.42-3.63l-4,.15a7.18,7.18,0,0,0-3.31,1Z"/></g></g></svg>