<svg xmlns="http://www.w3.org/2000/svg" viewBox="0 0 816 806"><defs><style>.cls-1{fill:#00509d;}.cls-2{fill:#ffd500;}.cls-3{fill:#bbfce2;}.cls-4{fill:#3d9391;}.cls-5{fill:#00296b;}.cls-6{fill:#ffd670;}.cls-7{fill:#003f88;}</style></defs><g id="Capa_2" data-name="Capa 2"><g id="Capa_1-2" data-name="Capa 1"><rect class="cls-1" y="1" width="205" height="189"/><rect class="cls-2" x="205" y="1" width="200" height="189"/><rect class="cls-3" x="405" y="1" width="200" height="189"/><rect class="cls-2" x="605" width="211" height="189"/><rect class="cls-3" y="189" width="205" height="185"/><rect class="cls-1" x="201" y="189" width="404" height="185"/><rect class="cls-2" x="605" y="189" width="210" height="185"/><rect class="cls-2" y="374" width="205" height="184"/><rect class="cls-3" x="205" y="374" width="200" height="184"/><rect class="cls-2" x="405" y="374" width="200" height="184"/><rect class="cls-4" x="605" y="374" width="210" height="184"/><rect class="cls-2" y="557" width="205" height="249"/><rect class="cls-2" x="205" y="557" width="200" height="249"/><rect class="cls-1" x="405" y="557" width="200" height="249"/><rect class="cls-3" x="605" y="557" width="210" height="249"/><path class="cls-5" d="M133.68,612.49a13.41,13.41,0,0,0-13.41-13.41H70.85a13.41,13.41,0,0,0-13.41,13.41V693a13.41,13.41,0,0,0,13.41,13.41h49.42A13.41,13.41,0,0,0,133.68,693v-9.5a16.87,16.87,0,0,1-7,5.45V693a6.43,6.43,0,0,1-6.43,6.43H70.86A6.44,6.44,0,0,1,64.42,693a6.23,6.23,0,0,1,6.23-6.24h49.62a13.41,13.41,0,0,0,13.41-13.42v-60.8ZM113.41,658.3a4.49,4.49,0,0,1-1.29,3.2,4.54,4.54,0,0,1-3.19,1.32H82.19a4.48,4.48,0,0,1-4.48-4.44v-1a12,12,0,0,1,8.62-11.58,1.65,1.65,0,0,0,1-2.36,22.55,22.55,0,0,1-2.75-9.84c-.06-6.57,4.81-12,10.87-12s11,5.24,11.07,11.82a22.67,22.67,0,0,1-2.63,10,1.66,1.66,0,0,0,1,2.34,11.92,11.92,0,0,1,8.53,11.35Z"/><path class="cls-5" d="M147.94,619.89a6.24,6.24,0,0,0-6.24-6.24H137v17.78h4.68a6.23,6.23,0,0,0,6.24-6.23Z"/><path class="cls-5" d="M141.7,659.52H137V677.3h4.68a6.24,6.24,0,0,0,6.24-6.24v-5.31A6.23,6.23,0,0,0,141.7,659.52Z"/><path class="cls-5" d="M138,654a6.23,6.23,0,0,0,6.24-6.23v-5.31A6.24,6.24,0,0,0,138,636.2h-1V654Z"/><path class="cls-6" d="M156.59,310.18A16.79,16.79,0,0,0,139.8,293.4h-9.19V248.94a16.2,16.2,0,0,0-16.2-16.19H65a16.2,16.2,0,0,0-16.2,16.19v68.9a16.79,16.79,0,0,0,16.79,16.78l75.79-.08a16.78,16.78,0,0,0,15.26-16.7Zm-91,17.37a9.72,9.72,0,0,1-9.72-9.71v-68.9A9.15,9.15,0,0,1,65,239.81h49.46a9.15,9.15,0,0,1,9.13,9.13l-.07,68.9a16.7,16.7,0,0,0,3.11,9.71Zm84-9.71a9.5,9.5,0,1,1-19,0l.08-17.37h9.19a9.72,9.72,0,0,1,9.72,9.71Z"/><rect class="cls-6" x="89.52" y="267.18" width="25.17" height="7.07"/><rect class="cls-6" x="89.52" y="254.09" width="25.17" height="7.07"/><rect class="cls-6" x="64.35" y="280.26" width="50.35" height="7.07"/><rect class="cls-6" x="64.35" y="293.34" width="50.35" height="7.07"/><rect class="cls-6" x="64.35" y="306.43" width="50.35" height="7.07"/><rect class="cls-6" x="64.35" y="253.87" width="19.87" height="20.46"/><path class="cls-7" d="M741.9,56.65A12.94,12.94,0,0,0,729,43.73H686.3a12.93,12.93,0,0,0-12.92,12.92v81.6a12.94,12.94,0,0,0,12.92,12.93H729a12.94,12.94,0,0,0,12.93-12.93Zm-34.12,90.29a4.26,4.26,0,1,1,4.25-4.26A4.26,4.26,0,0,1,707.78,146.94Zm27.46-12.74H680V57.64h55.2Z"/><path class="cls-6" d="M711,655.45a12.88,12.88,0,1,0-11,0c-1.53,25.74-17.32,44.58-26.29,53.29h14.73c1.53-1.79,3.1-3.75,4.65-5.87a15.41,15.41,0,0,1,24.81,0c1.56,2.12,3.12,4.08,4.65,5.87h14.73C728.34,700,712.56,681.19,711,655.45Z"/><path class="cls-6" d="M716,665.51a65.85,65.85,0,0,0,2,7,31.25,31.25,0,1,0-24.9,0,69,69,0,0,0,1.94-7,24.13,24.13,0,1,1,21,0Z"/><path class="cls-6" d="M705.53,595.36a48.44,48.44,0,0,0-19.75,92.69,79.43,79.43,0,0,0,4.94-9.47,37.77,37.77,0,1,1,29.61,0,81,81,0,0,0,4.94,9.47,48.45,48.45,0,0,0-19.74-92.7Z"/><path class="cls-5" d="M353.07,58.12a14.66,14.66,0,0,0-14.68-14.6H271a14.66,14.66,0,0,0-14.68,14.6v55.29h96.77Zm-7.76,47.58H264.06V58.12A6.92,6.92,0,0,1,271,51.23h67.41a6.92,6.92,0,0,1,6.92,6.89Z"/><path class="cls-5" d="M347,156.14a12.76,12.76,0,0,0,12.2-16.52L353,119.19H256.24l-6.62,20.2a12.78,12.78,0,0,0,12.14,16.75Zm-23.52-9.73a2.37,2.37,0,0,1-2.38,2.37H287.65a2.37,2.37,0,0,1-2.37-2.37v-1.68a2.37,2.37,0,0,1,2.37-2.37h33.48a2.37,2.37,0,0,1,2.38,2.37Z"/><path class="cls-5" d="M310.21,77.65l.75-.76a2.39,2.39,0,0,0-.69-3.83L295.16,66A2.39,2.39,0,0,0,292,69.19l7.43,14.94a2.39,2.39,0,0,0,3.85.61L304,84l6.69,6.53a2.37,2.37,0,0,0,1.69.68,2.41,2.41,0,0,0,1.68-.72l2.85-2.91a2.38,2.38,0,0,0,0-3.37Z"/><path class="cls-3" d="M94.83,101.86c0,3.66,1.63,6,4.82,6,3.56,0,7.32-4.52,8.19-10.11l1.35-9.15a12.06,12.06,0,0,0-3-.39C99.84,88.18,94.83,94.45,94.83,101.86Z"/><path class="cls-3" d="M102.63,43.38A54.92,54.92,0,1,0,157.55,98.3,54.92,54.92,0,0,0,102.63,43.38Zm14.26,72.16c-4.52,0-7.8-2.31-8.28-7.42h-.2c-3,4.92-7.32,7.42-12.42,7.42-6.27,0-10.79-4.62-10.79-12.52,0-11.75,8.67-22.45,22.54-22.45,4.24,0,9.05,1.06,11.46,2.41l-2.89,17.82c-1,5.69-.28,8.29,2.41,8.38,4.14.1,9.35-5.2,9.35-16.28,0-12.52-8.09-22.25-23-22.25-14.74,0-27.65,11.56-27.65,30,0,16.09,10.31,25.24,24.66,25.24a31.42,31.42,0,0,0,14-3.08l1.73,5.59c-5.78,2.6-10.79,3.46-17.64,3.46-16,0-30.06-11.46-30.06-30.34,0-19.65,14.27-36.71,36-36.71,17,0,29.1,11.66,29.1,27.85C135.2,106.68,127.29,115.54,116.89,115.54Z"/><path class="cls-7" d="M726.37,298.39a29.17,29.17,0,0,0-12.09-7.13,4,4,0,0,1-2.55-2.28,4,4,0,0,1,.14-3.43c4-7.82,6.47-17,6.42-24.32-.15-16.05-12.24-29-27-28.83s-26.65,13.24-26.53,29.29c.07,7.25,2.61,16.28,6.72,24a4,4,0,0,1-2.43,5.76,29.17,29.17,0,0,0-21,28.25l0,2.46A10.92,10.92,0,0,0,659,333h65.24a10.91,10.91,0,0,0,10.92-11l0-3A29.15,29.15,0,0,0,726.37,298.39Z"/><path class="cls-7" d="M763.26,314a29.1,29.1,0,0,0-20.8-27.68,4.06,4.06,0,0,1-2.55-2.29,4,4,0,0,1,0-2.87,37.9,37.9,0,0,0,13.56-6,2.06,2.06,0,0,0-.25-3.54c-3.16-1.57-6-5.05-7.89-10-2.36-6.13-.1-11.6-4.79-21.3-4.41-9.12-13-13.34-22.5-12.89,0,0-7.69.31-12.87,4.7a33.24,33.24,0,0,1,17,29.06c0,7.25-2.07,16-5.75,23.88a2.3,2.3,0,0,0,1.2,3.11,35.53,35.53,0,0,1,11.48,7.47,32.76,32.76,0,0,1,9.87,23.25l0,3a14.63,14.63,0,0,1-1.29,6.09h14.72a10.91,10.91,0,0,0,10.92-11Z"/><path class="cls-7" d="M355.87,639.84c-9.11-36.41-52.21-53-83.47-30.92-57.85,40.88,4,133.26,64,87A53.72,53.72,0,0,0,355.87,639.84Zm-8.46-4.1c-4.43.17-8.39-1.65-11.44-.31-4.55,2-11.38,5.69-7.12,0a17.11,17.11,0,0,0,3.13-8.54c.46-4.27.39-7.47,1.46-10.31A47.41,47.41,0,0,1,347.41,635.74Zm-43.9-29.9h.24a47.11,47.11,0,0,1,12.59,1.82c-4.66.87-10.82,1.87-14.52,1.87a13.18,13.18,0,0,1-7.61-2.76A47.54,47.54,0,0,1,303.51,605.84Zm-17.94,3.57c8.16-.34,25.89,11.51,19.35,16.06-4.87,3.4-11.09,9.39-11.09,11.95s.83,3.85-1.42,4.27c-4.31.81-15.37.86-12.81,4.55s18.78-1.42,21.91,9.1c2.21,7.42-1.71,14.8-3.13,20.49s-4.54,16.71-7.9,17c-1.86.18-3-.87-4.05-4-3.7-11.1-11.1-17.07-12.8-20.48s-5.59-12.35-1-17.47-4.49-4.59-6.48-8.85c-1.08-2.32-4.12-4.16-6.05-7.5A47.59,47.59,0,0,1,285.57,609.41ZM336,687.25a57.42,57.42,0,0,0-1.62-6.11c-1.71-5.41-5.51-9.52-4.66-12.08s.86-5.12-3.13-9.1-5.69-8-1.7-13.94c3.8-5.7,17.68-6.22,24.13-5.51a46.69,46.69,0,0,1-13,46.74Z"/><path class="cls-5" d="M124.47,469.27h7.91a34.73,34.73,0,0,0-31.59-33.83v8A26.81,26.81,0,0,1,124.47,469.27Z"/><path class="cls-5" d="M139.65,469.27h11.88a53.87,53.87,0,0,0-50.74-53v11.87A42,42,0,0,1,139.65,469.27Z"/><path class="cls-5" d="M106.51,491.63a6.84,6.84,0,0,1-5.57-1.71c-4.06-3.7-8.88-8.29-12.17-12l0,0c-3.14-3.26-6.89-7.86-10-11.82A6.82,6.82,0,0,1,81,455.9a21.54,21.54,0,0,0,2.72-1.67l-21-35c-7.47,3.64-12.65,11.48-11.22,22.39.81,5.7,13.81,26.18,30,43.38,17.27,18.37,37.9,33.36,42.66,34,9.72,1,17.86-1.65,22.51-9.67l-33.44-23.42C110.77,488.74,110.43,491.08,106.51,491.63Z"/><path class="cls-5" d="M89.66,443.21,75.52,419.59c-1.91-3.21-5.72-4.46-10.38-1.69l21.09,35.25C90.88,450.39,91.57,446.41,89.66,443.21Z"/><path class="cls-5" d="M147.61,496.92l-22.24-16.24c-3-2.21-7-1.88-10.22,2.5l33.18,24.23.75-1A6.79,6.79,0,0,0,147.61,496.92Z"/><path class="cls-3" d="M535.39,316.41a9.53,9.53,0,0,1-9.52,9.52H468.75a9.53,9.53,0,0,1-9.52-9.52V242.82a9.53,9.53,0,0,1,9.52-9.53h57.12a9.53,9.53,0,0,1,9.52,9.53V247l6.64-6.65a16.38,16.38,0,0,0-16.16-14H468.75a16.43,16.43,0,0,0-16.41,16.42v73.59a16.43,16.43,0,0,0,16.41,16.41h57.12a16.43,16.43,0,0,0,16.41-16.41v-41l-6.89,6.89Z"/><path class="cls-3" d="M491.69,300.77l-3,8.12a1.92,1.92,0,0,0,2.47,2.47l8.12-3Z"/><path class="cls-3" d="M509.43,303.44l45.08-45.09a1.91,1.91,0,0,0,0-2.72l-10.07-10.07a1.93,1.93,0,0,0-2.72,0l-45.08,45.08Z"/><path class="cls-3" d="M523.8,258.6v-2.19H474.51a3,3,0,0,0-2.95,3v2.81a3,3,0,0,0,2.95,3h42.75Z"/><path class="cls-3" d="M471.56,281a3,3,0,0,0,2.95,3h23.92l8.72-8.72H474.51a3,3,0,0,0-2.95,2.95Z"/><path class="cls-3" d="M471.56,299.86a3,3,0,0,0,2.95,2.95h12.76l3.19-8.72H474.51a3,3,0,0,0-2.95,3Z"/><path class="cls-7" d="M456.52,467.13a3.62,3.62,0,0,0,3.55.44c12.14-5.05,24.58-8.6,41.27-8.6h18.95v3.72a4.87,4.87,0,0,0,8.1,3.64l24.41-21.64a6.55,6.55,0,0,0,0-9.79l-24.41-21.65a4.88,4.88,0,0,0-8.1,3.65v3.71H501.81c-22.37,0-44,15.94-46.73,43.25A3.62,3.62,0,0,0,456.52,467.13Z"/><path class="cls-7" d="M553.54,467a3.65,3.65,0,0,0-3.55-.44c-12.13,5.05-24.58,8.59-41.27,8.59h-19v-3.71a4.87,4.87,0,0,0-8.1-3.64l-24.41,21.65a6.53,6.53,0,0,0,0,9.78l24.41,21.64a4.87,4.87,0,0,0,8.1-3.64v-3.71h18.48c22.37,0,44-15.94,46.73-43.25A3.62,3.62,0,0,0,553.54,467Z"/><path class="cls-6" d="M561.86,637.47A18.45,18.45,0,0,0,543.43,619H520.08a18.3,18.3,0,0,0-5.69-6l8.08-12.38a3.61,3.61,0,1,0-6.05-3.94l-8.88,13.6a18.24,18.24,0,0,0-3-.27,17.85,17.85,0,0,0-3.38.36l-8.93-13.7a3.61,3.61,0,1,0-6.05,4l8.22,12.6A18.44,18.44,0,0,0,489,619H465.24a18.45,18.45,0,0,0-18.43,18.43v53.78a18.46,18.46,0,0,0,18.43,18.44h78.19a18.46,18.46,0,0,0,18.43-18.44Zm-35.19,53.7a11.48,11.48,0,0,1-11.49,11.48H465.24a11.41,11.41,0,0,1-11.4-11.4V637.56a11.48,11.48,0,0,1,11.49-11.49h49.85a11.48,11.48,0,0,1,11.49,11.49Zm17.69-1A6.62,6.62,0,1,1,551,683.5,6.62,6.62,0,0,1,544.36,690.12Zm0-21.21a6.62,6.62,0,1,1,6.62-6.62A6.62,6.62,0,0,1,544.36,668.91Zm0-21.22a6.62,6.62,0,1,1,6.62-6.62A6.62,6.62,0,0,1,544.36,647.69Z"/><path class="cls-6" d="M505.31,115.57a20.37,20.37,0,0,0,20.38-20.38V88a2.84,2.84,0,0,0-2.85-2.84h-8.1a3.55,3.55,0,0,1,0-7.1h8.1a2.85,2.85,0,0,0,2.85-2.85v-.74a2.85,2.85,0,0,0-2.85-2.85h-8.1a3.55,3.55,0,0,1,0-7.1h8.1a2.84,2.84,0,0,0,2.85-2.84V60a20.38,20.38,0,0,0-40.76,0v1a3.58,3.58,0,0,0,3.58,3.58h6.86a3.55,3.55,0,1,1,0,7.1h-7.59a2.85,2.85,0,0,0-2.85,2.85A3.58,3.58,0,0,0,488.51,78h6.86a3.55,3.55,0,1,1,0,7.1h-6.86a3.58,3.58,0,0,0-3.58,3.58v6.48A20.37,20.37,0,0,0,505.31,115.57Z"/><path class="cls-6" d="M543,99.78a2.82,2.82,0,0,0-.49-2.3,2.88,2.88,0,0,0-2-1.16l-.39,0-.85-.08a2.85,2.85,0,0,0-3,2.24c-1.43,6.6-7.43,24-30.88,25.2-23.45-1.17-29.45-18.6-30.88-25.2a2.85,2.85,0,0,0-3-2.24l-.85.08-.4,0a2.88,2.88,0,0,0-2,1.16,2.82,2.82,0,0,0-.49,2.3c1.75,7.81,8.56,27.46,33.2,30.58v9.39H482.46a6.7,6.7,0,0,0-6.71,6.7V152h59.11v-5.52a6.7,6.7,0,0,0-6.7-6.7H509.81v-9.39C534.45,127.24,541.26,107.59,543,99.78Z"/><path class="cls-6" d="M360,472a20,20,0,0,0-8.48-16.35,46.75,46.75,0,0,0-93.5,0,20,20,0,0,0,10.82,36.36,2.84,2.84,0,0,0,2.84,2.83h8.41a2.84,2.84,0,0,0,2.84-2.83V452a2.84,2.84,0,0,0-2.84-2.84h-8.41a2.84,2.84,0,0,0-2.84,2.84,19.68,19.68,0,0,0-3.08.42,39.17,39.17,0,0,1,78,0,19.68,19.68,0,0,0-3.08-.42,2.84,2.84,0,0,0-2.84-2.84h-8.41a2.85,2.85,0,0,0-2.85,2.84v40a2.84,2.84,0,0,0,2.84,2.83h8.42a2.84,2.84,0,0,0,2.84-2.83,20.12,20.12,0,0,0,6.11-1.22c-1.47,5.58-6.4,15.94-22.68,18.1v-.25a4.14,4.14,0,0,0-4.14-4.14H308.92a4.14,4.14,0,0,0-4.14,4.14v5.21a4.13,4.13,0,0,0,4.14,4.13H320a4.13,4.13,0,0,0,4.14-4.13V512.5c21.66-2.67,25.88-18.82,26.64-23.64A20,20,0,0,0,360,472Z"/><path class="cls-6" d="M689.47,433.26c-24.28,0-44,16.94-44,37.84,0,11.61,6.09,22,15.66,28.93l5,15a4.51,4.51,0,0,0,6.32,2.6l17-8.66c24.29,0,44-16.95,44-37.84S713.76,433.26,689.47,433.26Zm0,67.25h-2l-1.81.91-8.27,4.22a4.51,4.51,0,0,1-6.32-2.6l-1.89-5.68-.86-2.57-2.19-1.59c-7.74-5.61-12.18-13.66-12.18-22.1,0-16.22,15.94-29.42,35.54-29.42S725,454.88,725,471.1,709.08,500.51,689.47,500.51Z"/><path class="cls-6" d="M727.22,416.49c-12.4,0-23.37,5.17-30.25,13.12,23,3.15,40.69,20.53,40.69,41.49a37.12,37.12,0,0,1-2.88,14.19l6.37,3.25a4.49,4.49,0,0,0,3.76.16,4.54,4.54,0,0,0,2.57-2.75l4-12.15C759.74,467.85,765,458.93,765,449,765,431,748.07,416.49,727.22,416.49Z"/><path class="cls-6" d="M675.46,465.86a4.91,4.91,0,1,0,4.91,4.91A4.91,4.91,0,0,0,675.46,465.86Z"/><path class="cls-6" d="M689.48,465.86a4.91,4.91,0,1,0,4.9,4.91A4.91,4.91,0,0,0,689.48,465.86Z"/><path class="cls-6" d="M703.49,465.86a4.91,4.91,0,1,0,4.91,4.91A4.91,4.91,0,0,0,703.49,465.86Z"/><path class="cls-3" d="M356.15,255.35a18.47,18.47,0,0,0-18.44-18.44H314.36a18.33,18.33,0,0,0-5.68-6l8.07-12.39a3.61,3.61,0,1,0-6.05-3.94l-8.87,13.6a18.37,18.37,0,0,0-3-.27,17.94,17.94,0,0,0-3.38.36l-8.93-13.69a3.61,3.61,0,1,0-6,3.94l8.22,12.61a18.38,18.38,0,0,0-5.38,5.82h-23.8a18.46,18.46,0,0,0-18.43,18.44v53.78a18.45,18.45,0,0,0,18.43,18.43h78.19a18.46,18.46,0,0,0,18.44-18.43ZM321,309a11.48,11.48,0,0,1-11.49,11.49H259.52a11.42,11.42,0,0,1-11.4-11.4v-53.7A11.48,11.48,0,0,1,259.61,244h49.85A11.48,11.48,0,0,1,321,255.43Zm17.7-1a6.62,6.62,0,1,1,6.62-6.62A6.62,6.62,0,0,1,338.65,308Zm0-21.22a6.62,6.62,0,1,1,6.62-6.62A6.62,6.62,0,0,1,338.65,286.78Zm0-21.22a6.62,6.62,0,1,1,6.62-6.62A6.62,6.62,0,0,1,338.65,265.56Z"/></g></g></svg>