<svg xmlns="http://www.w3.org/2000/svg" viewBox="0 0 609.96 967.73"><defs><style>.cls-1{fill:#c09;}.cls-2{fill:#cf6;}.cls-3{fill:#ffeb97;}.cls-4{fill:#231f20;}.cls-5{font-size:131.49px;font-family:TheBoldFont, The Bold Font;}</style></defs><g id="Capa_2" data-name="Capa 2"><g id="Layer_2" data-name="Layer 2"><path class="cls-1" d="M305,0C136.54,0,0,132.69,0,296.38a288.34,288.34,0,0,0,23.41,114h0a292.84,292.84,0,0,0,16.35,32.37L305,967.73,570.2,442.79A288.62,288.62,0,0,0,610,296.38C610,132.69,473.42,0,305,0ZM168.79,568.06s123.5,85.32,275.35,0C444.14,568.06,307.31,673.59,168.79,568.06ZM305,551.22c-141.85,0-257.25-113.31-257.25-252.6S163.13,46,305,46,562.24,159.34,562.24,298.62,446.83,551.22,305,551.22Z"/><path class="cls-1" d="M224.58,240.25c-11.72,45.89,37.13,66.92,37.13,66.92C228.49,282.32,224.58,240.25,224.58,240.25Z"/><path class="cls-1" d="M384.08,408.42H324.7c-5.76,0-10.48,5.16-10.48,11.47v2.87c0,6.31,4.72,11.47,10.48,11.47h59.38c5.77,0,10.48-5.16,10.48-11.47v-2.87C394.56,413.58,389.85,408.42,384.08,408.42Z"/><path d="M305,79.71c-122.6,0-222.33,98.2-222.33,218.91S182.38,517.54,305,517.54s222.33-98.21,222.33-218.92S427.57,79.71,305,79.71Zm81.72,367.9H243.48c-12.48,0-22.7-11.18-22.7-24.85S231,397.9,243.48,397.9H386.7c12.49,0,22.71,11.19,22.71,24.86S399.19,447.61,386.7,447.61Zm-3.08-85.95H238.26l144,6.41-.55,7.3a19.24,19.24,0,0,1,5.76,15.52H237.37c-12.49,0-22.7,11.18-22.7,24.86v14.33c0,13.68,10.21,24.86,22.7,24.86H388.11c-9.17,14.41-24.41,23.9-41.58,23.9H259.2c-27.85,0-50.65-24.95-50.65-55.45h0a58.81,58.81,0,0,1,8.52-30.66l-.66.07c.54-9.35,4-15.31,8.58-19.07l2.26-14.64s-81.31-104.61-43.38-135c28.54-22.83,35.53-4.71,37.24,5.65l-5.41-58.29s2.15-75.16,133.92-52.06C473.32,141.12,393.84,337.65,383.62,361.66Z"/><path class="cls-1" d="M232.4,189.59s1-43,63.5-59.27C295.9,130.32,230.45,127.45,232.4,189.59Z"/><path class="cls-2" d="M171,803.63a88.65,88.65,0,0,1-32.81-28.14C116,744.16,64.26,706.07,24.58,684.59c-.81-.45-1.61-.84-2.38-1.28a9.81,9.81,0,0,1-4-13.14l37.54-75.29a9.79,9.79,0,0,1,12.88-4.74,459.78,459.78,0,0,0,64.54,24c4.14,1.2,8.26,2.33,12.31,3.43,26.29,6.86,49.32,10.25,66.56,9.74a88.63,88.63,0,0,1,75,37.4c10,14.22,26.79,30.72,48.36,47.72,11.38,9,23.56,17.69,36.25,25.91,10.71,6.93,21.56,13.36,31.36,18.56A9.79,9.79,0,0,1,407,770l-37.54,75.29a9.77,9.77,0,0,1-12.88,4.74C315.22,830.7,252.69,811.7,213.2,812.9A89,89,0,0,1,171,803.63Z"/><path class="cls-3" d="M321.61,818.37c-3.24-1.91-4.65-5.59-3.13-8.18s5.43-3.15,8.67-1.25,4.65,5.59,3.13,8.18S324.85,820.27,321.61,818.37Z"/><path class="cls-4" d="M326.17,810.6c2.12,1.24,3,3.61,2,5.3s-3.5,2.05-5.61.81-3-3.61-2-5.3,3.5-2,5.61-.81m2-3.32c-4.41-2.59-9.66-1.83-11.72,1.69s-.18,8.47,4.23,11.06,9.65,1.83,11.72-1.69.17-8.47-4.23-11.06Z"/><path class="cls-3" d="M338.42,805.92c-3.24-1.9-4.65-5.59-3.12-8.18s5.42-3.15,8.66-1.25,4.65,5.59,3.13,8.18S341.66,807.82,338.42,805.92Z"/><path class="cls-4" d="M343,798.12c2.12,1.24,3,3.61,2,5.3s-3.49,2.05-5.61.81-3-3.61-2-5.3,3.5-2.06,5.62-.81M345,794.8c-4.41-2.59-9.65-1.83-11.72,1.69s-.17,8.47,4.23,11.06,9.65,1.83,11.72-1.69.17-8.47-4.23-11.06Z"/><path class="cls-3" d="M361.63,750.25c-3.24-1.9-4.65-5.59-3.13-8.17s5.43-3.16,8.67-1.25,4.65,5.59,3.13,8.18S364.87,752.16,361.63,750.25Z"/><path class="cls-4" d="M366.2,742.49c2.12,1.24,3,3.6,2,5.3s-3.49,2.05-5.61.8-3-3.6-2-5.29,3.5-2.06,5.62-.81m1.95-3.32c-4.41-2.59-9.65-1.83-11.72,1.69s-.18,8.47,4.23,11,9.65,1.84,11.72-1.68.17-8.48-4.23-11.06Z"/><path class="cls-3" d="M358.94,771c-3.24-1.9-4.65-5.59-3.13-8.18s5.43-3.15,8.67-1.25,4.65,5.59,3.13,8.18S362.18,772.9,358.94,771Z"/><path class="cls-4" d="M363.51,763.23c2.11,1.25,3,3.61,2,5.3s-3.49,2.06-5.61.81-3-3.61-2-5.3,3.5-2,5.62-.81m1.95-3.32c-4.41-2.58-9.66-1.83-11.72,1.69s-.18,8.47,4.23,11.06,9.65,1.83,11.72-1.69.17-8.47-4.23-11.06Z"/><path class="cls-3" d="M351.07,789.91c-3.24-1.91-4.65-5.59-3.13-8.18s5.43-3.15,8.67-1.25,4.65,5.59,3.13,8.18S354.31,791.81,351.07,789.91Z"/><path class="cls-4" d="M355.66,782.11c2.11,1.24,3,3.6,2,5.3s-3.49,2.05-5.61.81-3-3.61-2-5.3,3.5-2.06,5.62-.81m1.95-3.32c-4.41-2.59-9.66-1.83-11.72,1.69s-.18,8.47,4.23,11,9.65,1.84,11.72-1.68.17-8.47-4.23-11.06Z"/><path class="cls-3" d="M96.47,608.42c3.26,1.87,4.71,5.54,3.21,8.15s-5.39,3.2-8.65,1.33-4.71-5.54-3.21-8.14S93.21,606.55,96.47,608.42Z"/><path class="cls-4" d="M92,616.23c-2.13-1.22-3.06-3.57-2.08-5.27s3.47-2.09,5.6-.87,3.06,3.57,2.08,5.28-3.47,2.09-5.6.86m-1.92,3.34c4.43,2.54,9.67,1.73,11.7-1.81s.09-8.47-4.34-11-9.67-1.73-11.7,1.81-.09,8.47,4.34,11Z"/><path class="cls-3" d="M79.79,621c3.26,1.87,4.7,5.54,3.21,8.15s-5.39,3.2-8.65,1.33-4.71-5.54-3.22-8.14S76.53,619.17,79.79,621Z"/><path class="cls-4" d="M75.29,628.89c-2.14-1.22-3.06-3.58-2.09-5.28s3.48-2.09,5.61-.87,3.06,3.58,2.08,5.28-3.47,2.09-5.6.87m-1.92,3.34c4.43,2.54,9.67,1.73,11.7-1.81s.09-8.47-4.34-11-9.67-1.73-11.7,1.81-.09,8.48,4.34,11Z"/><path class="cls-3" d="M57.15,676.94c3.26,1.87,4.71,5.54,3.22,8.15s-5.4,3.21-8.66,1.34-4.7-5.55-3.21-8.15S53.9,675.07,57.15,676.94Z"/><path class="cls-4" d="M52.67,684.76c-2.13-1.23-3.06-3.58-2.08-5.28s3.48-2.09,5.61-.87,3.06,3.58,2.08,5.28-3.48,2.09-5.61.87m-1.91,3.34c4.42,2.54,9.67,1.73,11.7-1.81s.08-8.48-4.35-11-9.67-1.73-11.7,1.81-.08,8.47,4.35,11Z"/><path class="cls-3" d="M59.63,656.17c3.26,1.87,4.71,5.54,3.21,8.15s-5.39,3.2-8.65,1.33-4.71-5.54-3.21-8.14S56.37,654.3,59.63,656.17Z"/><path class="cls-4" d="M55.15,664c-2.13-1.22-3.06-3.57-2.08-5.27s3.47-2.09,5.6-.87,3.06,3.57,2.08,5.28-3.47,2.09-5.6.86m-1.92,3.34c4.43,2.54,9.67,1.73,11.7-1.8s.09-8.48-4.34-11-9.67-1.73-11.7,1.81-.09,8.47,4.34,11Z"/><path class="cls-3" d="M67.31,637.18c3.25,1.87,4.7,5.54,3.21,8.15s-5.4,3.2-8.66,1.33-4.7-5.54-3.21-8.14S64.05,635.31,67.31,637.18Z"/><path class="cls-4" d="M62.8,645c-2.13-1.22-3.06-3.58-2.08-5.28s3.48-2.09,5.61-.87,3.06,3.58,2.08,5.28-3.48,2.09-5.61.87m-1.91,3.34c4.43,2.54,9.67,1.73,11.7-1.81s.08-8.47-4.35-11-9.67-1.73-11.7,1.81-.08,8.48,4.35,11Z"/><text class="cls-5" transform="translate(70.3 700.36) rotate(26.5) scale(1.04 1)">ABK</text></g></g></svg>