<svg xmlns="http://www.w3.org/2000/svg" xmlns:xlink="http://www.w3.org/1999/xlink" viewBox="0 0 2817.67 2779.39"><defs><style>.cls-1{opacity:0.3;fill:url(#Degradado_sin_nombre_7);}.cls-1,.cls-4,.cls-5,.cls-7,.cls-8{isolation:isolate;}.cls-2{fill:#fff;}.cls-3{fill:url(#Degradado_sin_nombre_5);}.cls-4,.cls-5,.cls-7,.cls-8{opacity:0.64;}.cls-4{fill:url(#Degradado_sin_nombre_7-2);}.cls-5{fill:url(#Degradado_sin_nombre_7-3);}.cls-6{fill:url(#Degradado_sin_nombre_5-2);}.cls-7{fill:url(#Degradado_sin_nombre_7-4);}.cls-8{fill:url(#Degradado_sin_nombre_7-5);}.cls-9{fill:url(#Degradado_sin_nombre_8);}.cls-10{fill:url(#Degradado_sin_nombre_17);}.cls-11{fill:url(#Degradado_sin_nombre_31);}.cls-12{fill:url(#Degradado_sin_nombre_17-2);}.cls-13{fill:url(#Degradado_sin_nombre_31-2);}.cls-14{fill:url(#Degradado_sin_nombre_31-3);}.cls-15{fill:url(#Degradado_sin_nombre_17-3);}.cls-16{fill:url(#Degradado_sin_nombre_17-4);}.cls-17{fill:url(#Degradado_sin_nombre_27);}.cls-18{fill:url(#Degradado_sin_nombre_17-5);}.cls-19{fill:url(#Degradado_sin_nombre_27-2);}.cls-20{fill:url(#Degradado_sin_nombre_31-4);}.cls-21{fill:url(#Degradado_sin_nombre_31-5);}.cls-22{fill:url(#Degradado_sin_nombre_31-6);}.cls-23{fill:url(#Degradado_sin_nombre_31-7);}.cls-24{fill:url(#Degradado_sin_nombre_31-8);}.cls-25{fill:url(#Degradado_sin_nombre_27-3);}.cls-26{fill:url(#Degradado_sin_nombre_27-4);}.cls-27{fill:url(#Degradado_sin_nombre_27-5);}.cls-28{fill:url(#Degradado_sin_nombre_27-6);}.cls-29{fill:url(#Degradado_sin_nombre_31-9);}.cls-30{fill:url(#Degradado_sin_nombre_31-10);}.cls-31{fill:url(#Degradado_sin_nombre_31-11);}.cls-32{fill:url(#Degradado_sin_nombre_31-12);}</style><linearGradient id="Degradado_sin_nombre_7" x1="3047.27" y1="183" x2="983.19" y2="-1623.07" gradientTransform="translate(0 2630)" gradientUnits="userSpaceOnUse"><stop offset="0" stop-color="#b37cff"/><stop offset="1" stop-color="#f895e7"/></linearGradient><linearGradient id="Degradado_sin_nombre_5" x1="-238.59" y1="-746.31" x2="-817.08" y2="-1705.75" gradientTransform="translate(919.38 2544.76) rotate(11.53)" gradientUnits="userSpaceOnUse"><stop offset="0" stop-color="#a737d5"/><stop offset="1" stop-color="#ef497a"/></linearGradient><linearGradient id="Degradado_sin_nombre_7-2" x1="1665.42" y1="-3267.6" x2="-216.64" y2="-53.21" xlink:href="#Degradado_sin_nombre_7"/><linearGradient id="Degradado_sin_nombre_7-3" x1="1665.11" y1="-3267.8" x2="-216.94" y2="-53.4" xlink:href="#Degradado_sin_nombre_7"/><linearGradient id="Degradado_sin_nombre_5-2" x1="-758.9" y1="-2896.37" x2="277.94" y2="-1520.98" xlink:href="#Degradado_sin_nombre_5"/><linearGradient id="Degradado_sin_nombre_7-4" x1="2086.37" y1="-3021.15" x2="204.32" y2="193.25" xlink:href="#Degradado_sin_nombre_7"/><linearGradient id="Degradado_sin_nombre_7-5" x1="2086.23" y1="-3021.23" x2="204.17" y2="193.18" xlink:href="#Degradado_sin_nombre_7"/><linearGradient id="Degradado_sin_nombre_8" x1="994.25" y1="-683.15" x2="616.63" y2="-1274.19" gradientTransform="matrix(0.96, 0.27, -0.27, 0.96, 8.69, 3048.5)" gradientUnits="userSpaceOnUse"><stop offset="0" stop-color="#fdf53f"/><stop offset="1" stop-color="#d93c65"/></linearGradient><linearGradient id="Degradado_sin_nombre_17" x1="875.55" y1="-1079.84" x2="1411.01" y2="-1079.84" gradientTransform="matrix(0.96, 0.27, -0.27, 0.96, 8.69, 3048.5)" gradientUnits="userSpaceOnUse"><stop offset="0" stop-color="#f9b776"/><stop offset="1" stop-color="#f47960"/></linearGradient><linearGradient id="Degradado_sin_nombre_31" x1="1282.46" y1="-287.1" x2="78.53" y2="588.48" gradientTransform="translate(-68.32 2106.07) rotate(-16.26)" gradientUnits="userSpaceOnUse"><stop offset="0" stop-color="#53d8ff"/><stop offset="1" stop-color="#3840f7"/></linearGradient><linearGradient id="Degradado_sin_nombre_17-2" x1="1020.77" y1="-421.54" x2="1376.01" y2="-421.54" gradientTransform="translate(-68.32 2106.07) rotate(-16.26)" xlink:href="#Degradado_sin_nombre_17"/><linearGradient id="Degradado_sin_nombre_31-2" x1="1111.26" y1="-507.97" x2="-92.67" y2="367.61" xlink:href="#Degradado_sin_nombre_31"/><linearGradient id="Degradado_sin_nombre_31-3" x1="31.31" y1="-2056.07" x2="544.89" y2="-253.54" gradientTransform="translate(0 2630)" xlink:href="#Degradado_sin_nombre_31"/><linearGradient id="Degradado_sin_nombre_17-3" x1="798.02" y1="-109.75" x2="-562.02" y2="2253.59" gradientTransform="translate(28.74 2528.72) rotate(-4)" xlink:href="#Degradado_sin_nombre_17"/><linearGradient id="Degradado_sin_nombre_17-4" x1="987.9" y1="-1367.17" x2="549.68" y2="-1031.87" gradientTransform="matrix(0.99, 0.11, -0.11, 0.99, 49.33, 2321.12)" xlink:href="#Degradado_sin_nombre_17"/><linearGradient id="Degradado_sin_nombre_27" x1="689.02" y1="-1636.82" x2="1085.84" y2="-1125.9" gradientTransform="matrix(0.99, 0.11, -0.11, 0.99, 49.33, 2321.12)" gradientUnits="userSpaceOnUse"><stop offset="0" stop-color="#2b3582"/><stop offset="1" stop-color="#150e42"/></linearGradient><linearGradient id="Degradado_sin_nombre_17-5" x1="933.29" y1="-1438.53" x2="495.08" y2="-1103.23" gradientTransform="matrix(0.99, 0.11, -0.11, 0.99, 49.33, 2321.12)" xlink:href="#Degradado_sin_nombre_17"/><linearGradient id="Degradado_sin_nombre_27-2" x1="15934.81" y1="534.46" x2="15238.35" y2="725.34" gradientTransform="matrix(-1.05, -0.03, -0.03, 1, 17425.83, 2338.12)" xlink:href="#Degradado_sin_nombre_27"/><linearGradient id="Degradado_sin_nombre_31-4" x1="1116.53" y1="-1609.84" x2="774.13" y2="-1148.83" gradientTransform="translate(0 2630)" xlink:href="#Degradado_sin_nombre_31"/><linearGradient id="Degradado_sin_nombre_31-5" x1="1250.39" y1="-1488.13" x2="1046.75" y2="-1221.82" gradientTransform="translate(0 2630)" xlink:href="#Degradado_sin_nombre_31"/><linearGradient id="Degradado_sin_nombre_31-6" x1="2069.22" y1="-1973.77" x2="551.68" y2="-1723.05" gradientTransform="matrix(0.99, -0.17, 0.17, 0.99, -223.6, 2999.11)" xlink:href="#Degradado_sin_nombre_31"/><linearGradient id="Degradado_sin_nombre_31-7" x1="1734.58" y1="-1730.75" x2="783.74" y2="-1573.65" gradientTransform="matrix(0.99, -0.17, 0.17, 0.99, -223.6, 2999.11)" xlink:href="#Degradado_sin_nombre_31"/><linearGradient id="Degradado_sin_nombre_31-8" x1="799.98" y1="-1721.81" x2="1177.61" y2="-795.37" gradientTransform="translate(0 2630)" xlink:href="#Degradado_sin_nombre_31"/><linearGradient id="Degradado_sin_nombre_27-3" x1="1411.43" y1="424.13" x2="1450.27" y2="-430.21" gradientTransform="translate(0 2630)" xlink:href="#Degradado_sin_nombre_27"/><linearGradient id="Degradado_sin_nombre_27-4" x1="1962.53" y1="-1030.63" x2="2254.81" y2="-283.23" gradientTransform="translate(0 2630)" xlink:href="#Degradado_sin_nombre_27"/><linearGradient id="Degradado_sin_nombre_27-5" x1="1927.34" y1="-733.5" x2="2094.36" y2="293.66" gradientTransform="translate(0 2630)" xlink:href="#Degradado_sin_nombre_27"/><linearGradient id="Degradado_sin_nombre_27-6" x1="1852.16" y1="-136.03" x2="2344.86" y2="186.87" gradientTransform="translate(0 2630)" xlink:href="#Degradado_sin_nombre_27"/><linearGradient id="Degradado_sin_nombre_31-9" x1="1739.75" y1="-1776.77" x2="2515.15" y2="-2698.18" gradientTransform="translate(0 2630)" xlink:href="#Degradado_sin_nombre_31"/><linearGradient id="Degradado_sin_nombre_31-10" x1="1750.45" y1="-3145.45" x2="801.81" y2="-1295.01" gradientTransform="translate(0 2630)" xlink:href="#Degradado_sin_nombre_31"/><linearGradient id="Degradado_sin_nombre_31-11" x1="2751.81" y1="-2075" x2="2123.47" y2="-1161.04" gradientTransform="translate(0 2630)" xlink:href="#Degradado_sin_nombre_31"/><linearGradient id="Degradado_sin_nombre_31-12" x1="1055.33" y1="-3004.03" x2="57.59" y2="-1057.81" gradientTransform="translate(0 2630)" xlink:href="#Degradado_sin_nombre_31"/></defs><g id="Capa_2" data-name="Capa 2"><g id="Capa_1-2" data-name="Capa 1"><g id="Capa_2-2" data-name="Capa 2"><g id="Capa_1-2-2" data-name="Capa 1-2"><g id="Capa_2-2-2" data-name="Capa 2-2"><g id="Illustration"><path class="cls-1" d="M2696.48,1875c-266.77,628.12-977.36,980-1593.59,885.07-100.27-15.44-375.17-61.45-618.55-278.5C15.84,2063.77-84.4,1236.4,293.55,653.33,568.64,229,1061.75-11.6,1530.31.43,1631.23,3,2018,19,2358,299.29c49.93,41.17,160,139,259.3,294.2C2850.3,957.94,2870.33,1465.69,2696.48,1875Z"/><path class="cls-2" d="M1036.09,915.91a5.72,5.72,0,0,1-4.58-2.89c-3.72-6.56-7.64-13.1-11.65-19.45a5.74,5.74,0,1,1,9.71-6.13c4.11,6.5,8.12,13.2,11.93,19.92a5.74,5.74,0,0,1-2.16,7.82A5.61,5.61,0,0,1,1036.09,915.91Z"/><path class="cls-2" d="M580.05,1636.19c-8.68-.54-17.59-1.54-26.25-2.65a5.73,5.73,0,0,1-5-6.36v0h0a5.81,5.81,0,0,1,6.43-5c8.46,1.09,17.23,1.94,25.63,2.6,6.23.46,12.61.8,19,1a5.55,5.55,0,0,1,5.55,5.53v.39a5.75,5.75,0,0,1-5.92,5.55h0C593,1637,586.43,1636.67,580.05,1636.19Zm92.66-2.13a5.74,5.74,0,0,1-.25-11.42c14.3-1.71,28.74-4.11,42.92-7.11l1.23-.27a5.74,5.74,0,1,1,2.49,11.21H719l-1.23.26c-14.51,3.09-29.3,5.54-43.94,7.29A5.89,5.89,0,0,1,672.71,1634.06Zm115.18-28.27a5.74,5.74,0,0,1-1.61-11.09c13.93-5.29,27.73-11.29,41-17.83a5.74,5.74,0,0,1,5.53,10.06l-.19.1-.28.14c-13.62,6.7-27.75,12.84-42,18.26A5.69,5.69,0,0,1,787.89,1605.79Zm104.8-55.44a5.74,5.74,0,0,1-2.87-10.43c12.16-8.51,24.07-17.71,35.39-27.34a5.74,5.74,0,0,1,7.44,8.75h0c-11.6,9.86-23.79,19.27-36.25,28a5.77,5.77,0,0,1-3.71,1Zm88-79.43a5.64,5.64,0,0,1-3.33-1.38,5.74,5.74,0,0,1-.58-8.1c9.72-11.22,19-23,27.69-35.14a5.76,5.76,0,0,1,9.37,6.7c-8.86,12.39-18.4,24.49-28.35,36a5.76,5.76,0,0,1-4.77,1.92Zm66.13-98.45a5.58,5.58,0,0,1-2.16-.6,5.75,5.75,0,0,1-2.53-7.72c6.73-13.26,12.9-27,18.34-40.81a5.74,5.74,0,0,1,10.68,4.22c-5.58,14.14-11.89,28.2-18.78,41.78a5.74,5.74,0,0,1-5.53,3.13Zm40.26-111.55a6,6,0,0,1-.85-.13,5.74,5.74,0,0,1-4.33-6.86c3.29-14.52,5.93-29.35,7.83-44.06a5.68,5.68,0,0,1,6.27-5h.16a5.73,5.73,0,0,1,5,6.38h0c-2,15.08-4.65,30.26-8,45.13a5.74,5.74,0,0,1-6,4.5Zm11.76-118.06a5.74,5.74,0,0,1-5.31-5.58c-.36-14.85-1.45-29.87-3.21-44.63a5.74,5.74,0,0,1,11.4-1.37c1.8,15.13,2.91,30.5,3.29,45.71a5.74,5.74,0,0,1-5.58,5.88h-.59Zm-17.42-117.35a5.73,5.73,0,0,1-5.11-4.19c-4-14.38-8.64-28.69-13.89-42.53a5.74,5.74,0,0,1,10.62-4.36c0,.1.08.19.11.29,5.38,14.17,10.16,28.82,14.23,43.54a5.74,5.74,0,0,1-4,7.06,5.58,5.58,0,0,1-2,.19Z"/><path class="cls-2" d="M481.84,1618.53a5.84,5.84,0,0,1-1.18-.21c-7.38-2.14-14.82-4.49-22.13-7a5.75,5.75,0,0,1,3.32-11l.38.13c7.15,2.44,14.42,4.73,21.63,6.82a5.74,5.74,0,0,1-2,11.24Z"/><path class="cls-2" d="M187.09,1377.05a5.72,5.72,0,0,1-4.68-3.08c-3.52-6.79-7-13.81-10.2-20.87a5.74,5.74,0,0,1,10.43-4.79c3.17,6.89,6.52,13.75,10,20.37a5.75,5.75,0,0,1-2.45,7.74h0A5.67,5.67,0,0,1,187.09,1377.05Z"/><path class="cls-2" d="M151.84,1288.59a5.72,5.72,0,0,1-5.08-4.13c-3.25-11.28-6.14-22.84-8.58-34.34-.68-3.17-1.31-6.33-1.92-9.49a5.74,5.74,0,0,1,11.27-2.18c.59,3.1,1.22,6.19,1.87,9.28,2.39,11.24,5.21,22.53,8.39,33.55a5.72,5.72,0,0,1-3.85,7.1,5.6,5.6,0,0,1-2.15.21ZM133.1,1173.4a5.73,5.73,0,0,1-5.29-5.49c-.61-15-.53-30.13.26-45.09a5.73,5.73,0,0,1,6-5.43,5.85,5.85,0,0,1,5.43,6c-.76,14.61-.85,29.42-.26,44a5.74,5.74,0,0,1-5.47,6h0A3,3,0,0,1,133.1,1173.4Zm9.5-116.34a4.54,4.54,0,0,1-.74-.1,5.75,5.75,0,0,1-4.46-6.79c3-14.66,6.77-29.36,11.14-43.68a5.75,5.75,0,1,1,11.05,3.19,1,1,0,0,0-.05.16h0c-4.27,14-7.93,28.33-10.88,42.66A5.74,5.74,0,0,1,142.6,1057.06Zm37.24-110.61a5.5,5.5,0,0,1-2-.54,5.73,5.73,0,0,1-2.71-7.65c6.46-13.52,13.61-26.88,21.28-39.74a5.74,5.74,0,0,1,9.86,5.87C198.78,917,191.84,930,185.49,943.2A5.76,5.76,0,0,1,179.84,946.45ZM242.4,848a5.73,5.73,0,0,1-4-9.36c9.47-11.57,19.61-22.84,30.13-33.51A5.74,5.74,0,0,1,276.9,813l-.2.2c-10.27,10.42-20.17,21.43-29.43,32.72A5.75,5.75,0,0,1,242.4,848Zm84.29-80.67a5.74,5.74,0,0,1-3-10.32c12-9,24.51-17.46,37.29-25.28a5.74,5.74,0,0,1,6,9.79c-12.48,7.64-24.73,15.94-36.42,24.68a5.71,5.71,0,0,1-3.87,1.09Zm101.22-58a5.74,5.74,0,0,1-1.81-11c13.79-5.81,28-11,42.3-15.55a5.77,5.77,0,0,1,3.46,11c-13.94,4.4-27.84,9.51-41.3,15.18a5.72,5.72,0,0,1-2.65.33Zm112.2-32a5.74,5.74,0,0,1-.47-11.39c14.79-2.36,29.86-4.06,44.8-5.06a5.74,5.74,0,1,1,1.09,11.43h-.33c-14.58,1-29.31,2.64-43.75,4.94a5,5,0,0,1-1.34,0Zm160.8,1.47a1.48,1.48,0,0,1-.59-.08c-14.41-2.58-29.09-4.52-43.64-5.74a5.74,5.74,0,1,1,.91-11.45h.06c14.9,1.26,29.94,3.24,44.7,5.88a5.74,5.74,0,0,1-1.44,11.38Z"/><path class="cls-2" d="M792.75,704.83a6,6,0,0,1-1.68-.39c-7-2.76-14.13-5.39-21.28-7.82a5.75,5.75,0,0,1,3.32-11l.38.13c7.32,2.49,14.65,5.18,21.8,8a5.74,5.74,0,0,1-2.54,11.07Z"/><path class="cls-3" d="M794.61,823.21a5.8,5.8,0,0,0-6.73.08l-57,41.6a307.59,307.59,0,0,0-97.28-21.32L599.23,782a5.79,5.79,0,0,0-6.09-2.88l-83.3,14.93a5.8,5.8,0,0,0-4.7,4.81l-10.88,69.67a307.36,307.36,0,0,0-83.82,53.77l-67.89-19.24a5.81,5.81,0,0,0-6.34,2.27l-48.37,69.46a5.78,5.78,0,0,0,.07,6.73l41.6,57a307.25,307.25,0,0,0-21.32,97.28l-61.56,34.38a5.77,5.77,0,0,0-2.88,6.08l14.92,83.32a5.8,5.8,0,0,0,4.81,4.7l69.68,10.87A307,307,0,0,0,386.93,1359l-19.24,67.89a5.81,5.81,0,0,0,2.27,6.34l69.46,48.35a5.78,5.78,0,0,0,6.73-.07l57-41.61a307.54,307.54,0,0,0,97.28,21.33l34.38,61.56a5.78,5.78,0,0,0,6.08,2.88l83.32-14.92a5.81,5.81,0,0,0,4.7-4.81l10.88-69.68a307.09,307.09,0,0,0,83.82-53.76l67.89,19.23a5.79,5.79,0,0,0,6.34-2.26L946.19,1330a5.8,5.8,0,0,0-.07-6.74l-41.6-57A307.19,307.19,0,0,0,925.84,1169l61.56-34.38a5.81,5.81,0,0,0,2.88-6.09l-14.92-83.31a5.8,5.8,0,0,0-4.81-4.7l-69.71-10.9a307.09,307.09,0,0,0-53.76-83.82l19.24-67.89a5.81,5.81,0,0,0-2.27-6.34Z"/><path class="cls-4" d="M610.89,1236a84.16,84.16,0,0,1-23.45-5.21,83.25,83.25,0,1,1,23.45,5.21Zm11-150a66.73,66.73,0,1,0,18.63,4.14A66.74,66.74,0,0,0,621.89,1086Z"/><path class="cls-5" d="M599.9,1366.24c-117.23-9-205-111.23-196.07-228.46A212.9,212.9,0,0,1,578.58,944.43c1.47-.25,2.93-.5,4.39-.73a215.06,215.06,0,0,1,36.29-2.61c1.51,0,3,.06,4.52.11l-.61,17.21a196.76,196.76,0,0,0-41.55,3h0a194.13,194.13,0,0,0-121.16,74.06c-1.67,2.2-3.31,4.45-4.89,6.73a194.31,194.31,0,0,0-32,146.21c19.06,106.32,120.67,177.07,227,158.06,89.63-16.06,154.13-91.15,160.6-178a195.91,195.91,0,0,0-47.54-143l13-11.31a213.2,213.2,0,0,1,51.75,155.58c-7,94.54-77.22,176.24-174.75,193.71A214,214,0,0,1,599.9,1366.24Z"/><path class="cls-2" d="M1660,693.23a7.64,7.64,0,0,1-6.26-4.15c-4.5-8.86-9.47-17.59-14.76-26a7.64,7.64,0,0,1,12.92-8.17c5.55,8.76,10.75,17.92,15.47,27.19a7.63,7.63,0,0,1-7.37,11.09Z"/><path class="cls-2" d="M1388.67,1172.92a7.64,7.64,0,0,1,0-15.24,327.49,327.49,0,0,0,44.4-6.29q7.76-1.65,15.34-3.64a7.64,7.64,0,0,1,3.89,14.78q-7.93,2.09-16.06,3.81a340.56,340.56,0,0,1-46.48,6.58A6.61,6.61,0,0,1,1388.67,1172.92ZM1542,1122.76a7.65,7.65,0,0,1-3.52-14.09,322,322,0,0,0,47.89-37,7.64,7.64,0,0,1,10.44,11.17h0a337.38,337.38,0,0,1-50.17,38.74A7.61,7.61,0,0,1,1542,1122.76ZM1653.11,1006a7.46,7.46,0,0,1-3.19-1,7.63,7.63,0,0,1-2.9-10.39h0a325.32,325.32,0,0,0,24.78-55.24,7.64,7.64,0,0,1,14.47,4.93h0a340.18,340.18,0,0,1-26,57.85A7.64,7.64,0,0,1,1653.11,1006Zm42.83-155.47a7.63,7.63,0,0,1-7.06-7.78,323.9,323.9,0,0,0-4.43-60.38,7.65,7.65,0,0,1,15.08-2.54,338.24,338.24,0,0,1,4.63,63.23,7.66,7.66,0,0,1-7.8,7.49Z"/><path class="cls-2" d="M1288.21,1164.6a7.16,7.16,0,0,1-1.23-.19c-10.11-2.44-20.21-5.38-30-8.74a7.65,7.65,0,1,1,5-14.47c9.36,3.21,19,6,28.66,8.34a7.65,7.65,0,0,1-2.36,15.06Z"/><path class="cls-2" d="M1072.19,995.6a7.6,7.6,0,0,1-6.22-4.11c-4.77-9.19-9.18-18.75-13.09-28.42a7.64,7.64,0,1,1,13.71-6.74c.11.22.2.44.29.66s.1.23.14.35c3.74,9.21,8,18.34,12.5,27.11a7.65,7.65,0,0,1-7.35,11.15Z"/><path class="cls-2" d="M1036.25,871.73a7.62,7.62,0,0,1-7-7,336.83,336.83,0,0,1-.36-54.46q.28-4,.68-7.92a7.9,7.9,0,0,1,8.37-6.85,7.66,7.66,0,0,1,6.85,8.36c-.25,2.51-.47,5-.66,7.54a321.3,321.3,0,0,0,.34,52,7.66,7.66,0,0,1-7,8.29h0A10,10,0,0,1,1036.25,871.73ZM1060.93,715a7.66,7.66,0,0,1-6.48-10.59,341.31,341.31,0,0,1,29.41-55,7.64,7.64,0,1,1,12.76,8.42h0a324.26,324.26,0,0,0-28.08,52.49A7.67,7.67,0,0,1,1060.93,715Zm94.78-127.18a7.64,7.64,0,0,1-4.28-13.52,337.81,337.81,0,0,1,51.6-35,7.65,7.65,0,0,1,7.37,13.4,323.37,323.37,0,0,0-49.26,33.39,7.56,7.56,0,0,1-5.43,1.77Zm143.13-68.22a7.64,7.64,0,0,1-1-15.11,340.27,340.27,0,0,1,61.94-7,7.48,7.48,0,0,1,7.79,7.14h0V505a7.64,7.64,0,0,1-7.49,7.79h0a325.07,325.07,0,0,0-59.17,6.65A8,8,0,0,1,1298.84,519.6Z"/><path class="cls-2" d="M1486.53,535.73a8.26,8.26,0,0,1-2.25-.51c-9.22-3.65-18.72-6.9-28.23-9.66a7.65,7.65,0,0,1,4-14.76l.24.07c10,2.9,19.92,6.3,29.58,10.12a7.65,7.65,0,0,1-3.37,14.74Z"/><path class="cls-6" d="M1488.07,613a4,4,0,0,0-4.6,0l-39,28.46a210.46,210.46,0,0,0-66.55-14.59l-23.52-42.11a4,4,0,0,0-4.16-2l-57,10.21a4,4,0,0,0-3.22,3.29l-7.44,47.66a209.94,209.94,0,0,0-57.34,36.78l-46.4-13.07a4,4,0,0,0-4.33,1.55l-33.08,47.52a4,4,0,0,0,0,4.61l28.46,39a210.13,210.13,0,0,0-14.59,66.55l-42.12,23.52a4,4,0,0,0-2,4.16l10.21,57a4,4,0,0,0,3.3,3.22l47.66,7.44a210.14,210.14,0,0,0,36.78,57.35L1196,1026a4,4,0,0,0,1.55,4.33l47.52,33.09a4,4,0,0,0,4.6-.06l39-28.46a210.4,210.4,0,0,0,66.55,14.59l23.52,42.12a4,4,0,0,0,4.16,2l57-10.21a4,4,0,0,0,3.22-3.29l7.44-47.67a210.09,210.09,0,0,0,57.34-36.78l46.45,13.16a4,4,0,0,0,4.33-1.55l33.08-47.52a4,4,0,0,0,0-4.6l-28.46-39a210.64,210.64,0,0,0,14.52-66.55L1620,826.08a4,4,0,0,0,2-4.16l-10.21-57a4,4,0,0,0-3.29-3.22l-47.66-7.44A210.33,210.33,0,0,0,1524,696.92l13.16-46.45a4,4,0,0,0-1.55-4.33Z"/><path class="cls-7" d="M1362,900.89a62.87,62.87,0,0,1-21.33-120h0a62.88,62.88,0,1,1,21.33,120Zm-11.88-99.1a39.95,39.95,0,1,0,52.86,20h0A40,40,0,0,0,1350.13,801.79Z"/><path class="cls-8" d="M1354.44,990.06a151.22,151.22,0,0,1,17-301.91l-.82,22.92a128.48,128.48,0,0,0-107.27,51.29l-.87,1.18c-.59.81-1.17,1.62-1.74,2.44a128.27,128.27,0,1,0,202-11L1480,739.9A151.32,151.32,0,0,1,1354.44,990Z"/><path class="cls-9" d="M1159.15,2227.53c-198.72-43.83-49-338.61-42-350L761,2002.53s-31.8,171.38,189.8,329.1c56.07,39.89,112.8,57.1,166.28,60.61C1113.5,2323.47,1133.84,2268.47,1159.15,2227.53Z"/><path class="cls-10" d="M1563.64,2241.09c-58.39-71.36-155.28-44.19-155.28-44.19-115.46,36-195.18,42.54-249.21,30.63-25.28,40.94-45.65,95.94-42,164.73,115.72,7.59,216.19-49.13,261.62-80,16.35-11.11,38.69-7.49,50.26,8.54,11.75,16.28,21.8,36.86,14.23,53.35-15,32.52,21.45,54.57,27.94,43.08s10.82-89.32,10.82-89.32,56.36,101.87,78.5,141.14,69.58,19.8,69.58,19.8S1622,2312.45,1563.64,2241.09Z"/><path class="cls-11" d="M361,1463.59s250-197,905.85,83.2c0,0,70.92,78.23,46.76,173.57s-365.7,625.81-364,863.72c0,0-246.77,169-590.89,41.87C358.62,2626,203.73,2008.09,361,1463.59Z"/><path class="cls-12" d="M897.05,1212.37l-89.72,210.27a57.91,57.91,0,0,0,10.26,61.87c31,33.8,93.9,77.79,193.48,39.82a89.34,89.34,0,0,0,56.27-68.78l38.17-230.44Z"/><path class="cls-13" d="M360.4,2267.85c-72.38-124.33,173-521.28,173-521.28L366.5,1478.69S-212.16,2169.8,84.74,2501.1c42.56,47.5,88.88,75.9,137,89.85C233.74,2417.88,305,2319.14,360.4,2267.85Z"/><path class="cls-14" d="M354.41,2267.69a8.19,8.19,0,0,1-9.4-3.75c-74-127.11,163-513.33,173.07-529.72a8.23,8.23,0,1,1,14.28,8.19l-.28.45c-2.44,3.92-241.94,394.16-172.86,512.82a8.22,8.22,0,0,1-3,11.23A8,8,0,0,1,354.41,2267.69Z"/><path class="cls-15" d="M942.16,2254.15c-44.39,12.31-85.7,34.39-130.31,45.74-49.53,12.61-98.5,27.43-148.38,38.66-77.6,17.47-179.7,37.5-247.85-15.84-5.75-4.5-52-56.75-55.22-54.86-123.75,71.49-147.81,238.55-147.81,319.6,225.61,123.37,580.42-116.85,676-187.06a74.8,74.8,0,0,1,54.52-13.9c39.08,5.36,106.45,12.56,142,4.58,52-11.68,140.07,168.44,221.29,105.48C1306.38,2496.55,1211.48,2179.48,942.16,2254.15Z"/><path class="cls-16" d="M1187.84,915.18s56.66,183.5,51.54,275.93,8,154.23-100.26,160.88S947.28,1295.75,909,1198.85c0,0-60.22-149.45-36.74-205.29S1187.84,915.18,1187.84,915.18Z"/><path class="cls-17" d="M952.64,1137.12l13.42,1.49S923.4,1019,974.23,1004.46s247.76-32.3,296.92-96c47.39-61.4,21.17-150.46-29.62-180.23a7.19,7.19,0,0,0-9.47,2.34l-5.36,7.89a7.26,7.26,0,0,1-13.15-2.85h0c-1-6.11-8.88-8.28-12.71-3.42-15,19-53.14,48.39-147.39,55.14-133.74,9.56-226.29,52.94-238.52,143.26a7.27,7.27,0,0,1-11.83,4.67c-9-7-24.19-11.47-46.82,3.62-39.36,26.25-33.39,106.37,38.29,179.73,3.4,3.49,2.72,9.34-1.63,11.53-15.34,7.71-39.12,27.49,12.82,63.17,53.13,36.51,86.94,36.94,99.92,35.12a7.27,7.27,0,0,0,6.29-6.85l4-80.81a7.26,7.26,0,0,1,7.61-6.89h0a3.08,3.08,0,0,1,.43,0Z"/><path class="cls-18" d="M954.06,1154.28s-16.59-115-70.21-89.28,12,128.15,51.87,136.83Z"/><path class="cls-19" d="M778.08,2602.7h2.1l910.46-14.09c22.51-.34,40.39-18,39.95-39.31s-19.12-38.77-41.56-38.06l-910.46,14.08c-22.51.35-40.39,17.95-40,39.32C739.05,2585.36,756.53,2602,778.08,2602.7Z"/><path class="cls-20" d="M1132.48,1269.75c-162.22,13.76-294.94-113.26-295.87-115.17V1126c.89,1.82,140.74,143,294.93,129.91Z"/><path class="cls-21" d="M1198.6,1262.72c0,10.79-7.79,19.54-17.4,19.54h-46.42c-9.62,0-17.41-8.75-17.41-19.54h0c0-10.8,7.79-19.55,17.41-19.55h46.42C1190.84,1243.17,1198.6,1251.92,1198.6,1262.72Z"/><path class="cls-22" d="M919.48,981.91s-37-197.66,191.47-198.77a2.66,2.66,0,0,0,.6-5.26c-62.59-14.43-244.29-35.79-247,201.41C899.34,991.83,919.48,981.91,919.48,981.91Z"/><path class="cls-23" d="M877.61,957.8c-89.18,18.09-78.21,130.87-78.21,130.87-6.43,81.83,17.46,122.4,48.07,141.73A70.46,70.46,0,0,0,955.3,1176c1.65-22.28,3.53-43.45,5.19-51C964.49,1106.81,966.78,939.7,877.61,957.8Z"/><path class="cls-24" d="M885.84,986.31a40.55,40.55,0,0,0-44.22,23.87c-53.29,123.47,12.15,203.78,44.27,205.45,33.86,1.77,33.17-161.13,26-202.88C908.84,995.25,897.7,988.38,885.84,986.31Z"/><path class="cls-25" d="M47.65,2633.83c-1.52-11.24.55-22.87,5.64-31.71S66,2588.17,74,2588.17h2709.5c10.52,0,20.32,7.68,26,20.37s6.43,28.64,2,42.31l-29.36,91c-6.73,20.84-21.29,34.18-37.32,34.18H92.55c-14.91,0-27.73-15.14-30.56-36.11Z"/><path class="cls-2" d="M2744.78,2779.39H92.55c-16.58,0-30.84-16.41-33.89-39L44.32,2634.3c-1.62-12,.59-24.34,6.06-33.83,5.72-9.94,14.32-15.64,23.58-15.64h2709.5c11.94,0,22.8,8.36,29.05,22.36a64.36,64.36,0,0,1,2.15,44.71l-29.37,91C2778.14,2765.06,2762.23,2779.39,2744.78,2779.39ZM51,2633.39l14.34,106.09c2.6,19.24,14.06,33.2,27.24,33.2H2744.78c14.48,0,27.88-12.5,34.12-31.85l29.37-91c4.18-13,3.48-27.9-1.89-39.91-5.14-11.51-13.71-18.38-22.92-18.38H74c-6.8,0-13.27,4.47-17.76,12.27-4.75,8.19-6.65,19-5.23,29.57Z"/><path class="cls-26" d="M1480.41,1554.17c-15.3,125.06-84.15,633.16-103.86,778.33a33.33,33.33,0,0,0,28.56,37.5h0a32.72,32.72,0,0,0,5.42.29l1168-33.43a33.37,33.37,0,0,0,31.63-26.13l181.66-818.22A33.38,33.38,0,0,0,2757.3,1452l-1245.74,73A33.34,33.34,0,0,0,1480.41,1554.17Z"/><path class="cls-2" d="M1409.63,2373.66A36.69,36.69,0,0,1,1372.9,2337a34.9,34.9,0,0,1,.33-5c20.5-151,88.58-653.5,103.85-778.29h0a36.69,36.69,0,0,1,34.32-32.19l1245.73-73a36.73,36.73,0,0,1,38,44.63l-181.68,818.22a36.7,36.7,0,0,1-34.81,28.76l-1168,33.42Zm74.12-819.08c-15.28,124.82-83.37,627.33-103.91,778.42a30,30,0,0,0,30.62,34l1168-33.42a30,30,0,0,0,28.45-23.5l181.69-818.22a30,30,0,0,0-31.07-36.48l-1245.73,73a30,30,0,0,0-28,26.31Z"/><path class="cls-27" d="M1949.89,2067.28l-172.62,489.94,401.38,8.51,33.42-495.51a38.51,38.51,0,0,0-35.85-41h0a36.88,36.88,0,0,0-5.15,0l-187.44,12.45A38.5,38.5,0,0,0,1949.89,2067.28Z"/><path class="cls-2" d="M2181.78,2569.15l-3.2-.06-406-8.61,174.16-494.31a41.79,41.79,0,0,1,36.71-27.86l187.39-12.45a41.86,41.86,0,0,1,44.54,39v0a40.54,40.54,0,0,1,0,5.62ZM1782,2554l393.54,8.35,33.2-492.31a35.15,35.15,0,0,0-32.7-37.44,36.85,36.85,0,0,0-4.7,0L1983.84,2045a35.1,35.1,0,0,0-30.83,23.39Z"/><path class="cls-28" d="M1614.55,2564.2h0a20.85,20.85,0,0,0,19.8,27.35h628.59a20.85,20.85,0,0,0,20.84-20.85v-27a20.87,20.87,0,0,0-20.87-20.85H2262l-628.58,27A20.83,20.83,0,0,0,1614.55,2564.2Z"/><path class="cls-2" d="M2262.93,2594.91H1634.35a24.19,24.19,0,0,1-24.21-24.17,23.86,23.86,0,0,1,1.21-7.58h0a24.31,24.31,0,0,1,22-16.64l628.58-27a24.21,24.21,0,0,1,25.22,23.14v28A24.25,24.25,0,0,1,2262.93,2594.91Zm0-68.66h-.77l-628.59,27a17.55,17.55,0,0,0-15.86,12h0a17.47,17.47,0,0,0,16.61,22.94H2262.9a17.52,17.52,0,0,0,17.5-17.49v-27a17.49,17.49,0,0,0-17.47-17.49Z"/><path class="cls-2" d="M1462.77,2071.07l-8.29-1.05,57.36-452.56a58.92,58.92,0,0,1,54.88-51.38l1076.51-65,.51,8.33-1076.52,65a50.55,50.55,0,0,0-47.09,44.1Z"/><rect class="cls-2" x="1386.56" y="2244.03" width="98.76" height="8.35" transform="translate(-974.11 3391.89) rotate(-82.82)"/><path class="cls-29" d="M1835.52,352.18v252a56,56,0,0,0,53.43,56L2204,675a56.07,56.07,0,0,0,58.63-53.37h0c0-.87.06-1.75.06-2.63V352.18a56,56,0,0,0-56-56H1891.58a56,56,0,0,0-56.06,55.94Z"/><path class="cls-2" d="M1955.78,420l-12.31-45.47L1907.59,355l-4.79,8.75,32.12,17.34,38.28,140.35,1.19,4.17h156.17A44.29,44.29,0,0,0,2168,505.36l7-9.24c7.53-11.68,12.5-25.1,12.5-39V420Zm220.44,37.1A62.29,62.29,0,0,1,2166,490.74l-6.19,10.4c-6.39,9.9-17.42,16.9-29.21,16.9H1982.05l-8.13-30-15.4-56.73h217.7Z"/><path class="cls-2" d="M2166.48,576.5c0,2.76-2.25,5.65-5,5.65H1978.22c-2.78,0-5.63-4.34-5.63-7.1V488.64c0-.95.56-.75,1-1.51L1982,518h1.82v52.8H2161.4C2164.23,570.84,2166.48,573.72,2166.48,576.5Z"/><rect class="cls-2" x="2064.75" y="425.02" width="6.69" height="94.06"/><rect class="cls-2" x="2005.67" y="425.02" width="6.69" height="94.06"/><rect class="cls-2" x="2122.44" y="425.02" width="6.69" height="94.06"/><rect class="cls-2" x="1961.06" y="452.69" width="217.56" height="5.98"/><rect class="cls-2" x="1970.56" y="485.43" width="202.61" height="5.98"/><path class="cls-2" d="M2001.69,588.6a21.61,21.61,0,1,0,21.6,21.62h0a21.62,21.62,0,0,0-21.6-21.62Zm0,34.65a13,13,0,1,1,13-13,13,13,0,0,1-13,13Z"/><path class="cls-2" d="M2136,588.6a21.61,21.61,0,1,0,21.6,21.62h0A21.62,21.62,0,0,0,2136,588.6Zm0,34.65a13,13,0,1,1,13-13,13,13,0,0,1-13,13Z"/><path class="cls-2" d="M1929.84,363.69a10.16,10.16,0,0,1-10.15,10.16h-33.78a10.13,10.13,0,0,1-10.15-10.13v0h0a10.14,10.14,0,0,1,10.13-10.15h33.8A10.17,10.17,0,0,1,1929.84,363.69Z"/><path class="cls-30" d="M1152.48,60.89V331.17a60.11,60.11,0,0,0,57.36,60.06l338,15.89a60.12,60.12,0,0,0,62.88-57.23h0c0-1,.07-1.89.07-2.83V60.89A60.13,60.13,0,0,0,1550.66.76h-338a60.12,60.12,0,0,0-60.18,60.08h0Z"/><path class="cls-2" d="M1498.61,326.26H1265.68A31.69,31.69,0,0,1,1234,294.61V124.27a31.69,31.69,0,0,1,31.65-31.65h232.93a31.69,31.69,0,0,1,31.65,31.65V294.61A31.69,31.69,0,0,1,1498.61,326.26ZM1265.68,113.48a10.8,10.8,0,0,0-10.79,10.79V294.61a10.79,10.79,0,0,0,10.79,10.79h232.93a10.8,10.8,0,0,0,10.79-10.79V124.27a10.81,10.81,0,0,0-10.79-10.79Z"/><path class="cls-2" d="M1382.35,213.2a10.33,10.33,0,0,1-6-1.92l-130.51-92.56a10.43,10.43,0,0,1,12.07-17L1382.35,190l122.86-87.27a10.43,10.43,0,0,1,12.08,17l-128.9,91.55A10.4,10.4,0,0,1,1382.35,213.2Z"/><path class="cls-2" d="M1253.44,319l-3-20.64,1.41,10.33-8.74-5.68c2.42-3.88,49.49-86.22,80.54-140.61a10.43,10.43,0,1,1,18.12,10.34h0s-20.14,35.27-40.31,70.55c-10.09,17.64-20.19,35.29-27.79,48.52C1258.5,318.19,1258.5,318.19,1253.44,319Z"/><path class="cls-2" d="M1510.46,319c-5-.8-5-.8-20.18-27.18-7.6-13.23-17.7-30.88-27.79-48.52-20.18-35.28-40.31-70.55-40.31-70.55a10.43,10.43,0,0,1,18.12-10.34h0c31,54.39,78.11,136.72,80.54,140.61l-8.74,5.68Z"/><path class="cls-31" d="M2226.76,899.68v237.73a52.9,52.9,0,0,0,50.41,52.84l297.29,14a52.88,52.88,0,0,0,55.31-50.31v0c0-.83.06-1.67.06-2.5V899.72a52.89,52.89,0,0,0-52.89-52.89H2279.65A52.89,52.89,0,0,0,2226.76,899.68Z"/><path class="cls-2" d="M2302.84,1185.35a16.26,16.26,0,0,1-11.26-4.06l-8.61-7.89c-4.16-3.82-5.89-9.69-4.87-16.53a36.27,36.27,0,0,1,9.43-18.65l5.74-6.25c.41-.44.82-.88,1.24-1.3l107.23-107.22a2.64,2.64,0,1,1,3.92,3.53l0,0-.16.16L2298.24,1134.4c-.37.37-.73.75-1.09,1.14l-5.73,6.25a30.88,30.88,0,0,0-8.1,15.87c-.76,5,.38,9.25,3.21,11.85l8.61,7.89c6,5.55,18.5,2.22,27.19-7.25l5.74-6.26c.35-.38.7-.78,1-1.18l85.63-101.84a2.64,2.64,0,0,1,4.4,2.92h0a3,3,0,0,1-.4.47l-85.63,101.85c-.38.46-.78.91-1.18,1.35l-5.74,6.26C2319.31,1181.25,2310.47,1185.35,2302.84,1185.35Zm2.6-16.82a10.9,10.9,0,0,1-7.57-2.73c-6-5.47-4-17,4.56-26.34a30.52,30.52,0,0,1,13.22-8.75c5.1-1.54,9.59-.85,12.62,1.94s4.11,7.19,3,12.41a30.51,30.51,0,0,1-7.58,13.92c-5.64,6.16-12.52,9.55-18.26,9.55Zm15.29-33.34a12.63,12.63,0,0,0-3.56.58,25.29,25.29,0,0,0-10.85,7.26c-6.2,6.76-8.48,15.58-4.88,18.88,3.19,2.93,11.52,1,18.38-6.5h0a25.16,25.16,0,0,0,6.3-11.43c.4-1.93.75-5.45-1.42-7.44a5.74,5.74,0,0,0-4-1.35Zm133.52-114.57a2.64,2.64,0,0,1-2.62-2.66,2.6,2.6,0,0,1,.62-1.68h0l30.89-36.74,1.93,1.18c24.06,14.64,52.92,10.64,71.81-10A62.38,62.38,0,0,0,2573.19,922a5.79,5.79,0,0,0-4-5,6.05,6.05,0,0,0-6.42,1.65L2529.41,955a14,14,0,0,1-11.47,4.47L2500,957.93a14,14,0,0,1-12.54-11.5l-3.08-17.71a14,14,0,0,1,3.43-11.72l33.29-36.29a6.07,6.07,0,0,0,1.1-6.54,5.79,5.79,0,0,0-5.32-3.61A62.56,62.56,0,0,0,2469.84,891c-18.89,20.6-20.39,49.69-3.72,72.4l1.34,1.82-40,40a2.64,2.64,0,1,1-3.74-3.73l36.85-36.84c-16.8-24.51-14.74-55.29,5.4-77.24a67.65,67.65,0,0,1,51.09-22.16,11.08,11.08,0,0,1,10.07,6.82,11.26,11.26,0,0,1-2.06,12.18l-33.23,36.29a8.64,8.64,0,0,0-2.15,7.33l3.08,17.71a8.65,8.65,0,0,0,7.78,7.14l17.91,1.55a8.71,8.71,0,0,0,7.13-2.78l33.25-36.29a11.29,11.29,0,0,1,12-3.1,11.09,11.09,0,0,1,7.65,9.45,67.68,67.68,0,0,1-17.67,52.8c-20.14,22-50.62,26.67-76.48,12l-28,33.3a2.61,2.61,0,0,1-2.08.92Z"/><path class="cls-2" d="M2534.61,1186.72a14.84,14.84,0,0,1-2.11-.09,24.34,24.34,0,0,1-16.95-8.93l-99.49-121.82a12.47,12.47,0,0,1,1.46-17.36l19.62-17.12a12.48,12.48,0,0,1,17.4.9l107.21,115.1a24.55,24.55,0,0,1-1.23,34.68c-.2.19-.4.36-.6.54l-9.23,8.05A24.31,24.31,0,0,1,2534.61,1186.72Zm-92.84-160-19.62,17.12a5.46,5.46,0,0,0-.64,7.6l99.5,121.82a17.5,17.5,0,0,0,24.63,2.42l.37-.31,9.23-8a17.5,17.5,0,0,0,1.68-24.69l-.38-.42-107.2-115.1a5.46,5.46,0,0,0-7.62-.39Z"/><path class="cls-2" d="M2422.32,1040.7,2336,939.7a6.16,6.16,0,0,1-3.67-1.27l-25.9-19.87a5.81,5.81,0,0,1-1.69-2l-11.48-22.71a7.27,7.27,0,0,1,2.09-8.64l6.47-5.64a7.26,7.26,0,0,1,8.84-.9l21,14.48a6.06,6.06,0,0,1,1.71,1.82l16.76,27.79a6.44,6.44,0,0,1,.65,5l89,99.94ZM2338.1,934.07l85,99.42,8.83-6.64-87.48-98.26.91-1.64a1.68,1.68,0,0,0,.18-1.51l-16.7-27.79a.69.69,0,0,0-.19-.19l-21-14.48a2.14,2.14,0,0,0-2.37.53l-6.47,5.65a2.14,2.14,0,0,0-.84,2.26l11.47,22.72a.57.57,0,0,0,.19.22l25.9,19.87a1.43,1.43,0,0,0,1.09.14Z"/><path class="cls-32" d="M426.45,232.15V516.42a63.23,63.23,0,0,0,60.28,63.17L842.22,596.3a63.26,63.26,0,0,0,66.14-60.22c0-1,.07-2,.07-3v-301a63.24,63.24,0,0,0-63.24-63.24H489.7a63.24,63.24,0,0,0-63.25,63.23Z"/><path class="cls-2" d="M680.6,407.63a433.89,433.89,0,0,1-6.19,75.48c-1.13,6.22-2.43,12.41-4,18.54a176.8,176.8,0,0,1-5.57,18.15,86.3,86.3,0,0,1-8.28,17.11,34.26,34.26,0,0,1-6.21,7.27,17.5,17.5,0,0,1-4.07,2.63,11.81,11.81,0,0,1-9.55.24,16.41,16.41,0,0,1-4.16-2.49,32.34,32.34,0,0,1-6.35-7.16,83,83,0,0,1-8.4-17,174.22,174.22,0,0,1-5.61-18.13c-1.57-6.13-2.88-12.32-4-18.54-2.26-12.44-3.8-25-4.84-37.59s-1.55-25.24-1.62-37.87c0-6.32.14-12.64.37-19s.58-12.63,1-18.93c.93-12.6,2.32-25.17,4.39-37.64,1-6.23,2.25-12.44,3.7-18.59a180.44,180.44,0,0,1,5.26-18.22,84.72,84.72,0,0,1,3.53-8.81,63.53,63.53,0,0,1,4.51-8.36,31.08,31.08,0,0,1,6.22-7.21,16,16,0,0,1,4.11-2.51,11.52,11.52,0,0,1,4.72-.84,12.57,12.57,0,0,1,4.67,1.1,18.18,18.18,0,0,1,4,2.54,35.07,35.07,0,0,1,6.35,7.08,86.16,86.16,0,0,1,8.7,16.85,173.41,173.41,0,0,1,6,18c1.68,6.09,3.1,12.25,4.33,18.45A398.78,398.78,0,0,1,680.6,407.63Zm-1.86,0c0-12.58-.45-25.18-1.49-37.72a365.14,365.14,0,0,0-4.91-37.42c-1.15-6.18-2.5-12.33-4.11-18.41a171.86,171.86,0,0,0-5.73-18,85.51,85.51,0,0,0-8.43-16.77,34.4,34.4,0,0,0-6.13-7,17.68,17.68,0,0,0-3.89-2.5,11.64,11.64,0,0,0-4.44-1.08,10.89,10.89,0,0,0-4.48.84,14.92,14.92,0,0,0-3.92,2.42,30.51,30.51,0,0,0-6,7.11,63.88,63.88,0,0,0-4.37,8.31c-1.28,2.86-2.39,5.8-3.41,8.77a175.65,175.65,0,0,0-5,18.17c-1.38,6.13-2.52,12.32-3.48,18.54-1.93,12.44-3.18,25-4,37.55s-1.07,25.15-1,37.74.38,25.18,1.32,37.73,2.38,25.07,4.53,37.47c1.08,6.19,2.34,12.36,3.85,18.46a171,171,0,0,0,5.43,18,81.9,81.9,0,0,0,8.14,16.86,31.21,31.21,0,0,0,6.07,7,15.77,15.77,0,0,0,3.89,2.37,10.63,10.63,0,0,0,4.39.84,11.19,11.19,0,0,0,4.35-1.07,16.65,16.65,0,0,0,3.81-2.51,33.38,33.38,0,0,0,6-7.09,85.37,85.37,0,0,0,8-16.93,178.86,178.86,0,0,0,5.37-18c1.49-6.1,2.74-12.27,3.8-18.47,2.14-12.4,3.56-24.92,4.51-37.47S678.75,420.22,678.74,407.63Z"/><path class="cls-2" d="M641.21,551.63a15.6,15.6,0,0,1-5.81-1.16,19.66,19.66,0,0,1-5.07-3,35.15,35.15,0,0,1-7.1-8,85.87,85.87,0,0,1-8.8-17.82,176.16,176.16,0,0,1-5.73-18.52c-1.51-5.91-2.84-12.06-4.07-18.79-2.17-11.93-3.76-24.34-4.89-38-1-12.37-1.56-25.21-1.62-38.16,0-6.76.16-13.45.36-19.09.24-6.42.6-12.84,1.06-19.07,1-13.68,2.45-26.1,4.42-38,1.13-6.76,2.36-12.92,3.75-18.84a181.85,181.85,0,0,1,5.37-18.59c1.2-3.38,2.39-6.36,3.65-9.12a67.91,67.91,0,0,1,4.78-8.84,34.26,34.26,0,0,1,7-8,19.28,19.28,0,0,1,5.08-3,15.47,15.47,0,0,1,6.2-1.1,16.16,16.16,0,0,1,6,1.41,21.93,21.93,0,0,1,4.89,3,38.7,38.7,0,0,1,7,7.84,88.78,88.78,0,0,1,9.1,17.58,179.19,179.19,0,0,1,6.1,18.39c1.63,5.93,3.07,12,4.39,18.73,4.62,23.57,6.91,48.46,7,76.1h0c0,27.82-2.09,52.72-6.25,76.12-1.22,6.73-2.54,12.88-4,18.81A181.63,181.63,0,0,1,668.35,521a90.14,90.14,0,0,1-8.65,17.84,37.51,37.51,0,0,1-6.91,8.06,21.53,21.53,0,0,1-4.93,3.18,15.85,15.85,0,0,1-6.2,1.45ZM639.3,272.44a7.36,7.36,0,0,0-2.78.58,11.46,11.46,0,0,0-3,1.85,26,26,0,0,0-5.24,6.26,59.26,59.26,0,0,0-4.1,7.81c-1.13,2.55-2.21,5.32-3.29,8.48A171.45,171.45,0,0,0,616,315.2c-1.29,5.75-2.41,11.73-3.43,18.3-1.8,11.64-3.09,23.81-3.93,37.2-.73,11.45-1.07,23.72-1,37.51,0,12.73.4,25.33,1.3,37.47,1,13.32,2.47,25.46,4.49,37.11,1.14,6.51,2.38,12.47,3.8,18.2a166.64,166.64,0,0,0,5.31,17.65,77.05,77.05,0,0,0,7.76,16.1,27.13,27.13,0,0,0,5.32,6.14,11.91,11.91,0,0,0,3,1.82,7.76,7.76,0,0,0,2.9.57,7.34,7.34,0,0,0,2.94-.74,12.87,12.87,0,0,0,3-2,29.47,29.47,0,0,0,5.26-6.31,81.09,81.09,0,0,0,7.65-16.17,174.79,174.79,0,0,0,5.25-17.67c1.39-5.7,2.62-11.66,3.75-18.22,2-11.54,3.45-23.68,4.46-37.11.92-12.11,1.39-24.71,1.38-37.46h0c0-12.69-.47-25.28-1.48-37.4a357.93,357.93,0,0,0-4.85-37.05c-1.21-6.45-2.53-12.39-4-18.15a171.5,171.5,0,0,0-5.61-17.56,80.29,80.29,0,0,0-8-16,29.82,29.82,0,0,0-5.45-6.25,14,14,0,0,0-3.06-2,7.81,7.81,0,0,0-3-.75Z"/><path class="cls-2" d="M744.09,407.63a185.35,185.35,0,0,1-6.51,48.23,156,156,0,0,1-20.1,44.23A128,128,0,0,1,702.12,519a107.57,107.57,0,0,1-18.89,15.28,91.55,91.55,0,0,1-22.05,10.12,82.29,82.29,0,0,1-47.95,0,90.93,90.93,0,0,1-22.07-10.11A107.92,107.92,0,0,1,572.24,519a127.84,127.84,0,0,1-15.4-18.86,155.77,155.77,0,0,1-20.15-44.24,178.49,178.49,0,0,1-4.85-23.9,180.57,180.57,0,0,1,0-48.71,174.16,174.16,0,0,1,4.89-23.91,156.23,156.23,0,0,1,20.18-44.21,127.7,127.7,0,0,1,15.39-18.85,108,108,0,0,1,18.92-15.23,91.26,91.26,0,0,1,22-10.07,81.53,81.53,0,0,1,47.87,0,90.94,90.94,0,0,1,22,10.09A107.35,107.35,0,0,1,702,296.35a127.5,127.5,0,0,1,15.36,18.85,155.89,155.89,0,0,1,20.13,44.2A185.4,185.4,0,0,1,744.09,407.63Zm-2.14,0a182.57,182.57,0,0,0-6.25-47.71A155.17,155.17,0,0,0,716.24,316a125.92,125.92,0,0,0-15-18.82,105.92,105.92,0,0,0-18.57-15.28,89.35,89.35,0,0,0-21.76-10.1,79.65,79.65,0,0,0-47.4,0,89.55,89.55,0,0,0-21.75,10.12,104.61,104.61,0,0,0-18.54,15.29,125.29,125.29,0,0,0-15,18.82,154.69,154.69,0,0,0-19.38,44,177.56,177.56,0,0,0-4.67,23.63,185.13,185.13,0,0,0,0,48.08,176.53,176.53,0,0,0,4.67,23.58,154.2,154.2,0,0,0,19.44,43.88,124.5,124.5,0,0,0,15,18.8,104.2,104.2,0,0,0,18.56,15.27,90.28,90.28,0,0,0,21.74,10.08,79.08,79.08,0,0,0,47.32,0,90.12,90.12,0,0,0,21.75-10.07A104.68,104.68,0,0,0,701.18,518a125.67,125.67,0,0,0,15-18.79,155,155,0,0,0,19.49-43.9A182.37,182.37,0,0,0,742,407.63Z"/><path class="cls-2" d="M637.21,551.63a86.42,86.42,0,0,1-25-3.73,94.05,94.05,0,0,1-23-10.51,111.35,111.35,0,0,1-19.58-15.78,131.12,131.12,0,0,1-15.84-19.41,158.83,158.83,0,0,1-20.64-45.29,180.1,180.1,0,0,1-5-24.44,183.94,183.94,0,0,1,0-49.68,179.68,179.68,0,0,1,5-24.41,159.08,159.08,0,0,1,20.63-45.27,131.49,131.49,0,0,1,15.83-19.4A111.11,111.11,0,0,1,589.27,278a94.41,94.41,0,0,1,22.94-10.47,85.21,85.21,0,0,1,50,0A95.24,95.24,0,0,1,685.11,278a111.09,111.09,0,0,1,19.55,15.77,131.93,131.93,0,0,1,15.8,19.4,158.91,158.91,0,0,1,20.61,45.25,188,188,0,0,1,6.68,49.2h0a188,188,0,0,1-6.64,49.2,158.69,158.69,0,0,1-20.59,45.29,130.42,130.42,0,0,1-15.8,19.42,112,112,0,0,1-19.54,15.79,94.83,94.83,0,0,1-22.95,10.53A87,87,0,0,1,637.21,551.63Zm0-279.75a78.76,78.76,0,0,0-22.61,3.46,85.78,85.78,0,0,0-20.86,9.71,100.52,100.52,0,0,0-17.9,14.75,122.38,122.38,0,0,0-14.54,18.27,150.62,150.62,0,0,0-18.94,42.86,173.25,173.25,0,0,0-4.52,23.14,180.41,180.41,0,0,0,0,47.12,171.73,171.73,0,0,0,4.59,23.13,150.6,150.6,0,0,0,19,42.83A120.58,120.58,0,0,0,576,515.4a101,101,0,0,0,17.87,14.73,86.07,86.07,0,0,0,20.84,9.67,75.53,75.53,0,0,0,45.18,0,86.35,86.35,0,0,0,20.86-9.66,100.71,100.71,0,0,0,17.9-14.72,122.4,122.4,0,0,0,14.56-18.24,150.6,150.6,0,0,0,19-42.85,181.25,181.25,0,0,0,0-93.46,150.84,150.84,0,0,0-19-42.87,122.07,122.07,0,0,0-14.57-18.27A101.62,101.62,0,0,0,680.71,285a85.55,85.55,0,0,0-20.87-9.68,78.36,78.36,0,0,0-22.65-3.43Z"/><path class="cls-2" d="M512.48,352.11l32.1-.26,32.1-.15,64.19-.12,64.2.14,32.1.16,32.09.28a.09.09,0,0,1,.1.08h0a.1.1,0,0,1-.1.1l-32.09.28-32.1.16-64.2.13-64.19-.12-32.1-.15-32.1-.26a.35.35,0,0,1-.14-.06C512.35,352.17,512.41,352.11,512.48,352.11Z"/><polygon class="cls-2" points="640.88 356.6 544.57 356.34 510.93 356.06 508.68 353.81 508.68 352.17 508.76 348.57 512.46 348.43 576.66 348.02 640.87 347.9 737.19 348.2 772.93 348.51 773.03 355.93 769.26 356.03 705.09 356.47 640.88 356.6"/><path class="cls-2" d="M549.72,298.14c7.6-.12,15.19-.17,22.79-.26l22.79-.15c7.59-.06,15.19-.05,22.79-.07h22.75l45.58.13,22.79.16c7.6.09,15.19.15,22.79.28h.09c0,.11,0,.15-.09.15-7.6.13-15.19.18-22.79.28l-22.79.16-45.58.18H618.06c-7.6,0-15.2,0-22.79-.08l-22.79-.15c-7.6-.08-15.19-.14-22.79-.26a.14.14,0,0,1-.14-.14h0a.14.14,0,0,1,0-.2.14.14,0,0,1,.2,0Z"/><path class="cls-2" d="M640.89,302.63H612.17c-5.63,0-11.27,0-16.9-.07l-30.39-.23c-5.07,0-10.14-.09-15.22-.17l-3.61-.06-.14-7.45,3.75-.14c4.91-.08,9.82-.12,14.73-.17l30.89-.24c5.34,0,10.69,0,16-.06l29.56,0,76.69.39c4.84,0,9.69.1,14.53.19l3.73.06-.16,7.39-3.63.1c-5,.09-10.09.14-15.16.19l-30.4.25Z"/><path class="cls-2" d="M501.33,406.08l34.89-.26,34.88-.15,69.77-.12,69.78.13,34.88.17,34.89.28a.09.09,0,0,1,.09.09.1.1,0,0,1-.09.1l-34.89.28-34.88.16-69.78.13-69.77-.12-34.88-.15-34.89-.26a.14.14,0,0,1,0-.28Z"/><polygon class="cls-2" points="640.88 410.57 536.2 410.3 497.66 410.01 497.52 402.54 501.3 402.4 571.09 401.99 640.87 401.87 745.55 402.16 781.98 402.46 784.2 404.72 784.06 409.9 780.42 410 710.66 410.44 640.88 410.57"/><path class="cls-2" d="M512.48,460.05l32.1-.26,32.1-.15,64.19-.12,64.2.13,32.1.16,32.09.28h.1c0,.1,0,.14-.1.14l-32.09.28-32.1.17-64.2.13-64.19-.12-32.1-.15-32.1-.26a.14.14,0,0,1-.14-.14h0A.14.14,0,0,1,512.48,460.05Z"/><polygon class="cls-2" points="640.88 464.54 544.57 464.27 510.93 464 508.68 461.75 508.68 460.1 508.76 456.5 512.45 456.37 576.66 455.96 640.87 455.84 737.19 456.13 772.93 456.44 773.03 463.87 769.26 463.97 705.09 464.41 640.88 464.54"/><path class="cls-2" d="M736.62,514.65H554.31a.49.49,0,0,1-.49-.49.51.51,0,0,1,.49-.5H736.62a.51.51,0,0,1,.49.5A.49.49,0,0,1,736.62,514.65Z"/><path class="cls-2" d="M736.62,518.33H554.32a4.18,4.18,0,0,1,0-8.35h182.3a4.18,4.18,0,0,1,0,8.35Z"/><path class="cls-2" d="M640.84,554.52c-82.66,0-149.92-66.52-149.92-148.29S558.2,258,640.84,258s149.92,66.51,149.92,148.27S723.53,554.52,640.84,554.52Zm0-283.41c-75.41,0-136.76,60.62-136.76,135.12s61.37,135.13,136.76,135.13S777.6,480.74,777.6,406.23,716.27,271.11,640.84,271.11Z"/><path class="cls-2" d="M785,286.26h-43V275.11l14.28-20.2q4.34-6,8.07-12.39a38.06,38.06,0,0,0,3.24-7.74,28.72,28.72,0,0,0,1-7.66q0-4.6-2.06-6.92a6.88,6.88,0,0,0-5.35-2.3,10.22,10.22,0,0,0-5.44,1.54,30.29,30.29,0,0,0-6.15,5.54l-8.34-8.78q5.76-6.54,10.7-9a24.05,24.05,0,0,1,10.71-2.42q9.72,0,15.18,5.71t5.47,15.87a37.72,37.72,0,0,1-1,8.73,41.22,41.22,0,0,1-3,8.26,69.77,69.77,0,0,1-5,8.62q-3,4.49-15.59,20.51V273H785Z"/><path class="cls-2" d="M840.34,269.4h-8.13v16.86H818.15V269.4H792V257.27L816.23,206h16v51.07h8.13Zm-22.19-12.35V240.14l.28-7.47.38-7.14h-.44a95.11,95.11,0,0,1-4.17,10.82l-9.67,20.7Z"/></g></g></g></g></g></g></svg>