<svg xmlns="http://www.w3.org/2000/svg" viewBox="0 0 2934.1 1155.73"><defs><style>.cls-1{fill:#4a75cb;}.cls-2,.cls-3{fill:#395b8e;}.cls-2,.cls-4{opacity:0.4;}.cls-5{fill:#82b378;}.cls-6{fill:#a8d29f;}.cls-7{fill:#25436d;}.cls-8{fill:#2e3552;}.cls-9{fill:#fdd949;}.cls-10{fill:#d16e24;}.cls-11{fill:#f1e30a;}.cls-12{fill:#723b17;}.cls-13{fill:#ddb327;}.cls-14{fill:#ffe747;}.cls-15{fill:#b7591a;}.cls-16{fill:#fee04c;}.cls-17{fill:#233862;}.cls-18{fill:#2a4e96;}.cls-19{fill:#ed975d;}.cls-20{fill:#ffb27d;}.cls-21{fill:#f9c80e;}.cls-22{fill:#f9f5c1;}.cls-23{fill:#fcf860;}.cls-24{fill:#faf791;}.cls-25{fill:#c7dcef;}.cls-26{fill:#e9f3fe;}.cls-27{fill:#699dee;}.cls-28{fill:#e8d743;}.cls-29{fill:#ffe715;}.cls-30{fill:#ffe01b;}.cls-31{fill:#a9453d;}.cls-32{fill:#7f2722;}.cls-33{fill:#601d1b;}.cls-34{fill:#b5453c;}.cls-35{fill:#c65447;}.cls-36{fill:#fbff85;}.cls-37{fill:#ff0;}.cls-38{fill:#e2915a;}.cls-39{fill:#ffc697;}.cls-40{fill:#f1a34f;}.cls-41{fill:#466aa5;}.cls-42{fill:#ffea00;}.cls-43{fill:#fa0;}.cls-44{fill:#ffc300;}.cls-45{fill:#406dc0;}.cls-46{fill:#426fc2;}.cls-47{fill:#a54e13;}</style></defs><g id="Capa_2" data-name="Capa 2"><g id="_Layer_" data-name="&lt;Layer&gt;"><path class="cls-1" d="M2686.56,1148.28l-1802.73-.56-696.53-.21s-38-93.88-50-217.6C124.6,799.1,140.89,634.93,261.68,513,497.41,275.15,495.57,173.77,614.27,91.33c8.43-5.86,17.49-11.62,27.27-17.33,29.6-17.28,66-34.07,112.62-51.53,113.39-42.45,229.23-18,364,17.46q14.53,3.8,29.36,7.78c101.68,27.12,214.36,58,344.67,70.1l.3,0a1190.32,1190.32,0,0,0,205.67,1.44C2037.78,92.16,2595.54,90,2476.54,569.65c-.63,2.55-1.24,5.09-1.81,7.58C2393.1,931.7,2934.1,752.57,2686.56,1148.28Z"/><path class="cls-2" d="M2476.54,569.65c-.63,2.55-1.24,5.09-1.81,7.58-23.42-.74-50.22-5.19-80.88-13.89,0,0-301.64-386.38-901.36-445.51a1190.32,1190.32,0,0,0,205.67,1.44C2037.78,92.16,2595.54,90,2476.54,569.65Z"/><path class="cls-2" d="M677.37,570.54c.22-2.72,1.61-25.92-12.06-35a22,22,0,0,0-7-3.26,30.08,30.08,0,0,0-3.53-1.6c-5.3-6.48-10.39-10.76-14.55-11.69-7.58-1.71-15.45.26-20.77,2.23A9.52,9.52,0,0,1,623,518c-3.51.53-10,6.15-10,6.15-38.69-2.77-41.23,35.51-37.55,61.92H682.91C681.33,580.88,679.46,575.65,677.37,570.54Z"/><path class="cls-3" d="M1915,727.93c-11.25-33.71-81.34-23.18-81.34-23.18s-47.6,59-61.44,60.4,28.55-56.88,28.55-56.88c-19.36-1.53-60.4,12-81.71,19.59l41.31,103.35c15,1,25,9.53,40.93,15.86-6.23-.45-13.11-.56-19.64-.49a150.23,150.23,0,0,0-16.16-2.53l40,100c20-.45,43.69-21.64,43.69-21.64-16.77-.7-40.73-15.49-39.87-20s40.67,7.81,47.48,8.39,22.28-6.27,24.67-28.52-42.52-28.46-42.52-28.46-10.37,6.26-22.07,12.56c-2.31-2.44-6.06-5.12-10.44-8.13,3.86-2.78,7.34-5.16,9.5-6.63a103.72,103.72,0,0,0,14.3,2.1c36.34,2.8,64-52.69,64-52.69-25.09,6.33-70.09-4.91-71.82-11.94s64.9-6.32,75.28-8.43S1926.2,761.65,1915,727.93Z"/><g class="cls-4"><path class="cls-3" d="M962.87,586.1H778.64A271.64,271.64,0,0,1,757.13,534c-2.59-8.5-3.65-13.72-3.71-14v0c5.89-27.71,73.37-70.25,89.73-77.89.69-.32,1.53.11,2.4,1,.23-.49.51-1.06.82-1.68,2.18-4.31,6.37-11.17,11.63-12.8,7.8-2.43,23.2-4,24.16-.74s-19.29,15-20.17,18.76c-1.17,5-7.51,7.29-9.81,8l.5,1.16-50.58,66.4c38.77,36.77,51.15,61.2,60.43,59.2,8.94-1.92,39.09,4.23,41.46,4.72.71-.17,1.41-.33,2.15-.47A99.37,99.37,0,0,0,909,548.71c-.75.59-12,5.41-39.21-35.67-4.3-6.46-8.46-21.08-2-35.22s33.78-28,57-35.34c8.69-2.77,15.16-2.71,20.22-.89,8.45,3,13,11,17.52,18.92,7.57,13.4,25.93,22.94,25.93,22.94-6.41,4.67-13.67,6.27-20.8,6.47,6.43,19.69,13.28,58.66,2.39,63.44a97.62,97.62,0,0,1-9.87,2.86c.07,1.21.59,8.9,2,21.74.15,1.41.31,2.9.49,4.42A37,37,0,0,1,962.87,586.1Z"/><path class="cls-3" d="M1075.55,586.1H971c9.64-4,24.56-9.81,30.75-9.85,9.51-.07,16.29-26.6,46.13-70.92h0L984.11,451.5s.08-.48.23-1.23c-2.38-.16-9.07-1-11.3-5.65-1.68-3.5-24-10.54-23.76-13.94s15.6-5.19,23.74-4.52c6.28.53,12.68,8,15.29,11.45.66-1.05,1.38-1.66,2.13-1.5a232.18,232.18,0,0,1,25.5,8.09c29,10.7,70.51,29.86,79,48.46C1094.93,492.66,1096,537.06,1075.55,586.1Z"/><path class="cls-3" d="M959,448.52a.43.43,0,0,0-.12-.16Z"/></g><path class="cls-3" d="M883.83,1147.72l-696.53-.21s-38-93.88-50-217.6c114.28-159.21,340.85-339.3,340.85-339.3S788.07,991.84,883.83,1147.72Z"/><path class="cls-5" d="M1814.06,962.26s-30.23-35.27-1.86-57.67c0,0,20.72-12.54,37.61-11.52,0,0-23.94,40.14-16.19,44.13s23.45-46.65,23.45-46.65,47.15-4.58,62.31,2.72c0,0-40.3,33-31.82,35s52-30.42,52-30.42,43.89,7.47,41.54,34.24-17.46,35-24.1,34.33-45.52-15.55-46.37-10.11,22.55,23.24,38.94,24.07c0,0-30.94,34.12-51.5,24.28s-22.32-25.46-35.13-31.31-23.76-5.84-18.47.13,28.49,11.77,35.82,24.74,13.9,21.71-7.37,18.51-55.85-18.77-57.37-36.6Z"/><path class="cls-5" d="M1959.57,932.76s-119.19-4.59-145.51,29.5c0,0-5.82,17.43-23.73,33.31l-2.8,7.61s20.66-21.78,28-23.1C1815.58,980.08,1804,937.85,1959.57,932.76Z"/><path class="cls-5" d="M1790.33,995.57s-25.59,18.92-27.37,52.73l4.65.41s8.17-35,22.94-48.62S1790.33,995.57,1790.33,995.57Z"/><path class="cls-6" d="M1784.87,880.77s-63.39-35.5-33.81-83.68c0,0,23.67-29.58,49-37.18,0,0-13.52,71.84,0,73.53s9.3-81.14,9.3-81.14,66.77-32.12,93-29.58c0,0-41.41,70.15-27.89,68.46s60-72.69,60-72.69,68.46-12.67,79.44,27.89-6.76,60.86-16.9,63.39-75.22,1.69-73.53,10.14,45.64,22,70.15,14.37c0,0-27.05,66.77-62.54,63.39s-46.49-25.35-68.46-27-38,4.23-27.05,10.15,48.18,1.94,65.92,17,32.12,24.39-.84,31.15-92.12,2.54-104-22.82Z"/><path class="cls-5" d="M1982.64,759.06s-177.49,57.47-197.77,121.71c0,0,.84,28.73-16.9,61.7v12.67s18.59-43.1,28.73-49C1796.7,906.12,1757,850.34,1982.64,759.06Z"/><path class="cls-5" d="M1768,942.47s-27.38,41.56-11.77,92.16l7-1.89s-6.83-55.73,7.49-83.76S1768,942.47,1768,942.47Z"/><path class="cls-7" d="M1906.84,1024h2.89v-3.81H1654.48V1024h4.15a124.22,124.22,0,0,0,77.62,111.36h-64.08a15.31,15.31,0,0,0-15.32,15.32h251.77a15.31,15.31,0,0,0-15.32-15.32h-64.09A124.21,124.21,0,0,0,1906.84,1024Z"/><rect class="cls-8" y="1143.41" width="2934.1" height="12.31" rx="4.18"/><path class="cls-9" d="M1715.41,1145H1572.27l.11-3.55,11.09-339.12S1720,765,1754.35,800.51c30,31.11,111.54,154.24,115.83,227.12C1874.35,1098.44,1796,1145,1715.41,1145Z"/><path class="cls-10" d="M922.13,838.62s184.74-83.92,219.73-29.1c18.58,29.11,69.7,145.23,73.48,218.11,3.67,70.81-65.26,117.38-136.17,117.38H953.23Z"/><path class="cls-11" d="M557.88,580.45s830.13-7.3,921.82-7.1c47.16.1,28.83,40.58,41.83,84,28.7,95.8,66.38,219,60.39,240.32C1573.38,928,743.11,936.5,720.34,929.5S557.88,580.45,557.88,580.45Z"/><path class="cls-12" d="M1245.18,573.31s-109.68,79.47-91.94,257.63L1418,839Z"/><path class="cls-12" d="M1485.05,573.31S1369.12,614,1393.11,830.94L1657.84,839Z"/><path class="cls-12" d="M737.8,641.88s3.12-45.1-7.77-41.21-80.1,66.87-69.21,215.4l31.88,27.22,243.4-40.44Z"/><path class="cls-12" d="M890.38,578.27s-66.27,56.9-66.47,244.64l8,82.37h415.93L1048,576.68Z"/><path class="cls-13" d="M1715.41,1145H1572.27l.11-3.55c4.66-3.41,13.45-7.68,27.66-13.18,79.55-30.76,189.77-100.22,189.77-100.22s40.39,21.14,80.37-.42C1874.35,1098.44,1796,1145,1715.41,1145Z"/><path class="cls-14" d="M1789.81,1028.05c-11.88,109.17-130.71,118.39-210.54,117.3l-789.09.13,13.39-74.71,40.77-227.48s821.05-28.08,855.19,3.2c15.85,14.52,87.83,87.19,91,153.6A179.48,179.48,0,0,1,1789.81,1028.05Z"/><path class="cls-15" d="M1700.88,856s-2.9,20.42-77.39,18.92-156.87-4.67-167.85-4.9,129.59-87,178.43-70.47S1700.88,856,1700.88,856Z"/><path class="cls-16" d="M1549.68,485c-13.14-6.68-35.33-23.8-53.33-19-3.8-9-12.64-22.31-31.42-20.19-28,3.17-26.69,28.05-26.69,28.05s2.87-12.59,8-14.14c0,0-8.45,15.95-4.53,25.29a19,19,0,0,0,23.88,10,66.33,66.33,0,0,0-5.68,17.23c-5.44,28.15,16.85,52.07,26.39,46.63,6.12-3.49,60.17-20.66,60.17-20.66C1557,510.63,1567.73,499.5,1549.68,485Z"/><path class="cls-17" d="M1600.88,805.94s-.5,7.46-6.23,11.27-9.25,11.53,1.6,20.19,22.12,23.28,29.11,28.57,17.27,8.18,19.82,2c0,0,.92-5.06-7.86-13.92s-8-16.05-11.43-26.35,4.75-33.47,4.75-33.47L1615.3,780.9Z"/><path class="cls-18" d="M1638.5,869c-2.84,3.31-9.13,5.52-15,5.93-6.19.42-17.07-1.26-27.82-2.07a111,111,0,0,0-12.89-.35c-13.88.61-16.28-7.53-14.48-14.17s-2.71-12.58-2.71-12.58l-.58-3-5-25.4h20.36s5.82,14.71,13,23.37a21.32,21.32,0,0,0,5.44,5c5.82,3.43,9.62,7,14.67,9.47a29.82,29.82,0,0,0,11.25,2.89c12.44.9,15.08,5.32,15.08,5.32A5.48,5.48,0,0,1,1638.5,869Z"/><path class="cls-18" d="M1563.25,576.06s-42.26-1.06-70.08,8.48c0,0-28.29,8.5-42.53,16a14.45,14.45,0,0,0-7.64,11.87c-1.5,22.49-2,92.4,47.18,114.68,0,0,81.24-31.15,94.18-35.45C1618.85,680.21,1563.25,576.06,1563.25,576.06Z"/><path class="cls-19" d="M1533.29,574.89s0,.05,0,.13a70,70,0,0,1-9.83,25.17,34,34,0,0,1-6.88-2.05c-11.18-4.56-20.74-14-20.76-15a139.24,139.24,0,0,0,.82-24.17l2.06.33,31.78,5.17A83,83,0,0,0,1533.29,574.89Z"/><path class="cls-20" d="M1533.27,575a70,70,0,0,1-9.83,25.17,34,34,0,0,1-6.88-2.05,34.88,34.88,0,0,1-.81-5.95C1515.36,581.87,1530,576.16,1533.27,575Z"/><path class="cls-19" d="M1538.83,574.87s-1.9.07-4.93-.06c-11.84-.53-41-4.14-41.41-26.85-.55-28.53-6.84-47.53,22.37-49.75,9.16-.7,16-.12,21.21,1.29,11.35,3.1,14.67,10.22,16.39,16.72C1555,525.7,1550.72,573.72,1538.83,574.87Z"/><path class="cls-20" d="M1538.83,574.87s-1.9.07-4.93-.06c-10.75-1.12-22.2-8.1-22.09-29.06.16-28.62,4.57-40.9,24.26-46.25,11.35,3.1,14.67,10.22,16.39,16.72C1555,525.7,1550.72,573.72,1538.83,574.87Z"/><path class="cls-19" d="M1480.5,576.78s-24.61,27-16.17,48.74S1494.56,589.26,1480.5,576.78Z"/><path class="cls-20" d="M1592.32,559.09s13.75,47.13-4,53.16S1585.51,563.52,1592.32,559.09Z"/><path class="cls-21" d="M1551,506.77s-8.9,23.75-22.17,22.55c-14-1.27-23.75,18.63-25.18,15.83-4.07-7.95-9.5-7.39-10.71-2.86s4.16,10.83,3.86,14.75-.22,9.67-.22,9.67-28.37-4-22-28.39,18.4-45.84,18.4-45.84,24-4.16,31.67-3.27C1545.46,491.62,1551,506.77,1551,506.77Z"/><path class="cls-22" d="M1757.8,841.91c-2.71,13.53-92.17,21.7-127,6.07-11.3-5.06-21.24-6-30.65-4.79-19.61,2.57-37,14.7-59.87,19.23-33.88,6.69-177.67,22.09-187.31-4.08s-5.24-54.78,25.2-71.81c17.88-10,30.48-47.64,37.83-77,3.23-12.88,5.45-24.16,6.66-30.81.73-4,1.09-6.32,1.09-6.32,1.1-3.62,13.19-45.28,39.13-63.38,9.73-6.78,17-16.33,23.12-25.48,10.17-15.25,17-29.41,26.34-27.9,8.64,1.42,15.06,5.24,21,6.61a14.52,14.52,0,0,0,13-2.74c6.11-4.61,11.08-11.08,16.73-13.59,4.38-2,9.18-1.54,15.23,3.94,11.42,10.33,13.67,56.34,20.82,73.69a23.16,23.16,0,0,0,1.54,3.15c1.16,1.93,2.45,3.14,3.91,3.44a7.77,7.77,0,0,0,1.79.13c3.88-.07,9.81-2.1,16.93-4.83l.27-.1c14.84-5.71,34.74-14.36,51.67-14.62a42.05,42.05,0,0,1,6.09.3,33.19,33.19,0,0,1,7.1,1.62C1715.58,622.32,1760.52,828.38,1757.8,841.91Z"/><path class="cls-20" d="M1592.32,559.09a18.1,18.1,0,0,0-15.17-7.92c-10.16.23-12.35,5.07-13.18,6.49s6.15,10.93,13.18,9.79,13.36,3.58,15.17.1S1592.32,559.09,1592.32,559.09Z"/><path class="cls-23" d="M1679.55,611s-17,5.15-24.94,26.41c-7,19-43.79,25.37-53.93-10.73,1.16,1.93,2.45,3.14,3.91,3.44a7.77,7.77,0,0,0,1.79.13c3.73.13,9.7-2,16.93-4.83l.27-.1c14.85-5.9,34.93-14.94,51.67-14.62a37.33,37.33,0,0,1,4.28.3Z"/><path class="cls-24" d="M1416,709.55c5.17-20.61,7.75-37.13,7.75-37.13,1.1-3.62,13.19-45.28,39.13-63.38,9.73-6.78,17-16.33,23.12-25.48,13.71-5.21,22.88-8.21,22.88-8.21S1539,751.73,1416,709.55Z"/><path class="cls-20" d="M1495.67,585.15c-3.28-.53-6.42.22-9,.81-3,.66-5.2,1.13-6.16-.72-1.81-3.48,0-8.46,0-8.46a18.18,18.18,0,0,1,13.81-7.9c.44,0,.9,0,1.36,0,10.16.22,12.35,5.06,13.18,6.48S1502.7,586.28,1495.67,585.15Z"/><path class="cls-23" d="M1563.09,545.94s-1.79,29-29.74,16.33a14.52,14.52,0,0,0,13-2.74C1552.47,554.92,1557.44,548.45,1563.09,545.94Z"/><path class="cls-17" d="M1638.5,869c-2.84,3.31-9.13,5.52-15,5.93-6.19.42-17.07-1.26-27.82-2.07a111,111,0,0,0-12.89-.35c-13.88.61-16.28-7.53-14.48-14.17s-2.71-12.58-2.71-12.58l-.58-3c13-8.92,22.72-5.78,28.33-2a22.88,22.88,0,0,1,5.44,5s-.32,12.28,9.63,15.76S1632,872.21,1638.5,869Z"/><path class="cls-24" d="M1600.12,843.19c-19.61,2.57-37,14.7-59.87,19.23-33.88,6.69-177.67,22.09-187.31-4.08s-5.24-54.78,25.2-71.81c17.88-10,30.48-47.64,37.83-77,3.23-12.88,5.45-24.16,6.66-30.81,11.79-4.53,22.36-4.63,36.44-2.59,29.62,4.28,36.74,11.44,36.74,11.44s-17.41,42.19-5.63,39.53,78.49-29.25,97.91,7.27C1605.59,767.29,1622.67,822.34,1600.12,843.19Z"/><path class="cls-19" d="M1486.66,586c-3,.66-5.2,1.13-6.16-.72-1.81-3.48,0-8.46,0-8.46a18.18,18.18,0,0,1,13.81-7.9S1485.33,578.28,1486.66,586Z"/><path class="cls-9" d="M1789.81,1028.05c-11.88,109.17-130.71,118.39-210.54,117.3l-789.09.13,13.39-74.71c111.33.61,731.18,3.89,866.45,1.56C1754.55,1070.88,1781.94,1047.75,1789.81,1028.05Z"/><path class="cls-25" d="M1487.41,822s2.26,7.12-1.67,12.76-4.4,14.12,8.86,18.22,29.09,13.59,37.53,16,19.07,1.31,19.2-5.34c0,0-1-5-12.41-10.09s-13.29-12-20.25-20.35-7.8-32.9-7.8-32.9l-19.18-6.84Z"/><path class="cls-26" d="M1537.69,871.47h0a28.41,28.41,0,0,1-11.74,3.32c-8.74.61-26.84-3-40.71-2.4s-16.28-7.55-14.47-14.18-2.72-12.59-2.72-12.59l-1-5.13-4.57-23.22h20.36s6.14,15.51,13.54,24.05a28.24,28.24,0,0,0,2.05,2.15,16.49,16.49,0,0,0,2.82,2.15c9.36,5.51,13.48,11.46,25.92,12.36s15.08,5.33,15.08,5.33C1543.33,866.61,1541.22,869.44,1537.69,871.47Z"/><path class="cls-19" d="M1451,568.43c.51,9.24-33,59.44-50.58,75.7-3.2,3-5.87,4.78-7.73,5-12.06,1.74-23.58-35.21-23.58-35.21s20.85-28.5,41.9-48.11c8.13-7.6,16.3-13.86,23.3-16.62a48.65,48.65,0,0,1,7.08,4.67C1445.8,557.37,1450.69,562.51,1451,568.43Z"/><path class="cls-17" d="M1353,514.82c-7.16-7.66-35.31-35.45-54.48-21.78l-.47,0c-19.14-.33-41.47,4.76-49.22,42.21s3.69,55.48-19.37,67.46-20.87,27.3-18,42.46c0,0,12.16-21.61,23.41-17.84,0,0-17.75,17.18-18,30.93s12.55,28.09,19.53,33.66c0,0,7.77-7.16,19.69-2.85,24,8.69,62-26,61-42.62-.54-8.1,40-85.71,40-85.71C1367.53,533.17,1360.28,521,1353,514.82Z"/><path class="cls-18" d="M1300.92,621.32s-42.5,12.77-49.55,20.86c0,0,30.51,96.7,57.65,103,16.29,3.77,70.15-12.42,83.08-16.72C1426.6,717,1371,612.83,1371,612.83S1328.74,611.78,1300.92,621.32Z"/><path class="cls-19" d="M1451,568.43s-11.38-.71-25.49-1.62l-14.5-.95c-17.75-1.19-35.32-2.42-38.27-2.88l-3.62-14.44s59.26-13.82,68.61-9.53c6.38,2.92,10.2,6.58,12.39,10.31C1455.63,558.64,1451,568.43,1451,568.43Z"/><path class="cls-20" d="M1332.75,633.73a84.56,84.56,0,0,1-16.74-4c-9.88-3.47-15.72-7.7-15.09-8.42,3.06-3.48,7.25-13,6.24-39.86l2.06.33L1341,587l3,.49s-.17,4.27-.2,10c0,3.41,0,7.33.11,11.17.28,8.6,2,16.55,3,18.47C1348.16,629.36,1357.78,637.07,1332.75,633.73Z"/><path class="cls-19" d="M1343.83,597.44s-25.84,9.39-27.82,32.3c-9.88-3.47-15.72-7.7-15.09-8.42,3.06-3.48,7.25-13,6.24-39.86l2.06.33L1341,587A84.58,84.58,0,0,0,1343.83,597.44Z"/><path class="cls-19" d="M1349.37,597.42s-1.9.06-4.93-.07c-11.84-.53-41-4.14-41.41-26.85-.55-28.52-6.84-47.52,22.37-49.75,9.16-.7,16-.12,21.21,1.29,11.35,3.11,14.67,10.22,16.39,16.72C1365.49,548.25,1361.26,596.27,1349.37,597.42Z"/><path class="cls-20" d="M1451,568.43c.51,9.24-33,59.44-50.58,75.7-7.68-8-10.63-20.76-10-31.33,0,0,15.24-26.53,35.14-46a99,99,0,0,1,15.88-12.9,55.08,55.08,0,0,1,8.73-4.59C1455.63,558.64,1451,568.43,1451,568.43Z"/><path class="cls-20" d="M1349.37,597.42s-1.9.06-4.93-.07c-10.75-1.11-22.2-8.09-22.09-29.06.16-28.62,4.57-40.9,24.26-46.25,11.35,3.11,14.67,10.22,16.39,16.72C1365.49,548.25,1361.26,596.27,1349.37,597.42Z"/><path class="cls-18" d="M1353.82,613.09s21.62-15,28.22-15.65c0,0,26.5,21.85,19.71,50.95s-43-9.13-43.2-10S1353.82,613.09,1353.82,613.09Z"/><path class="cls-27" d="M1306.94,650.15s80.94-1.61,122.22,3.57c0,0,20.63,33.15,1.56,100.46,0,0-66.4,9.3-97.64,7,0,0-12.7-31.33-16.07-65S1306.94,650.15,1306.94,650.15Z"/><path class="cls-1" d="M1306.94,650.15s-6.19,28.07-2.69,58.5c3.24,28.22,28.83,52.5,28.83,52.5S1325.67,673.2,1306.94,650.15Z"/><path class="cls-19" d="M1291.88,767.7a179,179,0,0,0,79.11-33l-7.3-18.11s-39.23,4.55-67.55,17.76v0c-.6-31-5.26-73.25-8.56-78.6l-.16-.24c-5.68-8.37-36-13.34-36-13.34s-17.32,59.09,16.5,127.08h0a109,109,0,0,0,16.79-.64c2.5-.23,5-.52,7.15-.91Z"/><path class="cls-28" d="M1311.33,807s43.25,60,90.74,52.49,100.42-193.88,100.42-193.88-21.71-31-61.06-9.85S1311.33,807,1311.33,807Z"/><path class="cls-28" d="M1445.85,660.54s32.36,168.11,46,172.49c14.33,4.59,28.11-4.83,28.11-4.83s14.15-169.61-34.73-175S1445.85,660.54,1445.85,660.54Z"/><path class="cls-20" d="M1296.14,734.36v0c-12.88-10.79-20.61-63.91-20.61-63.91s1.84-13,11.9-15l.16.24C1290.88,661.11,1295.54,703.34,1296.14,734.36Z"/><path class="cls-29" d="M1478.74,665.61s-9.08,32-23.1,70c-4,10.85-8.4,22.19-13.12,33.41-4.38,10.45-9,20.81-13.87,30.58-15.69,31.7-33.36,57.22-50.33,59.91a58.19,58.19,0,0,1-26-2.05c-18.6-5.57-35.17-18.75-46.89-30.23a174.14,174.14,0,0,1-17.8-20.2s65.06-93.3,108.89-134.7h0c7.93-7.5,15.16-13.29,21.19-16.53C1457,634.64,1478.74,665.61,1478.74,665.61Z"/><path class="cls-25" d="M1537.68,871.47a28.41,28.41,0,0,1-11.74,3.32c-8.74.61-26.84-3-40.71-2.4s-16.28-7.55-14.47-14.18-2.72-12.59-2.72-12.59l-1-5.13,1.89-6.2,16.82.42,10.62,6.61L1499,843s-.24.17-.62.49c-2,1.68-7.65,7.42-2.71,14,5.88,7.79,21.59,9.74,26.17,12.61S1534.87,871.84,1537.68,871.47Z"/><path class="cls-19" d="M1369.13,548.54s-18.62-2.74-23.85-1.52-23.43,8.9-22.54,12.44,14.58,9.84,20.17,8.7,10.13-.52,17.28-2.1,12.56-3.08,12.56-3.08Z"/><path class="cls-17" d="M1369.13,548.54c-4.36.59-11.62-4.36-14-11.59-1.78-5.31-7.39-10.65-10.23-13.11-.85,3.39-9.49,35.52-32.29,46.57a106.74,106.74,0,0,0,18-22.77c-4.36,5.14-9.53,9.4-15.37,11-16,4.41-24.49,1.68-26.88.64-.48-.21-.71-.34-.71-.34a54.45,54.45,0,0,0,17.22-32.52s13.51-18,41-7.35c3-2.63,8.26-4.59,15.49,3.84a19.48,19.48,0,0,1,2.5,3.71C1370.62,539.61,1369.13,548.54,1369.13,548.54Z"/><path class="cls-18" d="M1291.46,675.87s-28.36,3.88-48.26-17.16c0,0,3.64-13.08,8.17-16.53s36.55-.2,40.09,9.07S1291.46,675.87,1291.46,675.87Z"/><path class="cls-30" d="M1455.64,735.58c-4,10.85-8.41,22.19-13.12,33.41-4.38,10.45-9,20.81-13.87,30.58-18.07-50.8,3.9-107.11,4.72-107.67Z"/><path class="cls-29" d="M1422.1,660.54s17.81,116.06,45.25,187.52c0,0,9.8,1.55,17.89,0,5.48-1,13.79-5.08,13.79-5.08s11.33-184.39-37.55-189.82S1422.1,660.54,1422.1,660.54Z"/><path class="cls-18" d="M1369.13,548.54c-4.36.59-11.62-4.36-14-11.59-1.78-5.31-7.39-10.65-10.23-13.11-.85,3.39-9.49,35.52-32.29,46.57a106.74,106.74,0,0,0,18-22.77c-4.36,5.14-9.53,9.4-15.37,11-16,4.41-24.49,1.68-26.88.64,7.17-1.19,22-4.56,28.54-12.59,8.82-10.81,23.9-27.24,29-27.62,4.31-.32,12.46,2.49,18,7.55C1370.62,539.61,1369.13,548.54,1369.13,548.54Z"/><path class="cls-18" d="M1271.57,568.29s-1.1,29.28-24.63,39.72-35.55,37.14-35.55,37.14,14.45-17.58,23.41-17.84S1289,606.35,1271.57,568.29Z"/><path class="cls-30" d="M1352.27,857.43c-18.6-5.57-35.17-18.75-46.89-30.23a174.14,174.14,0,0,1-17.8-20.2s65.06-93.3,108.89-134.7C1395.48,673.71,1318.74,783.6,1352.27,857.43Z"/><path class="cls-17" d="M1427.17,1145.37h-38.28c-6.38-1.68-14.72-7-17.39-23.2,0,0,.93-4.64-20.31-25.06-8.61-8.28-13.51-17.69,0-29.91s17.71-51.11,17.71-51.11l23.86,47s-1.63,15.53,6.33,30.31c7,12.92,8.57,35.74,14.69,38.45C1419.44,1134.4,1429.92,1142.61,1427.17,1145.37Z"/><path class="cls-17" d="M1300.8,1096.19s1.51,15.65,10,19,22.61,10.25,34.38,15.08,29.25,3.61,24.42,15.22h-96.5s-12.67,1.54-6.64-24.63-1.63-41.26-1.63-41.26Z"/><path class="cls-18" d="M1396.62,1071.55a177.62,177.62,0,0,1-18.13.3,68.3,68.3,0,0,1-10.81-1.17,69.24,69.24,0,0,1-22.63-9.48s-6.53-99.09,4.2-167.74c0-.23.08-.45.11-.68.69-4.33.33-7.29-1-9.22-2.19-3.14-7-3.57-14.13-2.89-47,4.55-153.77,3.78-181.21-14.63-35.94-24.09,11.19-80,11.19-80s44.69-4.78,98-7.32c64.87-3.07,142.56-2.83,168.32,13.37C1430.54,792.12,1467.51,831.71,1396.62,1071.55Z"/><path class="cls-17" d="M1348.34,883.56c-2.19-3.14-7-3.57-14.13-2.89-47,4.55-153.77,3.78-181.21-14.63-35.94-24.09,11.19-80,11.19-80s44.69-4.78,98-7.32C1277.44,791.37,1354.82,857.05,1348.34,883.56Z"/><path class="cls-20" d="M1125.57,439.28s-8.37-12.44-16.51-13.12-23.53,1.13-23.75,4.52,22.08,10.43,23.76,13.94c2.73,5.68,12.16,5.68,12.16,5.68Z"/><path class="cls-20" d="M1095.15,612.53a44.46,44.46,0,0,1-30.67,4.35,63.73,63.73,0,0,1-20.86-8.64,61.45,61.45,0,0,1-8.44-6.26s.37-.54,1-1.59c3.17-5.51,12.78-25.35,8.23-57.08-.24-1.63,50.08,12.25,51.75,12.72h0s.47,7.9,2,21.93c.16,1.41.31,2.89.49,4.42C1100.08,594.82,1095.15,612.53,1095.15,612.53Z"/><path class="cls-19" d="M1096.14,556c-1.48-.14-38-2.83-29.09,43.27,2,10.25.64,15.64-2.57,17.58-4.58,2.79-13-1.48-20.86-8.64a74.4,74.4,0,0,1-7.46-7.85c3.17-5.51,12.78-25.35,8.23-57.08C1044.15,541.68,1094.47,555.56,1096.14,556Z"/><path class="cls-19" d="M1106.07,553.36a107.68,107.68,0,0,1-19.71,4.74c-16.17,2.3-37.46,1.16-44.28-18.38-11.49-32.88-26-52.53,7-66.22,17.69-7.33,29-7.79,36.76-5.1,6.71,2.33,10.7,7,13.72,11.71C1106.09,490.15,1119.44,547.49,1106.07,553.36Z"/><path class="cls-20" d="M1106.07,553.36a107.68,107.68,0,0,1-19.71,4.74c-9.95-1.85-18.86-7-22.85-18.38-11.49-32.88-26-52.53,7-66.22a100.93,100.93,0,0,1,15.32-5.1c6.71,2.33,10.7,7,13.72,11.71C1106.09,490.15,1119.44,547.49,1106.07,553.36Z"/><path class="cls-31" d="M1124.48,483.45c-19.09,13.92-45.72.55-54,4.28s-9.6,17.55-9.72,21.94-.66,8.1-11.87,5.55a5.5,5.5,0,0,0-4.07.27c-4.62,2.79,1.41,16.1,3.22,19,0,0,2.64,9.54-3,14.24-.69.56-11.88,5.54-39.22-35.67-4.3-6.47-8.46-21.08-2-35.22s33.79-28,57-35.34c8.7-2.77,15.16-2.71,20.23-.89,8.45,3,13,11,17.51,18.92C1106.13,473.9,1124.48,483.45,1124.48,483.45Z"/><path class="cls-18" d="M1185.58,809l-11.2.9-145.6,11.6s-24.79-37-32.27-99.68c-2.18-18.24-3.3-37.43-2.34-55.48,2.12-40.06,14.43-74.54,48-80.78,0,0,32.26,17.89,56,4.32,0,0,47.28,6.78,58.14,18.09,8.33,8.69,7.37,69.24,14.64,108h0v0c2.19,11.72,5.14,21.43,9.32,27.11,2.18,2.94,4.19,5.78,6.07,8.53l.25.37a204,204,0,0,1,16,27.56A20.67,20.67,0,0,1,1185.58,809Z"/><path class="cls-18" d="M1164,656.42c-78.72,74.56-65.78-66.5-65.78-66.5s30.08-13.61,39.59-13.67,16.29-26.6,46.13-70.92h0l-63.77-53.83s2.82-16.16,6.33-15.38a232.18,232.18,0,0,1,25.5,8.09c29.06,10.7,70.51,29.87,79,48.46C1231,492.66,1233.23,590.82,1164,656.42Z"/><path class="cls-20" d="M998,446.63c-1.17,5-7.51,7.29-9.8,8l-.83.21-6.1-9-.53-.79s.29-.75.83-1.91c.22-.49.5-1.06.81-1.68,2.18-4.31,6.37-11.17,11.63-12.8,7.8-2.43,23.2-4,24.16-.74S998.89,442.84,998,446.63Z"/><path class="cls-18" d="M990.4,665.29c-58.42-35-84.87-94-95.23-125A182.69,182.69,0,0,1,889.45,520c5.88-27.71,73.36-70.25,89.72-77.89.7-.32,1.53.11,2.41,1a13.61,13.61,0,0,1,1.2,1.45,60.9,60.9,0,0,1,5.43,10.06c.31.71.49,1.14.49,1.14l-50.58,66.4c38.77,36.78,51.15,61.21,60.44,59.21s41.62,4.75,41.62,4.75S1083.43,721,990.4,665.29Z"/><path class="cls-18" d="M1306.06,1102.9s-2.55.78-6.67,1.58a88.93,88.93,0,0,1-16.54,1.63c-8.43,0-21.12-3.21-21.12-3.21-46.54-148.58-27.82-188.54-26.78-197.62.11-1,0-1.57-.36-1.93-11.94-11.21-74.1-.33-136.4-9.83s-69.41-72-69.41-72l91.84-29.74s157,21.09,191.88,52.36C1332.48,862.05,1306.06,1102.9,1306.06,1102.9Z"/><path class="cls-32" d="M1081,441.59c-7.57-1.62-16.9-.39-24.59,10.24-15.67,21.71-7.23,44.33-13.26,52.17-3.36,4.38-1.56,7.16,1.68,11.49-4.62,2.79,1.41,16.1,3.22,19,0,0,2.64,9.54-3,14.24-.69.56-11.88,5.54-39.22-35.67-4.3-6.47-8.46-21.08-2-35.22s33.79-28,57-35.34C1069.51,439.71,1076,439.77,1081,441.59Z"/><path class="cls-32" d="M1095.06,448.52l-.12-.16A.43.43,0,0,1,1095.06,448.52Z"/><path class="cls-17" d="M1299.39,1104.48a88.93,88.93,0,0,1-16.54,1.63c-8.43,0-21.12-3.21-21.12-3.21-46.54-148.58-27.82-188.54-26.78-197.62C1238,921.6,1260.93,1037.23,1299.39,1104.48Z"/><path class="cls-17" d="M1378.49,1071.85a68.3,68.3,0,0,1-10.81-1.17,69.24,69.24,0,0,1-22.63-9.48s-6.53-99.09,4.2-167.74C1352.21,926,1361.92,1027,1378.49,1071.85Z"/><path class="cls-17" d="M1148.69,846.07c-26-18.93-21.06-31.74-11.41-39.07s-50.66-15.59-75-22.46-43.85-127-61.82-149.23c-12.21-15.07-47.68-54.8-71.36-81.8-1.37-1.63-12.82-15.8-13.66-33.69-.82-17.35,55.8-65.64,65.81-74,1-.82,1.5-1.25,1.5-1.25s-2-3.15-3.61-2.44c-16.44,7.46-83.84,50.18-89.72,77.89h0a0,0,0,0,0,0,0c.08.44,1.16,5.66,3.71,14.05,21.93,74.42,71.66,120.84,82.27,127.66,11.27,7.24,11.22,22.32,11.22,22.32-2.27,67.51,31.53,128.85,45.18,150.74,5.88,18.88,22.35,52,66.35,58.73,62.3,9.5,124.46-1.38,136.4,9.83.39.36.47,1,.36,1.93C1241.5,879.91,1197.63,860.06,1148.69,846.07Z"/><path class="cls-17" d="M1183.92,505.32s.19,101.24-46.14,70.93c9.51-.07,16.29-26.6,46.13-70.92Z"/><path class="cls-17" d="M1183.91,505.32l-63.77-53.83s2.82-16.16,6.33-15.38a232.18,232.18,0,0,1,25.5,8.09C1167.08,457.08,1183.52,504.18,1183.91,505.32Z"/><path class="cls-17" d="M1040.18,586.1s35.81,36.43,61.18,28.73c0,0,3.35-5-8.11-6.48S1069.44,607.58,1040.18,586.1Z"/><path class="cls-17" d="M1186.37,751.65c-4.62-7-18.48,3-27.53,2.61S1170.7,716.47,1171,716v0c2.19,11.72,5.14,21.43,9.32,27.11C1182.48,746.06,1184.49,748.9,1186.37,751.65Z"/><path class="cls-33" d="M827.37,588.55h0C818,555.77,796.64,521.86,784,519c-7.58-1.7-15.45.27-20.77,2.24a9.52,9.52,0,0,1,3.53-3.23c-3.51.53-10,6.15-10,6.15-52.24-3.74-38.57,67.33-32.71,83s11.6,34.06-7.36,55.52c-37.29,42.24,16.49,79.67,16.49,79.67.42.1,32.31,29.31,32.31,29.31-4.6-11.26,26.08-81.82,50.41-117.88a135.92,135.92,0,0,1,8.12-11c4.17-13.47.84-34,.57-35.59,3.47,16,3.47,25.59,2.59,31.24C834.15,626.56,832.83,607.75,827.37,588.55Z"/><path class="cls-20" d="M984.31,643.05c.78-1.17,7.39-21.39,14.39-21s17.88,1.56,20.61.78,11.85-7.67,13.41-6c3.89,4.09-4.86,16.72-11.08,18.67s-16.33-1-18.66,1.36-2,10.69-2,10.69Z"/><path class="cls-34" d="M827.16,638.48c.88-5.65.88-15.23-2.59-31.24.27,1.61,3.6,22.12-.57,35.59a135.92,135.92,0,0,0-8.12,11c-4.61.35-7.83.41-8-.08-.68-1.81,2.49-22,2.49-22,.19-.5,14.32-19.7,17-43.16C832.83,607.75,834.15,626.56,827.16,638.48Z"/><path class="cls-20" d="M1169.37,1090.55c-.76,8.25,10.72,10.26,24,10.92s9.28,3.39,27.51,6.69,25.54-1.69,26.86-4.15c1.17-2.19-7.3-5.6-16.33-9.47-1.14-.48-2.28-1-3.42-1.48-10.16-4.46-15.87-13.58-23.79-22-7.51-8-14.64-33.64-14.64-33.64l-24.77-5.29s7,23.07,9.37,32.92c1.42,5.79-.67,12.27-2.53,17.2A31.85,31.85,0,0,0,1169.37,1090.55Z"/><path class="cls-35" d="M1193.39,1101.47c13.3.66,9.28,3.39,27.51,6.69s25.54-1.69,26.86-4.15c1.17-2.19-7.3-5.6-16.33-9.47l-.14.16a52,52,0,0,1-27.62.33c-12.06-3.28-23.72-10.49-32-12.81a31.85,31.85,0,0,0-2.28,8.33C1168.61,1098.8,1180.09,1100.81,1193.39,1101.47Z"/><path class="cls-36" d="M1199,1051.33s-3.07,2.46-9.92,3.21c-6.37.68-20.41-3.06-20.41-3.06s-27.85-39.76-50-75.86c-13.32-21.72-24.56-42.1-26.45-51.75-5-25.68-3.81-48.59-15.27-49.2S922.67,892,901.06,854s-3.75-75.73-3.75-75.73l25.37,18.55s164.62-12.38,195.61,7.18c7.55,4.77,16.22,21.91,25,45.12C1170.55,921.06,1199,1051.33,1199,1051.33Z"/><path class="cls-27" d="M1000.74,667.48c-11.19,28.34-38.22,74.52-45.2,76.27-5.89,1.47-34.67-5.1-58-13.08C883.8,726,872,720.84,867.67,716.53c-11.67-11.66-50.06-80.19-50.06-80.19s36.06-4.57,53.17,5.54,58.32,56.77,64.54,55.21,35.77-53.65,47.44-58.32c0,0,17.88-3.89,22.55,8.56C1006.48,650.45,1004.51,658,1000.74,667.48Z"/><path class="cls-20" d="M1106.38,1117c-.76,8.25,10.72,10.26,24,10.92s9.28,3.38,27.51,6.69,25.53-1.69,26.85-4.15c1.18-2.19-7.3-5.61-16.33-9.47-1.14-.48-2.28-1-3.42-1.48-10.16-4.46-15.86-13.58-23.79-22-7.51-8-14.63-33.64-14.63-33.64l-24.78-5.29s7,23.07,9.37,32.92c1.43,5.79-.67,12.27-2.53,17.2A32.25,32.25,0,0,0,1106.38,1117Z"/><path class="cls-35" d="M1130.41,1127.91c13.3.66,9.28,3.38,27.51,6.69s25.53-1.69,26.85-4.15c1.18-2.19-7.3-5.61-16.33-9.47l-.14.16a51.91,51.91,0,0,1-27.62.32c-12-3.27-23.71-10.48-32-12.8a32.25,32.25,0,0,0-2.28,8.33C1105.62,1125.24,1117.1,1127.25,1130.41,1127.91Z"/><path class="cls-1" d="M1000.74,667.48c-11.19,28.34-38.22,74.52-45.2,76.27-5.89,1.47-34.67-5.1-58-13.08-9.68-8.26-15.62-15.4-16.59-16.85.77.29,55.28,21,66.09,16.32C956.79,725.94,984.51,678.62,1000.74,667.48Z"/><path class="cls-37" d="M1118.65,975.62c-13.32-21.72-24.56-42.1-26.45-51.75-5-25.68-3.81-48.59-15.27-49.2S922.67,892,901.06,854s-3.75-75.73-3.75-75.73l25.37,18.55s164.62-12.38,195.61,7.18c7.55,4.77,16.22,21.91,25,45.12C1129.63,875,1109,925.79,1118.65,975.62Z"/><path class="cls-20" d="M822.47,644.4c0,.2-12.68,12.54-25,12.9a24.41,24.41,0,0,1-12.21-3.39,42,42,0,0,1-10.54-8.12c4.27-2.29,3.67-8.93-4.62-35.75l2.18-.23L809,606.1s.93,4.07,2.35,9.56c.92,3.58,2.06,7.76,3.29,11.81C817.21,636.09,820.22,644.08,822.47,644.4Z"/><path class="cls-38" d="M785.48,647.52a22.11,22.11,0,0,1-.18,6.39,42,42,0,0,1-10.54-8.12c4.27-2.29,3.67-8.93-4.62-35.75l2.18-.23L809,606.1s.93,4.07,2.35,9.56C811.31,615.66,782.84,618.54,785.48,647.52Z"/><path class="cls-36" d="M1137.89,1085s-3.18,2.34-10,2.81c-6.4.45-20.27-3.84-20.27-3.84s-67.41-104.64-71.43-130.49c-3.11-19.86-2.57-38-7.34-45.74a7.6,7.6,0,0,0-6-4c-11.43-1.07-154.83,11.34-174.94-27.53-.16-.31-.32-.62-.46-.93-8-16.55-1.16-31.5,9.27-43.17,8.54-9.56,19.49-16.91,26.56-21.12,4.33-2.57,7.21-4,7.21-4s56.7,2.69,106.78,9.72c30.35,4.26,58.25,10.12,69.65,17.95C1097.09,855.42,1137.89,1085,1137.89,1085Z"/><path class="cls-37" d="M1022.81,903.71c-11.43-1.07-154.83,11.34-174.94-27.53-.16-.31-.32-.62-.46-.93-7.39-15.36-.94-30.64,9.27-43.17,8.54-9.56,19.49-16.91,26.56-21.12,4.33-2.57,7.21-4,7.21-4s56.7,2.69,106.78,9.72C984.36,826.56,966.76,852.22,1022.81,903.71Z"/><path class="cls-33" d="M767.59,607.14s-15-12.91-21.63-25.86c-4.73-9.25-10.81-47,27.19-52.91a51.81,51.81,0,0,1,22.89,1.5c9.54,2.92,24.47,11,21.36,46.48l0,11.69Z"/><path class="cls-27" d="M891.26,819.44c-1.29,0-3.09-.08-5.21-.24-8.54-.66-22.17-2.48-26.93-3.91-40.24-12-78.89-26.85-95.35-78.94a159,159,0,0,1-5-20.59l6.28-23.92,12.24-50.49s15,8,29,4.94c7.16-1.59,11.25-9.94,11.25-9.94S893.33,666,919,727.42s34.48,52.1,42.25,65.32S934.55,819.18,891.26,819.44Z"/><path class="cls-38" d="M818.38,613.84a91.12,91.12,0,0,1-15.55,3.23c-14.05,1.7-33.34.52-38.71-17-8.73-28.49-20.49-45.78,8.21-56.38,14-5.18,23.3-5.66,29.78-3.77,6.79,2,10.47,6.58,13.14,11.09C820.48,559.81,830,609.27,818.38,613.84Z"/><path class="cls-20" d="M818.38,613.84a91.12,91.12,0,0,1-15.55,3.23c-9.58-1.46-18.41-6-21.77-17-8.73-28.49-20.5-45.78,8.2-56.38a85.63,85.63,0,0,1,12.85-3.77c6.79,2,10.47,6.58,13.14,11.09C820.48,559.81,830,609.27,818.38,613.84Z"/><path class="cls-34" d="M793,536.62s-2.31,37.27-20,48.08A60,60,0,0,1,755,592.39c-6.32,1.41-9.7.52-9.7.52a56.9,56.9,0,0,0,8-37.6s18-22.48,32.21-21.81A11.64,11.64,0,0,1,793,536.62Z"/><path class="cls-34" d="M790.68,540.28s11.63,4.61,16.13,11.17,10.08,21.19,14.28,19.35c0,0,2.5-25.6-12-35.22C793.65,525.38,790.68,540.28,790.68,540.28Z"/><path class="cls-1" d="M886.05,819.2c-8.54-.66-22.17-2.48-26.93-3.91-40.24-12-78.89-26.85-95.35-78.94l-.21-1.15,5.59-4.4a39.92,39.92,0,0,1,40.19-5.39C841.12,738.84,884.78,763.17,886.05,819.2Z"/><path class="cls-27" d="M776.17,704.58s-10.76,43.76-19.3,73.95c-2.49,8.83-4.79,16.49-6.58,21.57-1.25,3.54-2.26,5.82-2.89,6.35-4.67,3.81-25.58,12.65-32.58,5s-.08-104,7.69-133.55c7.66-29,53.35-36.36,54.77-36.58h0C788,660.26,776.17,704.58,776.17,704.58Z"/><polygon class="cls-26" points="899.53 736.52 899.38 737.29 882.04 822.91 874.61 821.87 866.14 820.67 859.69 819.76 859.49 819.74 846.16 817.86 836.14 816.45 822.79 814.57 816.16 813.63 807.99 812.48 802.9 811.77 809.42 724.82 809.49 723.85 814.98 724.62 828.43 726.51 833.68 727.25 835.06 727.45 848.4 729.32 851.46 729.75 858.43 730.73 871.76 732.61 878.4 733.54 892.14 735.48 899.53 736.52"/><polygon class="cls-35" points="814.98 724.62 814.9 725.59 807.99 812.48 802.9 811.77 809.42 724.82 809.49 723.85 814.98 724.62"/><polygon class="cls-35" points="899.53 736.52 882.04 822.91 874.61 821.87 892.14 735.48 899.53 736.52"/><polygon class="cls-35" points="835.06 727.45 834.92 728.41 822.79 814.57 816.16 813.63 828.29 727.47 828.43 726.51 828.43 726.51 833.68 727.25 835.06 727.45"/><polygon class="cls-35" points="878.4 733.54 878.27 734.51 866.14 820.67 859.69 819.76 859.49 819.74 859.54 819.36 871.62 733.58 871.76 732.61 878.4 733.54"/><polygon class="cls-35" points="858.43 730.73 858.29 731.7 851.46 780.21 846.16 817.86 836.14 816.45 848.27 730.29 848.4 729.32 851.46 729.75 858.43 730.73"/><path class="cls-26" d="M900.89,735.57a2.09,2.09,0,0,1-1.51,1.72,1.85,1.85,0,0,1-.58.09,1.51,1.51,0,0,1-.3,0l-6.55-.92-13.68-1.93-6.65-.93-13.33-1.88-6.9-1-3.12-.44-13.35-1.88-6.63-.94-13.39-1.88-5.48-.77-.81-.11a2.11,2.11,0,0,1,.3-4.2,1.46,1.46,0,0,1,.29,0l7,1,35.52,5,38.2,5.39,9.15,1.28A2.13,2.13,0,0,1,900.89,735.57Z"/><path class="cls-39" d="M889.94,731.9l-38.2-5.39-35.52-5s5.87-7.08,17-5.21c7.24,1.21,13.63-.19,19.57.05a19.36,19.36,0,0,1,9.31,2.49C870.71,723.86,889.49,724.06,889.94,731.9Z"/><path class="cls-18" d="M859.69,819.77l-.2,0-13.33-1.88-10-1.41-13.35-1.88-6.63-.94L808,812.48l-5.09-.71,6.52-86.95-.81-.11a2.11,2.11,0,0,1,.3-4.2,1.46,1.46,0,0,1,.29,0l7,1s5.87-7.08,17-5.21c7.24,1.21,13.63-.19,19.57.05-.34,2.75-.72,6.18-1.08,10.16-.1,1-.19,2.13-.28,3.24,0,.33-.05.65-.07,1a297.36,297.36,0,0,0,.07,49.48c1.23,13.31,3.69,26.88,8.08,39.15C859.59,819.49,859.63,819.63,859.69,819.77Z"/><path class="cls-20" d="M848.92,776.86S876,771.63,879,772.94s20.07,16.58,18.32,19.63-8.72,5.23-16.58,2.62-24.87-3.93-27.92-7.86S848.92,776.86,848.92,776.86Z"/><path class="cls-27" d="M851.83,793.15s-106.9,24.44-113,24.87-19.63,1.75-24-6.54,10.48-23.56,10.48-23.56a37.31,37.31,0,0,1,6.49-3.26c6.51-2.56,15.25-4.57,25.08-6.13,40.37-6.43,99.32-5.45,99.32-5.45C864.05,784,851.83,793.15,851.83,793.15Z"/><path class="cls-33" d="M784.73,532.62c-1.67.12-11.75,1.21-13.66,10.58s-6.85,38.87-18,50.58c-6.57,1.47-10.08.55-10.08.55s11.6-16.85,8.29-39.05C751.28,555.28,770,531.93,784.73,532.62Z"/><path class="cls-37" d="M1107.58,1084s-67.41-104.63-71.43-130.49c-3.11-19.86-2.56-38-7.34-45.75C1028.81,907.72,1104,965.16,1107.58,1084Z"/><path class="cls-1" d="M851.83,793.15s-106.9,24.44-113,24.87-19.63,1.75-24-6.54c-7-7.62-.08-104,7.69-133.55,7.66-29,53.35-36.36,54.77-36.58-1.29.55-38.62,16.37-38.62,36.82,0,15.76-7,76.69-6.87,106.49.05,9.54.83,15.89,2.8,16.55,1.71.57,7.52,0,15.7-1.11C781.16,795.85,845.82,783.56,851.83,793.15Z"/><path class="cls-9" d="M1010.62,1072c-19.87,45.27-73.46,73-128.22,73H756.46l9.86-342.67S886.48,765,916.66,800.51c26.43,31.11,98.13,154.24,101.92,227.12A96.87,96.87,0,0,1,1010.62,1072Z"/><path class="cls-13" d="M1010.62,1072c-19.87,45.27-73.46,73-128.22,73H769c-22.16-25.09-15-37,46-57.16,82.91-27.42,129.06-38.28,129.06-38.28S960.75,1072.91,1010.62,1072Z"/><path class="cls-40" d="M947,1027.63c-3.77-72.88-54.9-189-73.48-218.11-27.1-42.47-144.06-1.68-195.41,18.86-29.19-86.75-58-171.91-73.67-218.09a52.18,52.18,0,0,0-49.42-35.42s-83.49-12.34-96.41,98.9c-41.36,356-8.13,470.87,140.23,471.75,18.61.11,55-.22,86-.57v.06H810.86C881.77,1145,950.7,1098.44,947,1027.63Z"/><path class="cls-41" d="M947,1027.4c-3.78-73.09-54.91-189.56-73.49-218.75-23.07-36.25-111.26-12-168.64,8.71-10,3.62-19.13,7.14-26.76,10.2-29.2-87-58-172.41-73.68-218.73a52.2,52.2,0,0,0-49.42-35.52s-8.27.08-19.63,1.12h0c-18.31,1.67-44.62,5.83-57.24,16.18-8.55,7-14.43,37.82-19.53,81.89-12.06,104.11-17.78,187.66-16.15,253.8.83,33.92,3.6,63.26,8.44,88.46a257.75,257.75,0,0,0,13.24,47c23.68,59.52,67.31,83.49,134.7,83.9,7.83,0,18.81,0,31.22-.06,17.07-.12,36.84-.32,54.83-.52v0H810.87C881.77,1145.11,950.71,1098.41,947,1027.4Z"/><path class="cls-9" d="M625.28,865.18s-70.25-258.29-74.92-278c-2.08-8.78-8.48-12-14.94-12.77,11.36-1,19.63-1.11,19.63-1.11a52.19,52.19,0,0,1,49.42,35.42c15.65,46.19,44.48,131.35,73.68,218.1C685.78,823.77,625.28,865.18,625.28,865.18Z"/><path class="cls-3" d="M715.44,880.32C706.56,853.71,651.23,862,651.23,862s-37.56,46.58-48.5,47.68,22.55-44.91,22.55-44.91c-21.18-1.66-75.15,19.4-75.15,19.4s3.42,54.34-7.51,53.24,0-48.24,0-48.24c-20.49,5-39.62,24.4-39.62,24.4-23.9,31.6,27.33,54.89,27.33,54.89s.68,18.85-13.67,40.48c0,0-18,22.23-12.24,51H488.54c3-20.7-9.68-36.39-9.68-36.39-10.88-16.41-10.36-30.71-10.36-30.71s38.86-17.66,20.72-41.64c0,0-14.51-14.73-30.05-18.51,0,0,8.29,35.75,0,36.6s-5.7-40.38-5.7-40.38-4.44-1.74-11-4c.83,33.82,3.6,63.08,8.43,88.2,4.81-1.93,8.5-4.44,10.32-7.63.31-.55.62-1.07.9-1.57a6,6,0,0,1-.9,1.57c3.73,1.77,9.32,10.19,13.2,16.65.55,1.1,1.43,2.62,2.72,4.67.53.94,1,1.71,1.24,2.25,4.48,9.09,4.66,22.32,4.16,30.91H424.94v2.49h3.35c1.23,33.14,26.83,61.29,62.74,73.06H439.24c-6.84,0-12.38,4.5-12.38,10.06H630.34a8.4,8.4,0,0,0-.25-2c-1.15-4.59-6.14-8-12.13-8H566.17c35.91-11.77,61.5-39.92,62.74-73.06h2.33V1060h-107a46.11,46.11,0,0,1,9-11.85l1.61-1.34c1.75-1.31,3-2.3,3.81-3,5.38-4.2,12.83-9.56,16.41-10.07a4.61,4.61,0,0,1-.15-1.47c0,.47.1,1,.15,1.47,1.23,11.69,29.18,21.9,46.37,24s11.88-3.64,6-12.14-24.68-12.31-29-16.23,4.56-3.93,14.93-.09,11.77,14.09,28.39,20.54,41.62-15.92,41.62-15.92c-13.24-.55-32.15-12.22-31.47-15.79s32.1,6.16,37.48,6.62,17.59-5,19.48-22.52-33.57-22.45-33.57-22.45-8.18,4.93-17.42,9.9a55.15,55.15,0,0,0-8.24-6.41c3-2.2,5.79-4.08,7.49-5.24a81.6,81.6,0,0,0,11.29,1.66C677.19,981.8,699.05,938,699.05,938c-19.81,5-55.33-3.88-56.7-9.42s51.23-5,59.43-6.66S724.32,906.94,715.44,880.32ZM539.88,985.12a8.61,8.61,0,0,1-1.19-2.08C539.08,983.71,539.47,984.38,539.88,985.12Zm-5.14,58.68a54.14,54.14,0,0,0-16,16.15H512c-.84-11-1.16-30.66,5.29-43.77.38-.71.94-1.71,1.64-2.94.85-1.37,1.57-2.55,2.17-3.57s1-1.88,1.42-2.61c5.12-8.51,12.49-19.61,17.4-21.94a18.6,18.6,0,0,0,5.4,5.7c-9.33,14.12,8.63,31.13,8.63,31.13S549.21,1033.39,534.74,1043.8Zm35-38.29c-1.63-.68-1.51-3-.47-6,2.26.42,4.59.78,7,1.08C573.82,1004.08,571.51,1006.26,569.72,1005.51ZM610.19,974c-14.69-3.29-32.4-2.68-38.88-5.5-8.88-3.89,4.1-7.77,21.86-6.66,12,.75,19.88,7.52,32.53,12.54C620.77,974,615.34,973.93,610.19,974Z"/><path class="cls-7" d="M683.37,819.19c-8.88-32.78-64.21-22.54-64.21-22.54S581.59,854,570.66,855.4s22.54-55.33,22.54-55.33C572,798,518.06,824,518.06,824s3.42,66.95-7.51,65.58,0-59.43,0-59.43c-20.5,6.15-39.62,30.06-39.62,30.06C447,899.11,498.25,927.8,498.25,927.8s.68,23.23-13.66,49.87c0,0-18,27.39-12.25,62.81H456.47a72.83,72.83,0,0,0-9.69-44.83c-10.88-20.21-10.36-37.83-10.36-37.83s38.87-21.76,20.73-51.3c0,0-14.51-18.14-30.06-22.8,0,0,8.29,44,0,45.08s-5.7-49.75-5.7-49.75-40.94-19.69-57-18.13c0,0,25.39,43,17.1,42s-36.79-44.56-36.79-44.56-42-7.78-48.71,17.1,4.14,37.31,10.36,38.86,46.12,1,45.08,6.22-28,13.47-43,8.81c0,0,16.59,40.94,38.35,38.86s28.5-15.54,42-16.58,23.32,2.59,16.59,6.22-29.54,1.19-40.42,10.44-19.7,15,.52,19.1,56.48,1.55,63.73-14l.91-2a8.21,8.21,0,0,1-.91,2c3.74,2.17,9.34,12.57,13.22,20.53.55,1.35,1.42,3.21,2.71,5.73.46,1,.84,1.86,1.12,2.49,4.59,11.21,4.77,27.69,4.28,38.36H392.87v3.08h3.35a100.4,100.4,0,0,0,62.74,90H407.17a12.39,12.39,0,0,0-12.39,12.38H598.27a12.39,12.39,0,0,0-12.39-12.38H534.09a100.4,100.4,0,0,0,62.74-90h2.33v-3.08h-107c2.47-5.42,5.5-10.73,9-14.6l1.62-1.65c1.75-1.62,3-2.84,3.8-3.74,5.38-5.18,12.83-11.78,16.42-12.42a6.71,6.71,0,0,1-.15-1.79c0,.57.1,1.16.15,1.79,1.23,14.41,29.17,27,46.37,29.58s11.88-4.48,5.95-15-24.67-15.17-28.95-20,4.57-4.83,14.93-.1,11.78,17.35,28.4,25.3,41.62-19.61,41.62-19.61c-13.25-.68-32.16-15.06-31.47-19.46s32.1,7.59,37.47,8.17,17.59-6.11,19.49-27.75-33.58-27.67-33.58-27.67-8.18,6.08-17.42,12.2a58.39,58.39,0,0,0-8.24-7.89c3.05-2.7,5.79-5,7.5-6.46a67,67,0,0,0,11.29,2.05C645.12,944.2,667,890.23,667,890.23c-19.81,6.15-55.33-4.78-56.69-11.61s51.23-6.15,59.43-8.2S692.25,852,683.37,819.19ZM537.65,973.41c-1.63-.84-1.52-3.66-.47-7.38,2.26.52,4.59,1,7,1.34C541.74,971.66,539.43,974.33,537.65,973.41Zm-35,47.18a61,61,0,0,0-16,19.89H479.9c-.84-13.57-1.17-37.78,5.28-53.92.39-.87.95-2.12,1.65-3.64,1.7-3.34,2.85-5.81,3.58-7.59,5.12-10.49,12.49-24.17,17.4-27a11.1,11.1,0,0,1-1.19-2.57c.38.82.78,1.67,1.19,2.57a21.84,21.84,0,0,0,5.41,7c-9.34,17.39,8.62,38.35,8.62,38.35S517.14,1007.76,502.66,1020.59Zm75.45-86c-14.69-4.05-32.4-3.29-38.87-6.78-8.88-4.78,4.09-9.56,21.86-8.19,11.94.92,19.88,9.25,32.52,15.44C588.7,934.62,583.26,934.52,578.11,934.58Z"/><path class="cls-42" d="M2645.39,899.56H2294.25A15.3,15.3,0,0,0,2279,914.84v90.09a15.3,15.3,0,0,0,15.28,15.28h351.14a15.3,15.3,0,0,0,15.28-15.28V914.84A15.3,15.3,0,0,0,2645.39,899.56Zm4.54,105.37a4.55,4.55,0,0,1-4.54,4.55H2294.25a4.55,4.55,0,0,1-4.54-4.55V914.84a4.55,4.55,0,0,1,4.54-4.55h351.14a4.55,4.55,0,0,1,4.54,4.55Z"/><rect class="cls-43" x="2045.66" y="527.73" width="761.94" height="434.29"/><rect class="cls-44" x="2071.29" y="527.73" width="761.93" height="434.29"/><path class="cls-42" d="M2833.23,527.73V962H2071.29V911c393.28-42.61,585.24-276.66,653.27-383.24Z"/><rect class="cls-18" x="2050.23" y="1020.21" width="687.25" height="123.2" rx="10.85"/><rect class="cls-17" x="2120.35" y="1020.21" width="687.25" height="123.2" rx="10.85"/><rect class="cls-43" x="2294.07" y="710.55" width="338.68" height="121.16"/><polygon class="cls-43" points="2308.66 710.55 2301.92 831.71 2640.6 831.71 2647.78 710.55 2308.66 710.55"/><rect class="cls-43" x="2095.37" y="919.28" width="141.14" height="25.33" rx="10.86"/><path class="cls-45" d="M1118.16,39.93C983.39,4.51,867.55-20,754.16,22.47c-46.67,17.46-83,34.25-112.62,51.53-9.78,5.71-18.84,11.47-27.27,17.33V369.51h533.25V47.71Q1132.69,43.75,1118.16,39.93Z"/><path class="cls-46" d="M1118.16,39.93V340H641.54V74c29.6-17.28,66-34.07,112.62-51.53C867.55-20,983.39,4.51,1118.16,39.93Z"/><path class="cls-47" d="M1791.78,1004.46l-1.23-4.35A28.5,28.5,0,0,1,1791.78,1004.46Z"/><path class="cls-3" d="M962.84,589.61q.07-1.79,0-3.51H971C967.14,587.7,964.13,589,962.84,589.61Z"/></g></g></svg>