<?xml version="1.0" encoding="utf-8"?>
<!-- Generator: Adobe Illustrator 25.0.0, SVG Export Plug-In . SVG Version: 6.00 Build 0)  -->
<svg version="1.1" id="Layer_1" xmlns="http://www.w3.org/2000/svg" xmlns:xlink="http://www.w3.org/1999/xlink" x="0px" y="0px"
	 viewBox="0 0 1400 980" style="enable-background:new 0 0 1400 980;" xml:space="preserve">
<style type="text/css">
	.st0{fill:#001919;}
	.st1{fill:#330000;}
	.st2{fill:#FF00F9;}
	.st3{fill:#001F1F;}
	.st4{fill:#002B2A;}
	.st5{fill:#457F81;}
	.st6{fill:#0C4143;}
	.st7{fill:#061D1E;}
	.st8{fill:#032E2D;}
	.st9{fill:#688784;}
	.st10{fill:#1A1A1C;}
	.st11{fill:#326767;}
	.st12{fill:#C70CF4;}
	.st13{font-family:'TheBoldFont';}
	.st14{font-size:153.5777px;}
</style>
<g>
	<g>
		<polygon class="st0" points="349.5,615.2 228.1,640.2 550.6,891.4 1222.4,714.8 1034.1,628.3 		"/>
		<g>
			<path class="st1" d="M441.9,239.2c-6.9,3-9.3,5.4-12.3,12.3c-3-6.9-5.4-9.3-12.3-12.3c6.9-3,9.3-5.4,12.3-12.3
				C432.6,233.8,435,236.2,441.9,239.2z"/>
			<path class="st1" d="M1022.2,170.7c-6.9,3-9.3,5.4-12.3,12.3c-3-6.9-5.4-9.3-12.3-12.3c6.9-3,9.3-5.4,12.3-12.3
				C1012.9,165.3,1015.3,167.8,1022.2,170.7z"/>
			<path class="st1" d="M957.5,246.8c-2.5,1.1-3.4,2-4.5,4.5c-1.1-2.5-2-3.4-4.5-4.5c2.5-1.1,3.4-2,4.5-4.5
				C954.1,244.8,955,245.7,957.5,246.8z"/>
			<path class="st1" d="M350.4,193.4c-2.5,1.1-3.4,2-4.5,4.5c-1.1-2.5-2-3.4-4.5-4.5c2.5-1.1,3.4-2,4.5-4.5
				C346.9,191.4,347.8,192.3,350.4,193.4z"/>
			<path class="st1" d="M387.9,285.6c-4.2,1.8-5.6,3.2-7.4,7.4c-1.8-4.2-3.2-5.6-7.4-7.4c4.2-1.8,5.6-3.2,7.4-7.4
				C382.3,282.3,383.8,283.8,387.9,285.6z"/>
			<path class="st1" d="M996.7,278.2c-4.2,1.8-5.6,3.2-7.4,7.4c-1.8-4.2-3.2-5.6-7.4-7.4c4.2-1.8,5.6-3.2,7.4-7.4
				C991.1,274.9,992.5,276.4,996.7,278.2z"/>
		</g>
		<g>
			<circle class="st2" cx="694.4" cy="408" r="257.3"/>
		</g>
		<g>
			<path class="st3" d="M519.3,461.1l-165.7,28.3v119.3c41,1.2,81.9,4.3,122.7,7.5c52.1,4,104,7.3,156.3,7.8
				c64.2,0.5,128.6-1,192.6,5.3c32.6,3.2,64.9,9.2,97.4,13.9c25.6,3.6,51.3,7,76.9,10.5c-0.3-23.9-0.3-47.7-0.4-71.5
				c-0.1-20.7-0.3-41.4-0.5-62.1l-8.7-4.9c2.8,1.2,5.7,2.3,8.6,3.4c0-3.7-0.1-7.5-0.1-11.2c-33.2-13.1-62.2-28.4-86.6-43.4
				l-5.7-11.1l-5.8-9.1l-3.1-13.7l1.5-14.1c27.2,17.3,60.5,35.3,99.4,50.4c0-3.7-0.1-7.5-0.1-11.2c-38.6-15.3-71.5-33.5-98.1-50.8
				v-0.1V399l1.7-2.3l-5.7-32.5l-0.4-1c27.7,17.9,62,36.6,102.2,52.3c0-3.7,0-7.5,0-11.2c-41.6-16.5-76.6-36.3-104.1-54.8
				c-1.4-1-2.8-1.9-4.2-2.9l-1.6-4.4L860.1,312l-10.2-14.7l-14-15.2l-6.2-2.4v-12.3l7.1-1.2v-7.8L818.6,248l-27.9,4.8v1.3
				c-1.1-2.1-2.4-1.7-3.6-2.6c-1.3-1-1.9-0.8-2.5-1c-0.7-0.2-1.6-0.9-2.7-1.4c-1.1-0.5-2.4-0.5-3.6-0.9c-1.2-0.3-7.9-1.3-8.2-1.3
				s-7,3.6-7,3.6s-6,4.4-6.5,4.5c-0.4,0.1-7.6,8.2-7.6,8.2l-2.5,5.9h-0.1l-0.5,2.3l-0.1,1.1l0.6-1l0.1,1.6v4.1l1.4,0.9h-0.2
				l-0.3,9.8c0,0,4.2,10.3,4.7,10.3c0.1,0,0.3,0.3,0.5,0.7c-17.1,3.9-38.5,8.2-63.6,12.4l-0.4-0.8L688,311l-2.2-4.5l-18.2-12.9
				l-12.4,1.6l-12.1,9.2l4.9-1.8l-6.9,5.7l3.4-0.8l-3.3,4l-1.1,4.3l-28.3-3.9l-52.5,4.2l-15.6,9.5l-2.5,2.9
				c-42.6,2.9-79.4,3.7-108,3.7c-20.6,0-36.9-0.4-48.1-0.9c-11.2-0.4-17.1-0.9-17.1-0.9c-2.9-0.2-5.4,1.9-5.6,4.8s1.9,5.4,4.8,5.6
				l0,0c0.1,0,24.5,1.8,66,1.8c26.5,0,59.9-0.7,98.5-3.1l-5,5.9l-3.5,18.5l0,0l-1.5,8l2.3,8.8c-35.4,2-66.1,2.7-90.8,2.7
				c-20.6,0-36.9-0.4-48.1-0.9c-11.2-0.4-17.1-0.9-17.1-0.9c-2.9-0.2-5.4,1.9-5.6,4.8s1.9,5.4,4.8,5.6l0,0c0.1,0,24.5,1.8,66,1.8
				c25.3,0,57-0.7,93.5-2.8l0.6,2.2v18.7l0.9,0.3v4.6l5.2,15.4c-39.3,2.5-73.4,3.2-100.2,3.2c-20.6,0-36.9-0.4-48.1-0.9
				c-11.2-0.4-17.1-0.9-17.1-0.9c-2.9-0.2-5.4,1.9-5.6,4.8s1.9,5.4,4.8,5.6l0,0c0.1,0,24.5,1.8,66,1.8c26.8,0,60.9-0.7,100.1-3.2
				l-4.9,9.3L519.3,461.1z M842.5,409.2l15.5-21.8c0.2,0.2,0.4,0.3,0.6,0.5l7.2,20.5l2.4,2.6l0.2-0.6c1,4.8,2.7,12.4,2.7,12.8
				c0,0.6,0.4,11.2,0.4,11.2l2.7,4.2c-14.2-10.4-25.6-19.9-34.2-27.5c-0.1-0.1-0.2-0.1-0.2-0.2L842.5,409.2z M829.7,416.8l0.6-0.4
				c7.7,6.9,18.1,15.7,30.9,25.5L829.7,424V416.8z M783.1,414.7L783.1,414.7l-0.8,1.4L660.4,437l0.2-7.3c6.1-0.9,12.1-1.8,17.9-2.7
				l-1.8,1.5l1.1,1.1h4.2l0.3,0.3l0,0l0.3,0.3l4.2-2.1l0,0l1.6-0.8l0,0l1.4-0.7l1-1l0.9-0.9c46.2-7.8,79.5-16,97.2-20.8L783.1,414.7
				z M797.9,264.6v13.8h-0.2l-0.2-1.4l-1.4-2.9c0.2-0.8,0.4-1.6,0.4-2c0-1.3-0.3-3.8-0.8-5.3c-0.4-1.3-1.4-3.4-1.8-4.3L797.9,264.6z
				 M764.3,378.9l13.4-8.4l1.9-4.1l1.9-12.6c5.8-1.5,10.6-2.8,14.1-3.8l2.3,1.3v29.9l-3,0.5v9.6C782.1,395,746,404.7,691.8,414
				l-0.5-5.6l-12.1-8.4l-6.8-6.8l-6.7-16.5c17.9-2.7,34.2-5.5,48.9-8.2l-0.2,1.4l1.1,1.5l0,0l0.8,1.1l1-0.1l0.4,3l2.3,2.3l1.6-0.4
				l0.1-1l-1-1.9l0.4-1.1l6.4,1.3l5.6-0.1l3.4-2.1l14,5.7L764.3,378.9z M690.8,334.8L690.8,334.8l-1.4,3.3l-0.1,0.1L690.8,334.8z
				 M688.3,349.5l1.9-10.3l2-3.8l0.7-5.1l-0.1,0.2v-1.6l0,0l2.1,2.1l-0.2,2.2l1.6-3.1l-2.5-8.8c0.2,0,0.5-0.1,0.7-0.1l0.8,0.8v-1
				c24.2-4.2,44.8-8.4,61.3-12.2l1.5,1l1.1,1.9l-0.4,3l0.9,1l-0.8,2.1l0.1,0.1l-3.3,0.3l-10.4,4l1.2,1.2l3.1,0.7l-4.3,4.2l-0.1,1
				l0,0v0.1l1.8,0.9l2.4-0.7l6-3l4.3-0.9l-0.6,0.7l0,0l-5.5,6.5l-2.7,3.3l0.5,0.7l0,0l0.3,0.3l3.1,0.2l3.2-3.3l2.1-0.5l-0.4,2.6
				L758,338l1.1,0.7l-0.7,5.5l-0.7,4.8c-7.4,1.7-15.7,3.5-24.8,5.4l-1-0.5l-5.4-0.7l-5.4-0.3l-3.6,3.3v1.1l-1.6,0.3l-0.2,0.2
				c-11.2,2.1-23.4,4.3-36.6,6.4L688.3,349.5z M662.1,361l2.2-0.6l1.2,0.8l0.3-0.2l0,0l5.3,4.5c-3.1,0.5-6.3,1-9.5,1.4l-2-5.1
				L662.1,361z M641.8,380.2l25.4,24v2.8l4.4,6.7l4.6,3c-5,0.8-10.1,1.6-15.4,2.4l0.1-3.5l-1.8-7l-8.4-7.9L637,380.9
				C638.7,380.6,640.2,380.4,641.8,380.2z M635,370l0.3,0.5c-0.9,0.1-1.9,0.2-2.9,0.4L635,370z M611.5,420.8v-4l16.4,6.6
				c-5.6,0.7-11.4,1.4-17.3,2L611.5,420.8z M635,433.1l1,1.5v6.5l-23.2,4l-0.9-4.1l-3.3-4.8C617.7,435.3,626.5,434.2,635,433.1z
				 M569.9,388.7l22.4,15.2l-4.3,23.9c-8,0.8-15.9,1.5-23.6,2.1l-3-29.3l0,0l-1-11.9L569.9,388.7L569.9,388.7z M565.1,440.4
				c6.9-0.6,13.9-1.2,21-1.8l-0.2,1.1l2.1,6.7l1.3,2.7l-30.8,5.3L565.1,440.4z"/>
			<path class="st3" d="M777.2,293.1L777.2,293.1L777.2,293.1L777.2,293.1z"/>
			<g>
				<g>
					<g>
						<polygon class="st4" points="767.3,593.5 742.5,597.7 742.5,590.8 767.3,586.6 						"/>
						<polygon class="st4" points="783.5,602.7 758.7,607 758.7,600 783.5,595.8 						"/>
						<polygon class="st5" points="742.5,590.8 758.7,600 783.5,595.8 767.3,586.6 						"/>
						<polygon class="st6" points="758.7,600 758.7,607 742.5,597.7 742.5,590.8 						"/>
					</g>
					<g>
						<polygon class="st4" points="766,319.8 748.9,591.6 748.9,317.9 766,315 						"/>
						<polygon class="st4" points="777.2,595.1 760.1,598 760.1,324.3 777.2,321.4 						"/>
						<polygon class="st5" points="748.9,317.9 760.1,324.3 777.2,321.4 766,315 						"/>
						<polygon class="st6" points="760.1,324.3 760.1,598 748.9,591.6 748.9,317.9 						"/>
					</g>
					<g>
						<polygon class="st4" points="767.3,314.2 742.5,318.4 742.5,311.5 767.3,307.2 						"/>
						<polygon class="st4" points="783.5,323.4 758.7,327.7 758.7,320.7 783.5,316.5 						"/>
						<polygon class="st5" points="742.5,311.5 758.7,320.7 783.5,316.5 767.3,307.2 						"/>
						<polygon class="st6" points="758.7,320.7 758.7,327.7 742.5,318.4 742.5,311.5 						"/>
					</g>
				</g>
				<g>
					<path class="st7" d="M756.1,423.5c0,0-2.7-2.7-2.7-5.4c0-2.6,5-6.1,11.3-5s7.6,4.8,6.3,7.8C769.8,424,764.9,423.9,756.1,423.5z
						"/>
					<path class="st8" d="M753.5,431.3c0,0,1.9-8.7,1.9-11.8s8.3-6.7,12-3s2.3,15.2,2.3,15.2L753.5,431.3z"/>
				</g>
				<g>
					<polygon class="st9" points="763.9,428.3 746.2,443.6 746.2,426.4 763.9,423.4 					"/>
					<polygon class="st10" points="775.4,447.2 757.8,450.2 757.8,433 775.4,430 					"/>
					<polygon class="st4" points="746.2,426.4 757.8,433 775.4,430 763.9,423.4 					"/>
					<polygon class="st6" points="757.8,433 757.8,450.2 746.2,443.6 746.2,426.4 					"/>
				</g>
				<g>
					<path class="st7" d="M756.1,377c0,0-2.7-2.7-2.7-5.4c0-2.6,5-6.1,11.3-5s7.6,4.8,6.3,7.8C769.8,377.5,764.9,377.4,756.1,377z"
						/>
					<path class="st8" d="M753.5,384.8c0,0,1.9-8.7,1.9-11.8c0-3,8.3-6.7,12-3s2.3,15.2,2.3,15.2L753.5,384.8z"/>
				</g>
				<g>
					<path class="st7" d="M756.1,339.2c0,0-2.7-2.7-2.7-5.4c0-2.6,5-6.1,11.3-5s7.6,4.8,6.3,7.8
						C769.8,339.6,764.9,339.6,756.1,339.2z"/>
					<path class="st8" d="M753.5,346.9c0,0,1.9-8.7,1.9-11.8s8.3-6.7,12-3s2.3,15.2,2.3,15.2L753.5,346.9z"/>
				</g>
				<g>
					<polygon class="st9" points="763.9,382.5 746.2,397.8 746.2,380.6 763.9,377.6 					"/>
					<polygon class="st10" points="775.4,401.4 757.8,404.4 757.8,387.2 775.4,384.1 					"/>
					<polygon class="st4" points="746.2,380.6 757.8,387.2 775.4,384.1 763.9,377.6 					"/>
					<polygon class="st6" points="757.8,387.2 757.8,404.4 746.2,397.8 746.2,380.6 					"/>
				</g>
				<g>
					<polygon class="st9" points="763.9,336.7 746.2,352 746.2,334.8 763.9,331.8 					"/>
					<polygon class="st10" points="775.4,355.5 757.8,358.6 757.8,341.4 775.4,338.3 					"/>
					<polygon class="st4" points="746.2,334.8 757.8,341.4 775.4,338.3 763.9,331.8 					"/>
					<polygon class="st6" points="757.8,341.4 757.8,358.6 746.2,352 746.2,334.8 					"/>
				</g>
				<polygon class="st4" points="757.9,566.1 353.6,635.3 353.6,522.1 757.9,453 				"/>
				<polygon class="st4" points="1022.6,716.6 618.4,797.9 618.2,672.6 1022.6,603.5 				"/>
				<polygon class="st5" points="353.6,522.1 618.2,672.6 1022.6,603.5 757.9,453 				"/>
				<polygon class="st11" points="379.5,525.3 623.6,664.1 996.7,600.3 752.5,461.5 				"/>
				<polygon class="st6" points="618.2,672.6 618.4,797.9 353.6,635.3 353.6,522.1 				"/>
				<g>
					<g>
						<path class="st8" d="M1011.8,572.1c-156.5-29.4-248.2-128.5-248.6-128.9l0,0c-1.7-1.9-1.6-4.8,0.3-6.6l0,0
							c1.9-1.7,4.8-1.6,6.6,0.2l0,0c0,0,0.3,0.3,1,1l0,0c0.7,0.7,1.7,1.7,3.1,3.1l0,0c2.7,2.7,6.8,6.6,12.3,11.4l0,0
							c10.8,9.6,26.9,22.6,47.8,36.6l0,0c41.7,28,102.7,59.5,179.4,73.9l0,0c2.5,0.5,4.2,2.9,3.7,5.4l0,0c-0.4,2.2-2.4,3.8-4.5,3.8
							l0,0C1012.3,572.2,1012,572.1,1011.8,572.1L1011.8,572.1z"/>
					</g>
				</g>
				<g>
					<g>
						<path class="st8" d="M1011.8,525.8c-156.5-29.4-248.2-128.5-248.6-128.9l0,0c-1.7-1.9-1.6-4.8,0.3-6.6l0,0
							c1.9-1.7,4.8-1.6,6.6,0.3l0,0c0,0,0.3,0.3,1,1l0,0c0.7,0.7,1.7,1.7,3.1,3.1l0,0c2.7,2.7,6.8,6.6,12.3,11.4l0,0
							c10.8,9.6,26.9,22.6,47.8,36.6l0,0c41.7,28,102.7,59.5,179.4,73.9l0,0c2.5,0.5,4.2,2.9,3.7,5.4l0,0c-0.4,2.2-2.4,3.8-4.6,3.8
							l0,0C1012.3,525.9,1012,525.8,1011.8,525.8L1011.8,525.8z"/>
					</g>
				</g>
				<g>
					<g>
						<path class="st8" d="M1011.8,480.6c-156.5-29.4-248.2-128.5-248.6-128.9l0,0c-1.7-1.9-1.6-4.8,0.3-6.6l0,0
							c1.9-1.7,4.8-1.6,6.6,0.2l0,0c0,0,0.3,0.3,1,1l0,0c0.7,0.7,1.7,1.7,3.1,3.1l0,0c2.7,2.7,6.8,6.6,12.3,11.4l0,0
							c10.8,9.6,26.9,22.6,47.8,36.6l0,0c41.7,28,102.7,59.5,179.4,73.9l0,0c2.5,0.5,4.2,2.9,3.7,5.4l0,0c-0.4,2.2-2.4,3.8-4.5,3.8
							l0,0C1012.3,480.7,1012,480.7,1011.8,480.6L1011.8,480.6z"/>
					</g>
				</g>
				<g>
					<g>
						<path class="st8" d="M365.7,389.9L365.7,389.9c-2.6-0.2-4.5-2.4-4.3-5l0,0c0.2-2.6,2.4-4.5,5-4.3l0,0c0,0,5.3,0.4,15.2,0.8
							l0,0c9.9,0.4,24.5,0.8,42.8,0.8l0,0c34.6,0,82.8-1.4,139.3-6.9l0,0c101.7-9.8,168.9-28.2,184-32.6l0,0c2.2-0.6,3.2-1,3.2-1
							l0,0c2.4-0.8,5,0.6,5.8,3l0,0c0.8,2.4-0.6,5-3,5.8l0,0c-0.2,0.1-72.1,22.7-189.1,34l0,0c-56.8,5.5-105.3,6.9-140.2,6.9l0,0
							C387.5,391.5,365.8,390,365.7,389.9L365.7,389.9z"/>
					</g>
				</g>
				<g>
					<g>
						<path class="st8" d="M365.7,435.4L365.7,435.4c-2.6-0.2-4.5-2.4-4.3-5l0,0c0.2-2.6,2.4-4.5,5-4.3l0,0c0,0,5.3,0.4,15.2,0.8
							l0,0c9.9,0.4,24.5,0.8,42.8,0.8l0,0c34.6,0,82.8-1.4,139.3-6.9l0,0c101.7-9.8,168.9-28.2,184-32.6l0,0c2.2-0.6,3.2-1,3.2-1
							l0,0c2.4-0.8,5,0.6,5.8,3l0,0c0.8,2.4-0.6,5-3,5.8l0,0c-0.2,0.1-72.1,22.7-189.1,34l0,0c-56.8,5.5-105.3,6.9-140.2,6.9l0,0
							C387.5,437,365.8,435.4,365.7,435.4L365.7,435.4z"/>
					</g>
				</g>
				<g>
					<g>
						<path class="st8" d="M365.7,481.7L365.7,481.7c-2.6-0.2-4.5-2.4-4.3-5l0,0c0.2-2.6,2.4-4.5,5-4.3l0,0c0,0,5.3,0.4,15.2,0.8
							l0,0c9.9,0.4,24.5,0.8,42.8,0.8l0,0c34.6,0,82.8-1.4,139.3-6.9l0,0c101.7-9.8,168.9-28.2,184-32.6l0,0c2.2-0.6,3.2-1,3.2-1
							l0,0c2.4-0.8,5,0.6,5.8,3l0,0c0.8,2.4-0.6,5-3,5.8l0,0c-0.2,0.1-72.1,22.7-189.1,34l0,0c-56.8,5.5-105.3,6.9-140.2,6.9l0,0
							C387.5,483.3,365.8,481.7,365.7,481.7L365.7,481.7z"/>
					</g>
				</g>
			</g>
			<g>
				<g>
					<g>
						<polygon class="st4" points="1060.1,724.9 1035.3,729.1 1035.3,722.2 1060.1,717.9 						"/>
						<polygon class="st4" points="1076.3,734.1 1051.5,738.4 1051.5,731.4 1076.3,727.2 						"/>
						<polygon class="st5" points="1035.3,722.2 1051.5,731.4 1076.3,727.2 1060.1,717.9 						"/>
						<polygon class="st6" points="1051.5,731.4 1051.5,738.4 1035.3,729.1 1035.3,722.2 						"/>
					</g>
					<g>
						<polygon class="st4" points="1058.8,451.2 1041.7,723 1041.7,449.3 1058.8,446.4 						"/>
						<polygon class="st4" points="1070,726.5 1052.9,729.4 1052.9,455.7 1070,452.7 						"/>
						<polygon class="st5" points="1041.7,449.3 1052.9,455.7 1070,452.7 1058.8,446.4 						"/>
						<polygon class="st6" points="1052.9,455.7 1052.9,729.4 1041.7,723 1041.7,449.3 						"/>
					</g>
					<g>
						<polygon class="st4" points="1060.1,445.6 1035.3,449.8 1035.3,442.9 1060.1,438.6 						"/>
						<polygon class="st4" points="1076.3,454.8 1051.5,459 1051.5,452.1 1076.3,447.9 						"/>
						<polygon class="st5" points="1035.3,442.9 1051.5,452.1 1076.3,447.9 1060.1,438.6 						"/>
						<polygon class="st6" points="1051.5,452.1 1051.5,459 1035.3,449.8 1035.3,442.9 						"/>
					</g>
				</g>
				<g>
					<path class="st7" d="M1045.5,531.7h-2.8c0,0-2.5-5.5,0-12.2c0,0-0.2-2.4,4-2.4C1046.7,517.1,1053,522.8,1045.5,531.7z"/>
					<path class="st10" d="M1046.7,517.1c-0.2,0-0.3,0-0.4,0c0.6,2.8,0.1,11.4-1.6,11.4c-1.8,0-1.5-3-1.5-3l-1.6,0.4
						c0.1,3.4,1.1,5.7,1.1,5.7h2.8C1053,522.8,1046.7,517.1,1046.7,517.1z"/>
				</g>
				<g>
					<path class="st7" d="M1046.7,487.4h-2.8c0,0-2.5-5.5,0-12.2c0,0-0.2-2.4,4-2.4C1047.8,472.9,1054.1,478.5,1046.7,487.4z"/>
					<path class="st10" d="M1047.8,472.9c-0.2,0-0.3,0-0.4,0c0.6,2.8,0.1,11.4-1.6,11.4c-1.8,0-1.5-3-1.5-3l-1.6,0.4
						c0.1,3.4,1.1,5.7,1.1,5.7h2.8C1054.1,478.5,1047.8,472.9,1047.8,472.9z"/>
				</g>
				<g>
					<path class="st7" d="M1045.5,578.7h-2.8c0,0-2.5-5.5,0-12.2c0,0-0.2-2.4,4-2.4C1046.7,564.2,1053,569.8,1045.5,578.7z"/>
					<path class="st10" d="M1046.7,564.2c-0.2,0-0.3,0-0.4,0c0.6,2.8,0.1,11.4-1.6,11.4c-1.8,0-1.5-3-1.5-3l-1.6,0.4
						c0.1,3.4,1.1,5.7,1.1,5.7h2.8C1053,569.8,1046.7,564.2,1046.7,564.2z"/>
				</g>
				<g>
					<path class="st7" d="M1032.9,479v-3.5c0,0-6.1-1.5-7,5.1c-0.8,6.6,2.5,8.7,5.6,8.1l0.8-3.1L1032.9,479z"/>
					<path class="st8" d="M1046.3,475.4c0,0-10.2,1.8-15,1.8c-4.9,0-5.1,6.8-2.4,9.5s16.3-0.4,16.3-0.4L1046.3,475.4z"/>
				</g>
				<g>
					<path class="st7" d="M1030.9,522.4v-3.5c0,0-6.1-1.5-7,5.1c-0.8,6.6,2.5,8.7,5.6,8.1l0.8-3.1L1030.9,522.4z"/>
					<path class="st8" d="M1044.3,518.8c0,0-10.2,1.8-15,1.8c-4.9,0-5.1,6.8-2.4,9.5s16.3-0.4,16.3-0.4L1044.3,518.8z"/>
				</g>
				<g>
					<path class="st7" d="M1030.9,569.9v-3.5c0,0-6.1-1.5-7,5.1c-0.8,6.6,2.5,8.7,5.6,8.1l0.8-3.1L1030.9,569.9z"/>
					<path class="st8" d="M1044.3,566.3c0,0-10.2,1.8-15,1.8c-4.9,0-5.1,6.8-2.4,9.5c2.7,2.6,16.3-0.4,16.3-0.4L1044.3,566.3z"/>
				</g>
				<g>
					<polygon class="st9" points="1018.7,562.9 1001.1,578.2 1001.1,561 1018.7,557.9 					"/>
					<polygon class="st10" points="1030.3,581.7 1012.6,584.8 1012.6,567.5 1030.3,564.5 					"/>
					<polygon class="st4" points="1001.1,561 1012.6,567.5 1030.3,564.5 1018.7,557.9 					"/>
					<polygon class="st6" points="1012.6,567.5 1012.6,584.8 1001.1,578.2 1001.1,561 					"/>
				</g>
				<g>
					<polygon class="st9" points="1018.7,517.1 1001.1,532.4 1001.1,515.1 1018.7,512.1 					"/>
					<polygon class="st10" points="1030.3,535.9 1012.6,538.9 1012.6,521.7 1030.3,518.7 					"/>
					<polygon class="st4" points="1001.1,515.1 1012.6,521.7 1030.3,518.7 1018.7,512.1 					"/>
					<polygon class="st6" points="1012.6,521.7 1012.6,538.9 1001.1,532.4 1001.1,515.1 					"/>
				</g>
				<g>
					<polygon class="st9" points="1018.7,471.2 1001.1,486.5 1001.1,469.3 1018.7,466.3 					"/>
					<polygon class="st10" points="1030.3,490.1 1012.6,493.1 1012.6,475.9 1030.3,472.9 					"/>
					<polygon class="st4" points="1001.1,469.3 1012.6,475.9 1030.3,472.9 1018.7,466.3 					"/>
					<polygon class="st6" points="1012.6,475.9 1012.6,493.1 1001.1,486.5 1001.1,469.3 					"/>
				</g>
				<g>
					<polygon class="st9" points="362.9,377.5 345.2,392.8 345.2,375.6 362.9,372.6 					"/>
					<polygon class="st10" points="374.5,396.4 356.8,399.4 356.8,382.2 374.5,379.2 					"/>
					<polygon class="st4" points="345.2,375.6 356.8,382.2 374.5,379.2 362.9,372.6 					"/>
					<polygon class="st6" points="356.8,382.2 356.8,399.4 345.2,392.8 345.2,375.6 					"/>
				</g>
				<g>
					<path class="st7" d="M347,383.7v-3.5c0,0,6.1-1.5,7,5.1c0.8,6.6-2.5,8.7-5.6,8.1l-0.8-3.1L347,383.7z"/>
					<path class="st8" d="M333.6,380c0,0,10.2,1.8,15,1.8c4.9,0,5.1,6.8,2.4,9.5s-16.3-0.4-16.3-0.4L333.6,380z"/>
				</g>
				<g>
					<polygon class="st9" points="362.9,423.4 345.2,438.7 345.2,421.4 362.9,418.4 					"/>
					<polygon class="st10" points="374.5,442.2 356.8,445.2 356.8,428 374.5,425 					"/>
					<polygon class="st4" points="345.2,421.4 356.8,428 374.5,425 362.9,418.4 					"/>
					<polygon class="st6" points="356.8,428 356.8,445.2 345.2,438.7 345.2,421.4 					"/>
				</g>
				<path class="st7" d="M347,429.9v-3.5c0,0,6.1-1.5,7,5.1c0.8,6.6-2.5,8.7-5.6,8.1l-0.8-3.1L347,429.9z"/>
				<g>
					<path class="st8" d="M333.6,426c0,0,10.2,1.8,15,1.8c4.9,0,5.1,6.8,2.4,9.5c-2.7,2.6-16.3-0.4-16.3-0.4L333.6,426z"/>
				</g>
				<g>
					<polygon class="st9" points="362.9,469.2 345.2,484.5 345.2,467.3 362.9,464.2 					"/>
					<polygon class="st10" points="374.5,488 356.8,491.1 356.8,473.8 374.5,470.8 					"/>
					<polygon class="st4" points="345.2,467.3 356.8,473.8 374.5,470.8 362.9,464.2 					"/>
					<polygon class="st6" points="356.8,473.8 356.8,491.1 345.2,484.5 345.2,467.3 					"/>
				</g>
				<path class="st7" d="M347,474.7v-3.5c0,0,6.1-1.5,7,5.1c0.8,6.6-2.5,8.7-5.6,8.1l-0.8-3.1L347,474.7z"/>
				<g>
					<path class="st8" d="M333.6,470.8c0,0,10.2,1.8,15,1.8c4.9,0,5.1,6.8,2.4,9.5c-2.7,2.6-16.3-0.4-16.3-0.4L333.6,470.8z"/>
				</g>
				<g>
					<g>
						<polygon class="st4" points="328.4,634.1 303.6,638.4 303.6,631.4 328.4,627.2 						"/>
						<polygon class="st4" points="344.6,643.4 319.8,647.6 319.8,640.7 344.6,636.4 						"/>
						<polygon class="st5" points="303.6,631.4 319.8,640.7 344.6,636.4 328.4,627.2 						"/>
						<polygon class="st6" points="319.8,640.7 319.8,647.6 303.6,638.4 303.6,631.4 						"/>
					</g>
					<g>
						<polygon class="st4" points="327,360.4 309.9,632.3 309.9,358.5 327,355.6 						"/>
						<polygon class="st4" points="338.2,635.7 321.1,638.6 321.1,364.9 338.2,362 						"/>
						<polygon class="st5" points="309.9,358.5 321.1,364.9 338.2,362 327,355.6 						"/>
						<polygon class="st6" points="321.1,364.9 321.1,638.6 309.9,632.3 309.9,358.5 						"/>
					</g>
					<g>
						<polygon class="st4" points="328.4,354.8 303.6,359.1 303.6,352.1 328.4,347.9 						"/>
						<polygon class="st4" points="344.6,364 319.8,368.3 319.8,361.3 344.6,357.1 						"/>
						<polygon class="st5" points="303.6,352.1 319.8,361.3 344.6,357.1 328.4,347.9 						"/>
						<polygon class="st6" points="319.8,361.3 319.8,368.3 303.6,359.1 303.6,352.1 						"/>
					</g>
				</g>
				<g>
					<g>
						<path class="st8" d="M627.5,630.4C456.7,602.9,360.4,486.3,360,485.9l0,0c-1.6-2-1.4-4.9,0.6-6.5l0,0c2-1.6,4.9-1.4,6.5,0.6
							l0,0c0,0,0.3,0.4,1,1.2l0,0c0.7,0.8,1.8,2.1,3.2,3.6l0,0c2.9,3.2,7.2,7.7,13,13.3l0,0c11.5,11.1,28.5,26.3,50.8,42.3l0,0
							c44.6,32,110.1,67.4,193.7,80.8l0,0c2.5,0.4,4.2,2.8,3.8,5.3l0,0c-0.4,2.3-2.3,3.9-4.6,3.9l0,0
							C628,630.4,627.8,630.4,627.5,630.4L627.5,630.4z"/>
					</g>
				</g>
				<g>
					<g>
						<path class="st8" d="M627.5,583.4C456.7,555.9,360.4,439.3,360,438.9l0,0c-1.6-2-1.4-4.9,0.6-6.5l0,0c2-1.6,4.9-1.4,6.5,0.6
							l0,0c0,0,0.3,0.4,1,1.2l0,0c0.7,0.8,1.8,2,3.2,3.6l0,0c2.9,3.2,7.2,7.7,13,13.3l0,0c11.5,11.1,28.5,26.3,50.8,42.3l0,0
							c44.6,32,110.1,67.4,193.7,80.8l0,0c2.5,0.4,4.2,2.8,3.8,5.3l0,0c-0.4,2.3-2.3,3.9-4.6,3.9l0,0
							C628,583.4,627.8,583.4,627.5,583.4L627.5,583.4z"/>
					</g>
				</g>
				<g>
					<g>
						<path class="st8" d="M627.5,539.6C456.7,512.1,360.4,395.5,360,395.1l0,0c-1.6-2-1.4-4.9,0.6-6.5l0,0c2-1.6,4.9-1.4,6.5,0.6
							l0,0c0,0,0.3,0.4,1,1.2l0,0c0.7,0.8,1.8,2.1,3.2,3.6l0,0c2.9,3.2,7.2,7.7,13,13.3l0,0c11.5,11.1,28.5,26.3,50.8,42.3l0,0
							c44.6,32,110.1,67.4,193.7,80.8l0,0c2.5,0.4,4.2,2.8,3.8,5.3l0,0c-0.4,2.3-2.3,3.9-4.6,3.9l0,0
							C628,539.6,627.8,539.6,627.5,539.6L627.5,539.6z"/>
					</g>
				</g>
				<g>
					<g>
						<path class="st8" d="M631.9,546.8c-2.6,0-4.6-2.1-4.6-4.7l0,0c0-2.6,2.1-4.6,4.7-4.6l0,0c0,0,3.1,0.1,8.8,0.1l0,0
							c25.4,0,102.6-1,188.8-11.8l0,0c92.1-11.5,156.1-38.9,170.4-45.5l0,0c2.1-0.9,3-1.4,3-1.4l0,0l0,0c2.3-1.1,5.1-0.2,6.2,2.1
							l0,0c1.1,2.3,0.2,5.1-2.1,6.2l0,0c-0.3,0.1-69.7,34.5-176.4,47.8l0,0c-86.8,10.8-164.3,11.8-189.9,11.8l0,0
							C635.1,546.8,631.9,546.8,631.9,546.8L631.9,546.8z"/>
					</g>
				</g>
				<g>
					<g>
						<path class="st8" d="M631.9,589.6c-2.6,0-4.6-2.2-4.6-4.7l0,0c0-2.6,2.1-4.6,4.7-4.6l0,0c0,0,3.1,0.1,8.8,0.1l0,0
							c25.4,0,102.6-1,188.8-11.8l0,0c92.1-11.5,156.1-38.9,170.4-45.5l0,0c2.1-0.9,3-1.4,3-1.4l0,0c2.3-1.1,5.1-0.2,6.2,2.1l0,0
							c1.1,2.3,0.2,5.1-2.1,6.2l0,0c-0.3,0.2-69.7,34.5-176.4,47.8l0,0c-86.8,10.8-164.3,11.8-189.9,11.8l0,0
							C635.1,589.7,631.9,589.6,631.9,589.6L631.9,589.6z"/>
					</g>
				</g>
				<g>
					<g>
						<path class="st8" d="M631.9,633.1c-2.6,0-4.6-2.1-4.6-4.7l0,0c0-2.6,2.1-4.6,4.7-4.6l0,0c0,0,3.1,0,8.8,0l0,0
							c25.4,0,102.6-1,188.8-11.8l0,0c92.1-11.5,156.1-38.9,170.4-45.5l0,0c2.1-0.9,3-1.4,3-1.4l0,0c2.3-1.1,5.1-0.2,6.2,2.1l0,0
							c1.1,2.3,0.2,5.1-2.1,6.2l0,0c-0.3,0.2-69.7,34.5-176.4,47.8l0,0C743.9,632,666.4,633,640.8,633l0,0
							C635.1,633.1,631.9,633.1,631.9,633.1L631.9,633.1z"/>
					</g>
				</g>
				<g>
					<polygon class="st9" points="629.2,622 611.6,637.3 611.6,620.1 629.2,617.1 					"/>
					<polygon class="st10" points="640.8,640.9 623.1,643.9 623.1,626.7 640.8,623.7 					"/>
					<polygon class="st4" points="611.6,620.1 623.1,626.7 640.8,623.7 629.2,617.1 					"/>
					<polygon class="st6" points="623.1,626.7 623.1,643.9 611.6,637.3 611.6,620.1 					"/>
				</g>
				<g>
					<polygon class="st9" points="629.2,576.2 611.6,591.5 611.6,574.3 629.2,571.3 					"/>
					<polygon class="st10" points="640.8,595.1 623.1,598.1 623.1,580.9 640.8,577.8 					"/>
					<polygon class="st4" points="611.6,574.3 623.1,580.9 640.8,577.8 629.2,571.3 					"/>
					<polygon class="st6" points="623.1,580.9 623.1,598.1 611.6,591.5 611.6,574.3 					"/>
				</g>
				<g>
					<polygon class="st9" points="629.2,530.4 611.6,545.7 611.6,528.5 629.2,525.4 					"/>
					<polygon class="st10" points="640.8,549.2 623.1,552.3 623.1,535 640.8,532 					"/>
					<polygon class="st4" points="611.6,528.5 623.1,535 640.8,532 629.2,525.4 					"/>
					<polygon class="st6" points="623.1,535 623.1,552.3 611.6,545.7 611.6,528.5 					"/>
				</g>
				<g>
					<g>
						<polygon class="st4" points="618.4,804.8 593.6,809.1 593.6,802.1 618.4,797.9 						"/>
						<polygon class="st4" points="634.6,814 609.8,818.3 609.8,811.3 634.6,807.1 						"/>
						<polygon class="st5" points="593.6,802.1 609.8,811.3 634.6,807.1 618.4,797.9 						"/>
						<polygon class="st6" points="609.8,811.3 609.8,818.3 593.6,809.1 593.6,802.1 						"/>
					</g>
					<g>
						<polygon class="st4" points="617.1,531.1 599.9,803 599.9,529.2 617.1,526.3 						"/>
						<polygon class="st4" points="628.3,806.4 611.2,809.3 611.2,535.6 628.3,532.7 						"/>
						<polygon class="st5" points="599.9,529.2 611.2,535.6 628.3,532.7 617.1,526.3 						"/>
						<polygon class="st6" points="611.2,535.6 611.2,809.3 599.9,803 599.9,529.2 						"/>
					</g>
					<g>
						<polygon class="st4" points="618.4,525.5 593.6,529.7 593.6,522.8 618.4,518.6 						"/>
						<polygon class="st4" points="634.6,534.7 609.8,539 609.8,532 634.6,527.8 						"/>
						<polygon class="st5" points="593.6,522.8 609.8,532 634.6,527.8 618.4,518.6 						"/>
						<polygon class="st6" points="609.8,532 609.8,539 593.6,529.7 593.6,522.8 						"/>
					</g>
				</g>
			</g>
		</g>
	</g>
</g>
<g>
	<g>
		<g>
			<g>
				<path class="st3" d="M651.4,101.5c-3.7-4.7-9.3-7.5-15.4-7.7c-3.9-5.2-15.4-18-24.4-20.7c-11-3.3-18.4-0.3-21.8,1.8
					c-0.8,0.5-3.1,1.4-5.1,2.3c-5.4,2.3-12.7,5.4-18.1,9.4c-10.9,8.2-18.8,22.5-20.2,36.4c-1.1,11.5,2.4,21.7,9.8,28.6
					c5.5,5.1,12.6,5.1,16.2,4.6c1.7,5.1,5.3,13.1,12,19.4c6.2,5.8,12.8,8.6,17.1,10.5c0.2,0.1,0.4,0.2,0.6,0.3c0,0.1,0,0.2,0.1,0.3
					c0.3,1.2,1.1,2.1,2.3,2.5c0.2,1.2,0.3,2.2,0.4,2.2l0,0.1l0,0l0,0c0,0,0,0.1,0,0.2c1.1,5.9,3.1,10.6,6,13.9
					c2,2.3,4.5,3.8,6.7,4.3c3.7,0.7,7.2-0.8,13.6-5.6c6.2-4.6,10.6-8.2,13.2-11.4c3-0.6,6.6-2.5,11-5.8c2.1-1.6,5.2-4.2,8-7
					c4.1-4.3,6.1-7.7,6.2-10.8c0.2-5.1-1.1-8.5-5.8-14.7c-3.4-4.6-6.7-6.2-9.1-6.8c0.2-1.3-0.4-2.7-1.6-3.4c0,0-0.1-0.1-0.2-0.1
					c2.8-9.4,4.2-17.6,4.1-24.6C656.8,112,654.9,106,651.4,101.5z"/>
			</g>
			<g>
				<path class="st2" d="M649.8,102.8c-3.6-4.5-9.1-7.1-15-7.1c-3.7-5.3-15.6-18.3-24-20.8c-10.3-3.1-17-0.4-20.1,1.5
					c-0.9,0.5-3.1,1.5-5.4,2.4c-5.3,2.2-12.5,5.3-17.6,9.2c-10.4,7.9-18,21.6-19.4,35c-1.1,10.9,2.2,20.6,9.3,27.1
					c5,4.7,11.8,4.8,16.2,3.9c1.4,4.5,4.8,13.4,12,20.1c6,5.6,12.4,8.3,16.6,10.1c0.6,0.2,1.2,0.5,1.8,0.8c-0.1,0.3-0.2,0.7-0.1,1
					c0.2,0.8,0.9,1.3,1.8,1.3c0.1,0.1,0.2,0.1,0.3,0.2c0.4,1.7,0.6,3.4,0.6,3.4l0,0.1c0,0,0,0.1,0,0.1c1,5.6,2.9,10,5.6,13.1
					c2.1,2.3,4.3,3.4,5.7,3.7c2.6,0.5,5.3-0.2,12-5.2c6.5-4.9,11-8.6,13.3-11.7c2.8-0.3,6.4-2.2,10.9-5.6c2-1.5,5.1-4.1,7.7-6.8
					c3.7-3.8,5.5-6.8,5.6-9.4c0.2-4.7-1-7.6-5.5-13.6c-3.7-4.9-7-6-8.8-6.3c-0.2-0.1-0.4-0.3-0.7-0.4c0-0.1,0-0.1,0-0.2
					c0-0.2-0.1-0.5-0.2-0.7c0.4-0.8,0.2-1.8-0.5-2.3c-0.5-0.3-1.1-0.3-1.6-0.1c3.2-10,4.8-18.8,4.6-26
					C654.8,112.6,653.1,106.9,649.8,102.8z M559.8,147.9c-16.4-15.2-7.1-44.9,9.7-57.6c7.2-5.5,19.4-9.4,22.7-11.4
					c3.3-2,9.1-3.7,17.5-1.2c7.2,2.1,17.8,13.4,21.9,18.7c-1.2,0.4-2.5,0.9-3.8,1.5c-1.1-1.3-2-4.2-2.6-5.3c-0.8-1.4-3-1.4-1.7,0.6
					c1.3,2,0.3,5.6-0.7,6.2c-1,0.6-1,0-0.8-1.9c0.2-1.9-0.1-3.8-1.1-3.9c-1-0.2-0.3,2.3-0.8,2.2c-0.5-0.1-1.4-4.3-1.9-6.2
					c-0.5-1.9-1.8-1.6-2.3-0.9c-0.5,0.8,2,4.4,2.5,8.2c0.5,3.8-0.8,3.9-1.6,3.6c-0.8-0.3-6-8.2-7.5-10.4c-1.5-2.3-4.4-5.2-5.5-5.1
					c-1.1,0.1-1,1.1,1,3.1c2,2.1,6.4,6.8,8.8,11c2.4,4.2,1.3,5.1,0.3,6.1c-1,0.9-1.7-0.2-3.3-2.5c-1.6-2.4-4.3-3.9-4.8-3.2
					c-0.5,0.7,0.4,1.3,2.6,3.1c2.1,1.8,2.2,5.2,1.4,5.9c-0.8,0.8-1.8-0.4-3.4-2.7c-1.7-2.3-4.2-1.5-3.2-0.8c1.1,0.7,3.1,3.1,3.1,5.9
					c0.1,2.8-1.7,1.3-3.1-0.8c-1.4-2.1-6.7-4.8-7.2-3.8c-0.5,1.1,1.4,1.4,3.6,3c1.7,1.2,3.5,3.7,4,6.3c-3.1,4-5.3,8.3-5.7,11.9
					c-0.2,1.7,0,3.1,0.6,4.4c-0.5,0.7-1.4,1-2.5,0.9c-0.1-0.1-0.1-0.1-0.2-0.2c-1.5-1.9-1.5-2.1-1.5-3.6c0-1.5-0.5-2.8-1.2-2.2
					c-2.4,1.8-1.6,5.8,0,8c-1.3,1.3-3.3,3.2-4.1,3.9c-1.3,1-5,0.1-5.7-0.5c-0.7-0.6,1.3-2.2-0.7-2.7c-1.8-0.5-2.4,3.9-0.8,4.8
					c0.8,0.5,2.2,0.8,3.7,0.9c-0.3,0.7-0.9,2-2.1,2.5c-1.7,0.6-4.2,0.2-6-1.1c-1.8-1.3-2.5-0.5-2.5,0.6c0,1,1.2,2.1,2.8,2.8
					c-0.2,2.2-1.5,3.7-3.1,4.6C571.2,151.8,564.6,152.3,559.8,147.9z M636.9,193.4c-0.2,0.4-0.7,0.5-1.1,0.3
					c-0.4-0.2-0.5-0.7-0.2-1.1c4.4-6.7,14.1-29.3,14.5-41.4c0.5-0.7,1.1-1.4,1.6-2.1c0.4,6.7-2.6,16.6-5.3,23.8
					C643.1,181.9,639.1,190,636.9,193.4z M642.8,184.2c1-0.3,2.1-0.7,3.2-1.1c0.4-0.2,0.9,0.1,1,0.5c0.1,0.4-0.1,0.9-0.6,1
					c-1.5,0.5-3,1-4.5,1.5C642.2,185.4,642.5,184.8,642.8,184.2z M634.4,193c-0.8-0.9-1.8-2-2.9-3.3c1.7-0.3,3.5-0.7,5.3-1.2
					c-0.8,1.5-1.5,2.8-2.1,3.7C634.6,192.4,634.5,192.7,634.4,193z M638.2,184.5c0-0.7,0.1-1.5,0.3-2.4c0.4-2.1,1.1-3.8,1.6-3.8
					c0.4,0,0.5,1.1,0.3,2.6c-0.5,1.2-1,2.3-1.5,3.4C638.7,184.4,638.4,184.5,638.2,184.5z M634.8,175.8c-0.4,2.1-1.1,3.8-1.6,3.8
					c-0.5,0-0.5-1.8-0.1-3.9c0.4-2.1,1.1-3.8,1.6-3.8C635.2,171.9,635.2,173.7,634.8,175.8z M636.7,181.6c0,0.5-1.8,1-3.9,1.2
					c-2.2,0.2-4,0-4-0.5c0-0.5,1.8-1,3.9-1.2C634.9,180.9,636.7,181.1,636.7,181.6z M648.9,153.7c-0.7,6.2-3.3,14.5-6.2,21.9
					c-2.5-2.9-5.1-6-7.2-8.6c4.5-4.1,8.9-8.6,12.7-13.2C648.4,153.7,648.6,153.7,648.9,153.7z M642.3,176.6
					c-0.3,0.7-0.6,1.4-0.9,2.1c-0.2-0.7-0.5-1.2-1.1-1.3c-0.7-0.1-1.2,0.4-1.7,1.1c-0.9-1-1.8-2.1-2.7-3.2c0.3-2.1,0.3-4.3-1.1-4.4
					c-0.7-0.1-1.2,0.4-1.6,1.1c-0.5-0.6-1-1.2-1.5-1.8c1-0.8,2-1.7,3-2.6C636.8,170.3,639.6,173.6,642.3,176.6z M627.3,174.6
					c2.2-0.2,4,0,4,0.5c0,0.5-1.8,1-3.9,1.2c-1.3,0.1-2.4,0.1-3.1-0.1c0.7-0.5,1.3-1,2-1.6C626.6,174.6,627,174.6,627.3,174.6z
					 M627.4,177.3c0.2,0,0.4,0,0.5,0c0.9,1.1,1.8,2.1,2.7,3.2c-1,0.2-1.9,0.5-2.4,1c-0.2,0.3-0.4,0.6-0.4,0.9c0,0.3,0.1,0.6,0.4,0.8
					c0.9,0.8,3.5,0.7,4.6,0.6c0.2,0,0.4,0,0.6-0.1c0.5,0.6,1,1.1,1.4,1.7c-2.1,0.5-4,0.9-5.8,1.2c-2.2-2.7-4.5-5.7-6.9-8.8
					c0.4-0.3,0.7-0.5,1.1-0.8C624.4,177.5,626.4,177.4,627.4,177.3z M627.8,186.7c-8.7,1.2-14.4,0.3-17.7-1.2c3-1.6,6.9-4,11.2-7.1
					C623.5,181.3,625.7,184.2,627.8,186.7z M638.4,185.5c-0.3,0.6-0.6,1.3-0.9,1.8c-15.7,4.1-25.6,2.7-30.3-0.5
					c0.6-0.2,1.2-0.5,1.8-0.8C614,188.8,624.1,189.4,638.4,185.5z M628.4,200.3c-6.8,5.1-8.4,4.8-9.5,4.6c-1-0.2-7-2.5-9.2-14.7
					c0,0-0.1-0.4-0.1-1c2.5,0.9,5.6,1.5,9.2,1.6c3.5,0.1,7.4-0.2,11.6-0.9c1.9,2.3,3.5,4.1,4.7,5.2
					C633.1,196.7,630.8,198.4,628.4,200.3z M639.4,191.1c0.1-0.1,0.2-0.3,0.2-0.4c0,0,0.1,0.1,0.1,0.1
					C639.6,190.9,639.5,191,639.4,191.1z M646.5,186.9c-0.3-0.2-0.7-0.5-1-0.9c0.4-0.1,0.9-0.3,1.3-0.4c1-0.3,1.5-1.3,1.3-2.3
					c-0.3-0.9-1.3-1.4-2.2-1.1c-0.8,0.3-1.6,0.5-2.4,0.8c0.5-1.1,1-2.3,1.5-3.5c2,2.2,3.9,4.1,5.3,5.2
					C648.9,185.5,647.6,186.3,646.5,186.9z M659.6,157.4c4.2,5.6,5.1,7.9,4.9,11.8c-0.1,3.9-8.4,11.1-12,13.8
					c-0.5,0.4-1,0.7-1.5,1.1c-1.4-1.1-3.4-3.2-5.7-5.7c3.6-8.7,6.8-18.9,7.3-26.2C653.6,152.3,656.3,153,659.6,157.4z M651.3,146.6
					c0.4,0.2,0.4,0.7,0.2,1.1C639,165.8,613.8,184,606,186.2c-0.4,0.1-0.9-0.1-1-0.5c-0.1-0.4,0.2-0.8,0.6-1
					c6.8-1.9,31.9-19.7,44.5-37.8C650.4,146.5,650.9,146.4,651.3,146.6z M611.1,162.7c-4.3-6.3-1.9-8.6,0.1-10.5
					c0.2-0.2,0.5-0.5,0.7-0.7c1.9-2,5.1-3.6,8.1-1.3c1.9,1.5,8,8.3,11.5,13.1c0.3,0.4,0.7,0.9,1.2,1.5c-0.4,0.4-0.9,0.8-1.3,1.2
					c0-1.2-0.4-2-1.2-2.1c-0.8-0.1-1.5,0.6-1.9,1.6c-0.2-0.3-0.4-0.6-0.6-0.8c-0.7-0.8-1.3-1.7-1.9-2.5c0.4-2.2,0.5-4.7-1-4.9
					c-0.7-0.1-1.3,0.4-1.7,1.2c-1-1.3-1.8-2.4-2.6-3.4c0.3-0.6,0.4-1.1,0-1.6c-0.4-0.5-1-0.5-1.7-0.3c-0.4-0.3-0.7-0.6-0.9-0.7
					c-1.5-0.6-3.4,1.5-4.5,3c-0.3,0.5-0.4,1-0.2,1.7c-0.5,0.6-0.9,1.1-1,1.7c-0.1,0.3,0,0.7,0.2,0.9c0.2,0.3,0.5,0.4,0.8,0.4
					c0.4,0,0.8-0.1,1.3-0.3c0.1,0.1,0.2,0.2,0.3,0.4c-0.9,0.2-1.7,0.5-2.1,1c-0.2,0.3-0.4,0.6-0.4,0.9c0,0.3,0.1,0.6,0.4,0.8
					c0.9,0.8,3.4,0.7,4.5,0.6c0.4,0.5,0.7,1,1.2,1.5c0.4,0.5,0.9,1.1,1.4,1.8c-0.7,0.2-1.4,0.5-1.7,0.9c-0.3,0.3-0.4,0.6-0.4,0.9
					c0,0.3,0.1,0.6,0.4,0.9c0.8,0.7,3.1,0.7,4.3,0.6c0.5,0.6,1,1.3,1.6,1.9c-1.3,1-2.5,1.9-3.7,2.8
					C616.3,170.1,612.9,165.4,611.1,162.7z M615.8,156.2c1.8-1.4,3.5-2.2,3.7-1.8c0.3,0.4-0.9,1.8-2.7,3.2c-1.8,1.4-3.5,2.2-3.7,1.8
					C612.8,159,614,157.5,615.8,156.2z M624.6,162.4c-0.4,2.1-1.1,3.8-1.6,3.8c-0.5,0-0.6-1.8-0.1-3.9c0.4-2.1,1.1-3.8,1.6-3.8
					C624.9,158.5,625,160.2,624.6,162.4z M621,161.6c0,0.5-1.8,1-3.9,1.2c-2.2,0.2-4,0-4-0.5c0-0.5,1.8-1,4-1.2
					C619.2,160.9,621,161.2,621,161.6z M626.5,168.1c0,0.5-1.8,1-3.9,1.2c-2.2,0.2-4,0-4-0.5c0-0.5,1.8-1,3.9-1.2
					C624.7,167.4,626.4,167.7,626.5,168.1z M628.2,168.7c0.4-2.1,1.1-3.8,1.6-3.8c0.3,0,0.5,0.9,0.4,2.1
					C629.6,167.6,628.9,168.1,628.2,168.7C628.2,168.7,628.2,168.7,628.2,168.7z M648.7,140.7c-3.3,6.1-9.6,11.9-12.4,13
					c-3.4,1.4,0.9,2.3,4.3,0.1c1-0.7,2.2-0.7,3.4-0.6c-3.3,3.8-7,7.6-10.8,11c-0.4-0.5-0.8-1-1.1-1.5c-3.6-4.9-9.7-11.7-11.7-13.2
					c-3.5-2.7-7.3-0.9-9.5,1.4c-0.2,0.2-0.4,0.4-0.6,0.7c-2,1.9-5,4.8-0.2,11.8c1.9,2.8,5.3,7.4,9,12.4c-4.9,3.5-9.1,6.1-11.9,7.4
					c-3.2-1.9-11.7-4.1-19.3-11.2c-7-6.6-10.3-15.5-11.4-19.5c2.5-1.8,3-4.5,3-5.6c1.3,0.2,2.9,0.1,4.4-0.5c3.7-1.5,4.3-4.1,4.4-5
					c0.3-0.1,0.6-0.2,0.9-0.3c2.8-1.1,4.5-3.1,5.4-4.5c-0.7,1.7-0.7,3.6,0.1,3.9c1.1,0.4,4.1-3.9,5.8-3.4c1.8,0.4,3.3,1.6,1.2,3.7
					c-2,2.1-6.7,3.5-9.7,2.5c-3-0.9-1.3,4.6,3.6,3.5c4.9-1.1,8.6-4.8,10.5-6c1.9-1.2,1.9-0.8,1.5,1.2c-0.4,2,1.4,6.5,3,6.2
					c1.6-0.3-1.2-3.8,0-6.7c1.2-2.9,1.7-3.7,2.6-3.9c0.9-0.2,1,2.3,2.2,5.8c1.1,3.5,6.1,7.1,10,7c3.9-0.1,4.1-2.3,0.3-2.4
					c-3.8-0.1-8.2-4.7-7.4-5.7c0.8-1,2.8,0.9,4.1,2.7c1.3,1.8,4.2,0.9,1.4-2.6c-2.8-3.5-4.5-5.8-3.8-7.6c0.8-1.8,4.9,2.4,6,0.1
					c1.1-2.3-4.1-1.4-3-2.8c1.1-1.4,4.9,1.5,5.4-0.5c0.4-1.7-3.2-1.9-3.3-3.3c0.6-0.5,1.1-0.9,1.6-1.3c0.6-0.6,0.7-1.5,0.2-2.1
					c-0.5-0.6-1.5-0.6-2.1,0c-4.7,4.2-16.9,11.8-22.5,7.2c-1.1-0.9-1.6-2.3-1.4-4.2c0.8-6.5,9-16.3,16-20.6c7.4-4.6,12.2-7,17-8.5
					c0.1,0,0.2-0.1,0.3-0.1C643.8,98.4,658.5,106.3,648.7,140.7z"/>
			</g>
		</g>
	</g>
</g>
<text transform="matrix(0.9975 -0.1759 0.1736 0.9848 629.4574 790.5048)" class="st12 st13 st14">a  b  k</text>
</svg>
