<?xml version="1.0" standalone="no"?>
<!DOCTYPE svg PUBLIC "-//W3C//DTD SVG 20010904//EN"
 "http://www.w3.org/TR/2001/REC-SVG-20010904/DTD/svg10.dtd">
<svg version="1.0" xmlns="http://www.w3.org/2000/svg"
 width="1400.000000pt" height="1400.000000pt" viewBox="0 0 1400.000000 1400.000000"
 preserveAspectRatio="xMidYMid meet">
<metadata>
Created by potrace 1.11, written by Peter Selinger 2001-2013
</metadata>
<g transform="translate(0.000000,1400.000000) scale(0.100000,-0.100000)"
fill="#000000" stroke="none">
<path d="M6018 11185 c-2 -2 -19 -5 -38 -8 -19 -2 -52 -11 -73 -21 -202 -90
-230 -107 -302 -182 -91 -96 -138 -213 -138 -344 0 -75 5 -109 18 -130 5 -8
10 -18 10 -22 0 -3 14 -27 32 -52 37 -52 95 -85 154 -88 38 -1 42 -4 63 -47
30 -62 48 -91 69 -113 19 -20 23 -48 6 -48 -18 0 -139 -63 -139 -72 0 -5 -6
-8 -13 -8 -16 0 -225 -135 -250 -161 -10 -10 -21 -19 -26 -19 -4 0 -18 -9 -30
-19 -12 -11 -41 -34 -64 -53 -60 -47 -317 -308 -351 -357 -17 -22 -33 -41 -38
-41 -4 0 -8 -7 -8 -15 0 -8 -4 -15 -10 -15 -5 0 -10 -7 -10 -15 0 -8 -4 -15
-8 -15 -10 0 -102 -137 -153 -227 -58 -101 -127 -242 -122 -247 4 -3 1 -6 -5
-6 -7 0 -11 -3 -10 -7 1 -5 -8 -30 -20 -57 -12 -27 -22 -52 -22 -57 0 -4 -5
-20 -12 -36 -6 -15 -12 -30 -12 -33 -1 -3 -4 -9 -7 -15 -4 -5 -10 -25 -14 -42
l-7 -33 -81 -1 c-165 -2 -207 -1 -437 6 -315 10 -319 10 -332 -3 -17 -17 -12
-64 8 -79 19 -14 24 -14 186 -17 60 0 108 -3 108 -6 0 -3 115 -5 255 -5 163 0
255 -4 255 -10 0 -5 -7 -38 -15 -72 -8 -34 -17 -75 -20 -90 -2 -15 -7 -39 -10
-52 -2 -13 -7 -47 -10 -75 -7 -70 -10 -84 -18 -92 -10 -10 -59 -11 -79 -1 -10
4 -18 4 -18 0 0 -4 -20 -8 -45 -8 -25 0 -45 4 -45 8 0 5 -4 6 -10 2 -11 -7
-46 -7 -255 -1 -200 6 -190 5 -182 13 9 9 -99 73 -126 75 -12 1 -55 -5 -94
-12 -69 -12 -73 -15 -73 -40 0 -34 -4 -37 -39 -32 -29 4 -29 5 -29 66 0 85 6
105 28 101 25 -5 38 13 36 48 -2 24 -12 35 -61 63 -33 19 -68 37 -77 41 -10 3
-18 10 -18 17 0 7 -3 7 -8 1 -4 -5 -20 -11 -37 -12 -45 -3 -98 -11 -186 -29
-22 -4 -26 -10 -25 -40 1 -27 7 -38 32 -53 l31 -19 -1 -1300 c-1 -715 -4
-1303 -7 -1306 -3 -3 -21 -8 -40 -11 -33 -4 -59 -9 -109 -20 -14 -4 -36 -8
-50 -11 -14 -3 -42 -9 -62 -15 -20 -5 -40 -9 -45 -8 -4 1 -10 0 -13 -1 -9 -3
-53 -12 -125 -25 -22 -4 -44 -10 -49 -13 -6 -3 -24 -7 -40 -8 -17 -2 -42 -6
-56 -9 -14 -3 -36 -8 -49 -11 -13 -3 -50 -11 -83 -19 -66 -15 -66 -15 -75 -15
-3 0 4 -11 17 -25 13 -14 29 -25 36 -25 7 0 14 -4 16 -9 2 -5 41 -38 88 -75
47 -36 90 -69 95 -73 6 -5 39 -31 75 -58 36 -28 67 -52 70 -55 3 -3 21 -17 42
-32 20 -15 42 -33 50 -40 7 -7 40 -33 73 -57 33 -25 62 -47 65 -50 3 -3 32
-26 65 -51 33 -25 62 -47 65 -50 5 -5 69 -55 205 -160 39 -29 72 -57 73 -62 2
-4 8 -8 13 -8 9 0 44 -27 81 -63 10 -9 20 -17 23 -17 2 0 42 -30 87 -66 106
-84 106 -84 153 -119 22 -16 47 -37 57 -47 10 -10 21 -18 25 -18 5 0 26 -16
48 -35 22 -19 45 -38 50 -43 10 -6 127 -97 150 -114 6 -5 28 -22 50 -39 67
-51 95 -73 120 -96 13 -13 28 -23 32 -23 5 0 19 -10 33 -23 14 -12 86 -70 160
-127 74 -57 137 -106 140 -109 3 -4 41 -33 85 -66 44 -33 91 -70 105 -83 14
-13 37 -31 53 -40 15 -9 27 -20 27 -24 0 -4 6 -8 14 -8 8 0 16 -4 18 -8 3 -7
110 -95 191 -156 37 -27 106 -82 133 -104 11 -10 33 -26 48 -35 15 -10 35 -26
45 -35 10 -9 34 -28 52 -42 18 -14 41 -33 51 -43 10 -9 21 -17 24 -17 3 0 29
-19 56 -42 l51 -42 86 23 c47 12 93 24 101 26 8 3 35 9 60 16 52 12 46 11 170
44 52 14 102 28 110 29 8 2 60 16 115 30 55 15 107 28 115 31 8 2 137 36 285
75 149 40 277 73 285 75 8 1 22 5 30 8 8 4 26 9 40 11 14 3 51 12 83 20 145
40 173 47 187 51 35 8 288 75 320 85 19 6 49 13 65 16 43 8 60 12 60 14 0 1 7
3 15 5 8 2 26 7 40 10 14 3 32 8 40 10 8 2 15 4 15 5 0 2 22 7 60 15 17 3 44
10 60 15 51 16 379 102 395 104 9 1 20 5 25 8 6 3 28 10 50 14 48 10 46 9 65
17 13 5 62 17 75 18 2 0 34 9 70 19 36 10 67 19 70 20 3 0 10 2 17 5 12 4 124
32 158 40 8 2 78 20 155 40 145 38 213 56 230 59 6 1 15 4 20 8 6 3 24 9 40
12 87 18 110 24 110 26 0 2 32 10 55 14 8 2 35 9 60 16 25 7 52 14 60 15 8 2
15 4 15 5 0 1 7 3 15 5 8 1 112 28 230 60 118 31 222 59 230 60 8 2 30 8 48
14 18 5 35 10 37 10 3 1 6 1 8 2 9 3 45 10 60 11 9 1 17 6 17 10 0 4 3 7 8 6
4 -1 23 2 42 7 19 4 44 9 55 11 11 1 20 3 20 4 0 1 7 3 15 6 8 2 76 20 150 39
74 20 151 41 170 46 19 5 43 12 53 14 10 2 27 7 37 10 10 3 28 8 39 10 12 3
31 8 44 11 12 3 30 7 40 7 9 1 17 4 17 7 0 4 6 7 13 8 25 3 62 10 65 12 1 2 7
4 12 5 6 1 11 3 13 5 3 2 45 10 70 12 9 1 17 5 17 8 0 3 8 7 18 8 20 2 56 10
60 12 1 2 7 4 12 5 6 1 11 3 13 5 1 1 11 3 22 4 11 2 56 13 100 25 84 23 150
41 175 46 8 2 15 4 15 5 0 1 7 3 15 5 8 1 44 11 80 20 36 9 72 19 80 21 8 2
40 11 70 20 30 9 62 17 70 18 44 7 87 20 99 30 8 6 17 10 20 9 9 -4 72 7 101
18 14 5 36 11 50 13 14 3 25 5 25 6 0 1 9 3 20 5 11 2 46 12 79 22 l58 18 -88
39 c-49 22 -132 60 -184 84 -52 24 -122 57 -155 72 -33 15 -104 49 -159 74
-54 25 -100 46 -102 46 -3 0 -37 15 -77 34 -132 62 -241 112 -372 172 -71 32
-132 61 -135 64 -3 3 -9 6 -15 7 -5 1 -59 24 -119 52 -100 48 -107 53 -94 69
8 9 24 28 34 41 10 13 24 28 29 35 28 32 85 105 85 109 0 3 -18 1 -40 -4 -22
-5 -57 -12 -78 -15 -20 -3 -40 -8 -45 -11 -4 -2 -6 384 -5 859 l3 863 30 5
c25 4 29 10 30 35 0 18 -8 36 -20 46 -21 17 -95 56 -108 58 -4 0 -14 6 -22 14
-11 12 -29 11 -117 -4 -152 -27 -148 -25 -148 -58 0 -32 22 -61 46 -61 16 0
15 7 18 -132 1 -100 0 -107 -19 -112 -32 -9 -65 -7 -65 4 0 6 -7 10 -16 10 -8
0 -13 4 -10 8 3 5 -7 15 -22 23 -15 8 -42 24 -61 37 -19 12 -41 20 -50 18 -9
-3 -38 -7 -66 -11 -27 -3 -59 -8 -70 -11 -11 -2 -47 3 -80 11 -33 9 -71 18
-85 20 -14 3 -32 8 -40 11 -8 3 -26 8 -40 10 -14 3 -32 7 -40 11 -8 3 -21 7
-28 9 -15 3 -181 54 -202 62 -19 7 -28 9 -41 11 -5 0 -7 6 -4 11 4 6 8 25 10
42 3 17 6 33 9 35 2 2 36 -12 75 -31 39 -20 75 -36 81 -36 6 0 18 -7 26 -15 9
-8 24 -15 35 -15 10 0 19 -4 19 -8 0 -4 10 -9 22 -9 13 -1 24 -7 26 -13 2 -5
10 -10 18 -10 8 0 22 -4 32 -10 20 -11 139 -60 147 -60 3 0 5 24 5 54 0 51 -1
54 -32 67 -31 12 -70 29 -183 79 -149 67 -255 121 -256 132 -1 7 0 18 1 23 1
6 3 84 4 175 1 91 4 167 7 169 8 7 49 -10 49 -21 0 -6 3 -9 6 -6 5 6 142 -53
206 -88 14 -7 33 -14 42 -14 9 0 16 -4 16 -10 0 -5 3 -9 8 -9 4 1 10 0 15 -1
4 -1 10 -3 15 -4 4 -1 24 -10 46 -19 21 -9 41 -17 45 -17 4 0 7 24 8 53 0 48
-2 54 -26 64 -174 75 -211 90 -216 85 -3 -3 -5 0 -5 6 0 6 -10 14 -22 18 -53
16 -205 96 -205 107 -1 19 -15 130 -19 152 -8 36 -17 90 -18 105 -1 9 -5 21
-10 28 -4 6 -5 12 -2 12 2 0 -2 24 -10 53 -8 28 -17 61 -19 73 -6 28 -53 174
-64 199 -5 11 -15 36 -22 55 -7 19 -30 73 -51 118 -21 46 -38 88 -38 92 0 5
-3 10 -7 12 -5 2 -23 32 -41 68 -36 73 -38 76 -105 177 -26 40 -47 75 -47 78
0 3 -12 17 -26 30 -15 14 -24 25 -20 25 4 0 0 7 -8 16 -9 9 -29 32 -44 52
-113 150 -358 379 -537 504 -77 53 -215 138 -226 138 -5 0 -9 5 -9 10 0 6 -3
9 -7 8 -5 -1 -54 21 -111 50 -56 28 -106 52 -110 53 -4 1 -25 8 -47 17 -22 9
-43 16 -47 14 -5 -1 -8 2 -8 8 0 6 -3 9 -7 8 -10 -3 -126 34 -133 41 -3 3 -12
7 -20 7 -8 1 -49 11 -90 22 -70 19 -176 43 -210 47 -8 1 -53 8 -99 14 -113 16
-203 22 -344 23 -119 0 -286 -10 -300 -19 -7 -4 -106 56 -108 66 -5 30 -5 61
1 61 4 0 7 6 7 13 1 6 4 30 8 52 20 104 8 275 -18 275 -5 0 -6 4 -3 9 9 13
-61 79 -101 96 -19 8 -46 15 -59 15 -13 0 -24 5 -24 12 0 17 -148 155 -182
170 -15 7 -28 16 -28 19 0 3 -6 6 -12 6 -7 1 -34 5 -60 11 -26 5 -49 8 -50 7z
m-2555 -3220 c18 -8 47 -24 66 -36 21 -12 47 -19 67 -17 29 2 42 -7 137 -102
57 -58 123 -122 147 -143 l43 -38 -84 2 c-46 1 -86 5 -89 10 -11 17 -122 77
-138 74 -9 -1 -50 -8 -89 -15 -73 -12 -73 -12 -73 -44 0 -31 -2 -32 -34 -28
l-34 4 0 174 1 174 24 0 c13 0 38 -7 56 -15z m550 1 c84 -1 158 -6 164 -9 7
-4 14 -3 17 1 3 5 25 7 48 5 52 -5 56 -5 91 0 15 2 30 0 33 -5 3 -5 6 -82 7
-171 l1 -162 -150 -1 -149 -1 -50 41 c-129 104 -288 265 -280 284 3 7 5 17 5
22 0 5 25 6 55 4 31 -3 124 -6 208 -8z m-581 -450 c8 7 78 -28 78 -38 0 -5 4
-7 9 -4 5 3 14 -1 20 -8 9 -10 26 -13 59 -10 l46 5 83 -86 c45 -47 87 -85 93
-85 6 0 8 -4 5 -10 -3 -5 -3 -10 2 -10 4 0 34 -24 67 -54 l58 -53 -98 3 c-69
3 -102 8 -109 17 -6 8 -36 28 -67 46 -59 34 -70 34 -188 6 -8 -2 -21 -4 -29
-4 -9 -1 -12 -9 -9 -26 5 -23 2 -25 -32 -25 l-37 0 0 168 c0 92 1 170 4 175 2
4 12 3 22 -3 10 -5 21 -7 23 -4z m544 -69 c88 -2 167 -7 175 -12 15 -9 166
-118 185 -134 6 -5 29 -20 52 -35 44 -28 62 -52 62 -86 0 -19 -4 -21 -50 -17
-27 3 -48 2 -46 -2 4 -6 -15 -6 -121 0 -29 1 -55 0 -58 -3 -11 -11 -86 10
-108 29 -12 11 -35 31 -51 44 -16 13 -45 40 -66 59 -180 169 -182 171 -153
164 10 -2 90 -5 179 -7z m421 -11 c7 -7 15 -66 9 -66 -12 0 -95 64 -91 70 4 7
75 4 82 -4z m5164 -201 c46 -15 89 -28 94 -29 6 -1 37 -10 70 -20 84 -24 127
-36 150 -40 11 -2 27 -6 35 -9 16 -6 67 -17 88 -19 26 -3 4 -21 -53 -44 -33
-13 -69 -28 -80 -34 -46 -22 -181 -70 -198 -70 -15 0 -240 110 -254 123 -1 2
5 25 13 52 17 55 26 93 27 113 0 7 6 11 12 8 6 -2 49 -16 96 -31z m-6111 -175
c3 -4 23 -16 45 -28 l40 -20 -2 -628 c-2 -345 -4 -628 -5 -630 -2 -1 -16 -4
-33 -7 -16 -3 -49 -8 -71 -12 l-42 -7 2 151 c1 94 -3 151 -9 152 -7 0 -7 2 0
5 7 3 10 185 9 522 l-2 518 32 -4 c17 -3 33 -8 36 -12z m444 10 c2 -3 -5 -6
-17 -7 -12 -1 -48 -5 -79 -11 -43 -7 -58 -6 -58 3 0 6 2 14 5 17 7 7 142 4
149 -2z m6521 -190 c1 -80 -1 -152 -3 -161 -2 -9 -15 -17 -30 -17 -15 -1 -36
-3 -47 -5 -11 -2 -27 4 -36 14 -9 10 -27 23 -40 29 -13 6 -36 18 -50 25 -20
11 -38 13 -71 6 -25 -4 -69 -8 -99 -7 -51 1 -53 2 -54 29 -2 27 -28 56 -53 57
-7 0 -20 4 -30 9 -37 20 -91 41 -103 41 -24 0 23 25 111 58 47 18 93 37 102
43 26 14 43 11 83 -12 24 -14 44 -19 61 -15 14 4 45 9 67 12 67 8 88 14 82 24
-6 10 15 15 69 15 l40 0 1 -145z m0 -463 c0 -98 -3 -181 -7 -183 -4 -3 -27 -7
-51 -9 -38 -4 -45 -2 -54 18 -6 12 -36 35 -67 51 l-57 28 -77 -14 c-117 -21
-112 -25 -113 105 -1 114 0 149 7 156 7 8 52 -10 88 -34 26 -17 45 -24 64 -20
15 3 43 8 62 10 19 3 46 8 60 12 14 3 28 6 32 5 4 -1 5 4 3 11 -10 28 22 43
90 42 19 0 19 -8 20 -178z m-394 -307 c5 0 27 -11 49 -25 41 -26 69 -30 135
-20 22 4 46 7 53 7 6 1 12 5 12 9 0 4 8 6 18 5 9 0 16 5 15 12 -2 6 -2 12 0
12 1 1 27 3 57 6 l55 6 0 -266 c0 -146 -3 -266 -8 -266 -5 0 -17 5 -28 10 -11
6 -36 13 -56 16 -46 6 -50 9 -57 61 -3 22 -7 52 -10 65 -3 12 -8 40 -11 60 -2
21 -6 43 -7 49 -2 7 -28 25 -58 42 -30 16 -85 47 -122 69 l-68 39 0 63 c0 59
11 97 18 62 2 -9 8 -16 13 -16z"/>
<path d="M10090 10299 c0 -19 -65 -88 -92 -98 -17 -6 -15 -10 19 -31 20 -14
47 -40 60 -58 l22 -33 23 35 c13 19 38 43 56 53 36 20 40 31 15 40 -18 7 -55
43 -85 85 -13 17 -17 19 -18 7z"/>
<path d="M3437 9982 c-15 -17 -15 -19 3 -35 19 -16 21 -16 39 2 18 18 18 19 0
35 -24 20 -22 20 -42 -2z"/>
<path d="M4280 9594 c-17 -31 -89 -86 -103 -77 -6 3 -7 1 -3 -5 4 -7 13 -12
19 -12 18 -1 52 -32 81 -74 l25 -37 16 34 c9 19 27 40 40 47 14 7 25 17 25 22
0 4 7 8 15 8 23 0 18 18 -7 26 -26 8 -78 63 -78 82 0 20 -16 14 -30 -14z"/>
<path d="M9507 9448 c-10 -11 -16 -22 -13 -25 3 -4 6 -3 6 1 0 5 8 -2 18 -14
l18 -22 13 25 c12 22 12 28 -2 41 -19 19 -17 19 -40 -6z"/>
<path d="M9874 9161 c-10 -17 -24 -31 -31 -31 -20 0 -16 -8 22 -46 19 -19 35
-30 35 -25 0 6 14 23 31 39 31 29 31 30 10 37 -11 3 -27 18 -35 32 l-13 26
-19 -32z"/>
<path d="M3800 9112 c0 -8 -14 -27 -30 -42 l-31 -29 26 -17 c14 -9 25 -23 25
-30 0 -22 13 -17 40 16 14 17 32 30 40 30 8 1 3 7 -12 16 -15 8 -34 27 -42 42
-9 15 -15 21 -16 14z"/>
</g>
</svg>
