<?xml version="1.0" encoding="utf-8"?>
<!-- Generator: Adobe Illustrator 25.0.0, SVG Export Plug-In . SVG Version: 6.00 Build 0)  -->
<svg version="1.1" id="Capa_1" xmlns="http://www.w3.org/2000/svg" xmlns:xlink="http://www.w3.org/1999/xlink" x="0px" y="0px"
	 viewBox="0 0 1199 528" style="enable-background:new 0 0 1199 528;" xml:space="preserve">
<style type="text/css">
	.st0{fill:#455A64;}
	.st1{fill:#CFD8DC;}
	.st2{fill:#F44336;}
	.st3{fill:#C62828;}
	.st4{fill:#FFEE00;stroke:#000000;stroke-width:19;stroke-miterlimit:10;}
	.st5{stroke:#FFFFFF;stroke-width:11;stroke-miterlimit:10;}
	.st6{font-family:'MyriadPro-Regular';}
	.st7{font-size:302.5664px;}
	.st8{fill:url(#SVGID_1_);}
	.st9{fill:url(#SVGID_2_);}
</style>
<path class="st0" d="M278.5,405.8L129.2,256.5c-4.2-4.2-10.9-4.2-15.1,0l-80.9,80.9c-24.3,24.3-24.3,63.7,0,88.1l0,0l76.3,76.3
	c24.3,24.3,63.7,24.3,88.1,0l0,0l80.8-80.8C282.7,416.8,282.7,410,278.5,405.8L278.5,405.8z"/>
<g>
	<path class="st1" d="M132.3,456c-2.8,0-5.5-1.1-7.6-3.1L82,410.2c-4.1-4.2-4-11,0.3-15.1c4.1-4,10.7-4,14.8,0l42.7,42.7
		c4.2,4.2,4.1,10.9,0,15.1C137.8,454.9,135.1,456,132.3,456z"/>
	<path class="st1" d="M175,434.7c-2.8,0-5.5-1.1-7.6-3.1l-64-64c-4.1-4.2-4-11,0.3-15.1c4.1-4,10.7-4,14.8,0l64,64
		c4.2,4.2,4.1,10.9,0,15.1C180.5,433.5,177.8,434.7,175,434.7z"/>
</g>
<path class="st2" d="M495,285.3L495,285.3v-10.7c2.7,0,5.2-0.9,7.2-2.7c16-16.4,24.9-38.4,24.8-61.3C527,172,459.4,8,324.3,8
	c-134,0-224,185.5-224,224c0,54.2,128,192,192,192c62.8,0,213.3-36.8,213.3-128C505.7,290.1,500.9,285.3,495,285.3z"/>
<g>
	<path class="st3" d="M388.3,328c-2.8,0-5.5-1.1-7.6-3.1c-21.7-22.2-27.8-55.3-15.5-83.8c8.2-23.7,30-39.9,55.1-41.1
		c51.2,0,85.3,57.8,85.3,96c0,5.9-4.8,10.7-10.7,10.7c-5.9,0-10.7-4.8-10.7-10.7c0-29.4-27.5-74.7-64-74.7
		c-16.3,1.4-30.2,12.4-35.3,27.9c-8.9,20.5-4.6,44.4,10.9,60.6c4.2,4.2,4.2,10.9,0,15.1C393.9,326.9,391.2,328,388.3,328z"/>
	<path class="st3" d="M367,306.7c-46.9,0-138.7-105.9-138.7-138.7c4.3-36.1,21.1-69.5,47.6-94.4c5-3.1,11.6-1.7,14.7,3.3
		s1.7,11.6-3.3,14.7c-20.3,20.9-33.4,47.6-37.7,76.3c0,18.8,80.5,117.3,117.3,117.3c5.9,0,10.7,4.8,10.7,10.7
		C377.7,301.9,372.9,306.7,367,306.7z"/>
</g>
<path d="M138.7,512c-16.5,0-17.4,1.5-29-10.2l-76.4-76.4C9,401.1,9,361.7,33.3,337.3l0,0l80.8-80.8c4.2-4.1,11-4,15.1,0.3
	c4,4.1,4,10.7,0,14.8l-80.8,80.9c-16,16-16,41.9,0,57.9l0,0l76.3,76.3c16.2,15.5,41.7,15.5,57.9,0l80.8-80.8c4.2-4.1,11-4,15.1,0.3
	c4,4.1,4,10.7,0,14.8l-80.8,80.8C186,513.5,155.2,512,138.7,512z"/>
<path d="M132.3,456c-2.8,0-5.5-1.1-7.6-3.1L82,410.2c-4.1-4.2-4-11,0.3-15.1c4.1-4,10.7-4,14.8,0l42.7,42.7c4.2,4.2,4.1,10.9,0,15.1
	C137.8,454.9,135.1,456,132.3,456z"/>
<path d="M175,434.7c-2.8,0-5.5-1.1-7.6-3.1l-64-64c-4.1-4.2-4-11,0.3-15.1c4.1-4,10.7-4,14.8,0l64,64c4.2,4.2,4.1,10.9,0,15.1
	C180.5,433.5,177.8,434.7,175,434.7z"/>
<path d="M292.3,424c-64,0-192-137.8-192-192c0-38.5,90-224,224-224C459.4,8,527,172,527,210.7c0.1,22.9-8.8,44.9-24.8,61.2l-0.3,0.2
	c2.4,7.7,3.6,15.8,3.7,23.9C505.7,387.2,355.1,424,292.3,424z M324.3,29.3c-120.6,0-202.7,177.5-202.7,202.7
	c0,39.2,114.9,170.7,170.7,170.7c52.9,0,192-32.8,192-106.7c0-29.4-27.5-74.7-64-74.7c-16.3,1.4-30.2,12.4-35.3,27.9
	c-8.9,20.5-4.6,44.4,10.9,60.6c4.1,4.2,4,11-0.3,15.1c-4.1,4-10.7,4-14.8,0c-21.7-22.2-27.8-55.3-15.5-83.8
	c8.2-23.7,30-39.9,55.1-41c31.6,2.1,59.4,21.4,72.5,50.1c8.4-11.5,12.8-25.3,12.8-39.5C505.7,181.2,442.5,29.3,324.3,29.3z"/>
<path d="M367,306.7c-46.9,0-138.7-105.9-138.7-138.7c4.3-36.1,21.1-69.5,47.6-94.4c5-3.1,11.6-1.7,14.7,3.3s1.7,11.6-3.3,14.7
	c-20.3,20.9-33.4,47.6-37.7,76.3c0,18.8,80.5,117.3,117.3,117.3c5.9,0,10.7,4.8,10.7,10.7C377.7,301.9,372.9,306.7,367,306.7z"/>
<path d="M249.7,136c-4.1,0-7.9-2.4-9.6-6.1c0,0-8.1-17.1-9.9-20c0,0-2.9-5.8-0.7-11c3.3-6.4,11.3-5.4,11.3-5.4c6,1,6,1,18.5,27.3
	c2.5,5.3,0.3,11.7-5,14.2C252.8,135.6,251.3,136,249.7,136z"/>
<path class="st4" d="M862,189.3"/>
<text transform="matrix(0.9037 0 0 1 595.7654 365.9627)" class="st5 st6 st7">ABK</text>
<linearGradient id="SVGID_1_" gradientUnits="userSpaceOnUse" x1="742.9494" y1="104.0218" x2="840.8723" y2="104.0218">
	<stop  offset="0" style="stop-color:#FCCC00"/>
	<stop  offset="1" style="stop-color:#FFFFFF"/>
</linearGradient>
<polyline class="st8" points="783.9,164.8 742.9,84.2 807.2,93.4 775,43.3 840.9,119.9 791.1,121.4 837,160.5 "/>
<linearGradient id="SVGID_2_" gradientUnits="userSpaceOnUse" x1="770.6294" y1="430.2717" x2="881.4034" y2="430.2717">
	<stop  offset="0.2978" style="stop-color:#F5F5F5"/>
	<stop  offset="0.8454" style="stop-color:#FFCE00"/>
	<stop  offset="0.9314" style="stop-color:#F0C302"/>
</linearGradient>
<polyline class="st9" points="846.4,366 892.7,451.2 820,441.5 856.4,494.6 781.9,413.5 838.2,411.8 786.2,370.4 "/>
</svg>
