<svg xmlns="http://www.w3.org/2000/svg" viewBox="0 0 373.42 420"><defs><style>.cls-1{fill:#323232;}.cls-2{fill:#fff;}.cls-3{fill:#ffd500;}.cls-4{fill:#fdc500;}</style></defs><g id="Capa_2" data-name="Capa 2"><g id="Layer_1" data-name="Layer 1"><path class="cls-1" d="M186.71,21.38a14.8,14.8,0,0,1,7.38,2l150.57,86.93A14.82,14.82,0,0,1,352,123.07V296.93a14.82,14.82,0,0,1-7.38,12.79L194.09,396.65a14.83,14.83,0,0,1-14.77,0L28.76,309.72a14.82,14.82,0,0,1-7.38-12.79V123.07a14.82,14.82,0,0,1,7.38-12.79L179.32,23.35a14.87,14.87,0,0,1,7.39-2Zm0-8.55A23.33,23.33,0,0,0,175.05,16L24.49,102.88a23.3,23.3,0,0,0-11.66,20.19V296.93a23.3,23.3,0,0,0,11.66,20.19l150.56,86.93a23.35,23.35,0,0,0,23.32,0l150.56-86.93a23.3,23.3,0,0,0,11.66-20.19V123.07a23.3,23.3,0,0,0-11.66-20.19L198.37,16a23.35,23.35,0,0,0-11.66-3.12Z"/><path class="cls-1" d="M186.71,420a36.13,36.13,0,0,1-18.07-4.84L18.07,328.23A36.24,36.24,0,0,1,0,296.93V123.07a36.24,36.24,0,0,1,18.07-31.3L168.63,4.84a36.17,36.17,0,0,1,36.15,0L355.34,91.77a36.25,36.25,0,0,1,18.08,31.3V296.93a36.25,36.25,0,0,1-18.08,31.3L204.78,415.16A36.19,36.19,0,0,1,186.71,420Zm0-411.45a27.62,27.62,0,0,0-13.8,3.7L22.35,99.17a27.7,27.7,0,0,0-13.8,23.9V296.93a27.7,27.7,0,0,0,13.8,23.9l150.56,86.92a27.59,27.59,0,0,0,27.6,0l150.56-86.92a27.7,27.7,0,0,0,13.8-23.9V123.07a27.7,27.7,0,0,0-13.8-23.9L200.51,12.25A27.62,27.62,0,0,0,186.71,8.55Z"/><path class="cls-1" d="M186.71,179.83H12.83V294.89h0a473.79,473.79,0,0,1,347.76,0h0V179.83Z"/><path class="cls-2" d="M62.59,204.41v8.51c0,10.48-5.05,16.18-15.34,16.18H42.38v24.61H32.09V188.22H47.25C57.54,188.22,62.59,193.93,62.59,204.41Zm-20.21-6.83v22.17h4.87c3.27,0,5-1.5,5-6.17v-9.83c0-4.68-1.78-6.17-5-6.17Z"/><path class="cls-2" d="M97.29,253.71c-.56-1.69-.93-2.71-.93-8.05V235.37c0-6.08-2.06-8.32-6.74-8.32H86.07v26.66H75.78V188.22H91.31c10.66,0,15.25,5,15.25,15.06v5.15c0,6.74-2.16,11.13-6.74,13.28,5.15,2.16,6.83,7.11,6.83,13.94v10.11c0,3.18.09,5.52,1.12,8ZM86.07,197.58v20.11h4c3.84,0,6.18-1.68,6.18-6.92v-6.46c0-4.67-1.59-6.73-5.24-6.73Z"/><path class="cls-2" d="M132.09,215.82h14.13v9.36H132.09v19.17h17.78v9.36H121.8V188.22h28.07v9.36H132.09Z"/><path class="cls-2" d="M186.44,234.72l7-46.5h14.31v65.49H198v-47l-7.11,47H181.2l-7.67-46.31v46.31h-9V188.22h14.31Z"/><path class="cls-2" d="M223.67,188.22H234v65.49H223.67Z"/><path class="cls-2" d="M259.69,188.22v50.52c0,4.68,2.05,6.36,5.33,6.36s5.33-1.68,5.33-6.36V188.22h9.73v49.87c0,10.47-5.24,16.46-15.34,16.46s-15.35-6-15.35-16.46V188.22Z"/><path class="cls-2" d="M317.31,234.72l7-46.5h14.31v65.49h-9.73v-47l-7.11,47h-9.73L304.4,207.4v46.31h-9V188.22h14.31Z"/><path class="cls-3" d="M220.81,125.59c-23.13-7.33-34.1-56.29-34.1-56.29s-11,49-34.11,56.29-34.31-12.34-34.31-12.34l13.52,28.16h109.8l13.52-28.16S244,132.91,220.81,125.59Z"/><path class="cls-3" d="M238.38,150.34H135.76a2.86,2.86,0,0,1-2.85-2.85h0a2.86,2.86,0,0,1,2.85-2.85H238.38a2.85,2.85,0,0,1,2.84,2.85h0A2.85,2.85,0,0,1,238.38,150.34Z"/><path class="cls-4" d="M192.67,66.83a6,6,0,1,1-6-5.95A6,6,0,0,1,192.67,66.83Z"/><path class="cls-4" d="M249.17,112.24a6,6,0,1,1,5.81,6.1A6,6,0,0,1,249.17,112.24Z"/><path class="cls-4" d="M112.33,112.24a6,6,0,1,1,5.81,6.1A6,6,0,0,1,112.33,112.24Z"/><path class="cls-1" d="M118.66,291.83v4.85c0,6-2.88,9.24-8.75,9.24h-2.78v14h-5.87V282.59h8.65C115.78,282.59,118.66,285.85,118.66,291.83Zm-11.53-3.9v12.65h2.78c1.87,0,2.88-.85,2.88-3.52v-5.61c0-2.67-1-3.52-2.88-3.52Z"/><path class="cls-1" d="M138.47,320c-.32-1-.54-1.55-.54-4.59v-5.88c0-3.47-1.17-4.75-3.84-4.75h-2V320h-5.87V282.59h8.86c6.09,0,8.7,2.83,8.7,8.6v2.93c0,3.85-1.23,6.35-3.84,7.58,2.93,1.23,3.9,4.06,3.9,7.95v5.77a11,11,0,0,0,.64,4.54Zm-6.41-32v11.48h2.3c2.19,0,3.52-1,3.52-4v-3.69c0-2.66-.91-3.84-3-3.84Z"/><path class="cls-1" d="M152,291.56c0-6,3.15-9.39,8.92-9.39s8.91,3.41,8.91,9.39V311c0,6-3.15,9.39-8.91,9.39S152,317,152,311Zm5.87,19.8c0,2.67,1.18,3.69,3,3.69s3-1,3-3.69V291.19c0-2.67-1.18-3.69-3-3.69s-3,1-3,3.69Z"/><path class="cls-1" d="M178.39,282.59h9.29c5.87,0,8.76,3.26,8.76,9.24v18.89c0,6-2.89,9.24-8.76,9.24h-9.29Zm5.88,5.34v26.69h3.31c1.86,0,3-1,3-3.63V291.56c0-2.67-1.12-3.63-3-3.63Z"/><path class="cls-1" d="M210.58,282.59v28.83c0,2.66,1.18,3.63,3,3.63s3-1,3-3.63V282.59h5.55V311c0,6-3,9.4-8.76,9.4s-8.75-3.42-8.75-9.4V282.59Z"/><path class="cls-1" d="M248.05,306v5c0,6-3,9.39-8.75,9.39s-8.75-3.41-8.75-9.39V291.56c0-6,3-9.39,8.75-9.39s8.75,3.41,8.75,9.39v3.63H242.5v-4c0-2.67-1.17-3.69-3-3.69s-3,1-3,3.69v20.17c0,2.67,1.17,3.63,3,3.63s3-1,3-3.63V306Z"/><path class="cls-1" d="M254.73,282.59h18.14v5.34h-6.14v32h-5.87v-32h-6.13Z"/><polygon class="cls-3" points="186.08 347.28 190.43 356.1 200.16 357.51 193.12 364.37 194.78 374.06 186.08 369.49 177.38 374.06 179.04 364.37 172 357.51 181.73 356.1 186.08 347.28"/><polygon class="cls-3" points="218.77 338.32 222.62 346.12 231.23 347.38 225 353.45 226.47 362.02 218.77 357.97 211.07 362.02 212.54 353.45 206.31 347.38 214.92 346.12 218.77 338.32"/><polygon class="cls-3" points="248.33 330.95 251.45 337.27 258.44 338.29 253.38 343.21 254.58 350.17 248.33 346.89 242.08 350.17 243.28 343.21 238.22 338.29 245.21 337.27 248.33 330.95"/><polygon class="cls-3" points="153.39 338.32 149.54 346.12 140.93 347.38 147.16 353.45 145.69 362.02 153.39 357.97 161.09 362.02 159.62 353.45 165.85 347.38 157.24 346.12 153.39 338.32"/><polygon class="cls-3" points="123.83 330.95 120.71 337.27 113.72 338.29 118.78 343.21 117.58 350.17 123.83 346.89 130.08 350.17 128.88 343.21 133.94 338.29 126.95 337.27 123.83 330.95"/></g></g></svg>